<svg width="884" height="854" viewBox="0 0 884 854" fill="none" xmlns="http://www.w3.org/2000/svg">
<path d="M270.46 280.542L270.364 280.48L270.459 280.415L270.46 280.542Z" fill="white"/>
<path d="M295.033 280.235L294.481 280.558L294.474 279.923L295.033 280.235Z" fill="white"/>
<path d="M259.111 301.588L258.243 302.105L258.233 301.089L259.111 301.588Z" fill="white"/>
<path d="M307.715 302.329L305.591 301.127L307.691 299.883L307.715 302.329Z" fill="white"/>
<path d="M330.971 258.882L330.735 259.027L330.732 258.741L330.971 258.882Z" fill="white"/>
<path d="M271.7 323.921L269.178 322.485L271.671 321.015L271.7 323.921Z" fill="white"/>
<path d="M297.275 322.206L294.008 324.145L293.97 320.349L297.275 322.206Z" fill="white"/>
<path d="M333.085 300.854L330.324 302.502L330.292 299.278L333.085 300.854Z" fill="white"/>
<path d="M343.762 280.8L341.926 279.77L343.741 278.704L343.762 280.8Z" fill="white"/>
<path d="M234.38 301.992L234.108 301.836L234.377 301.69L234.38 301.992Z" fill="white"/>
<path d="M235.571 345.308L232.985 343.841L235.542 342.338L235.571 345.308Z" fill="white"/>
<path d="M261.416 343.559L257.723 345.755L257.68 341.452L261.416 343.559Z" fill="white"/>
<path d="M309.343 346.387L303.611 343.14L309.277 339.796L309.343 346.387Z" fill="white"/>
<path d="M336.122 342.818L329.445 346.775L329.368 339.009L336.122 342.818Z" fill="white"/>
<path d="M345.293 324.684L340.152 321.781L345.235 318.792L345.293 324.684Z" fill="white"/>
<path d="M369.404 279.497L366.374 281.29L366.339 277.765L369.404 279.497Z" fill="white"/>
<path d="M380.052 259.698L377.769 258.418L380.026 257.093L380.052 259.698Z" fill="white"/>
<path d="M367.194 237.526L366.847 237.72L366.843 237.323L367.194 237.526Z" fill="white"/>
<path d="M222.887 322.944L222.13 323.396L222.121 322.507L222.887 322.944Z" fill="white"/>
<path d="M224.987 364.933L221.72 366.871L221.682 363.059L224.987 364.933Z" fill="white"/>
<path d="M273.359 368.026L267.133 364.514L273.288 360.864L273.359 368.026Z" fill="white"/>
<path d="M300.501 364.184L293.035 368.578L292.95 359.923L300.501 364.184Z" fill="white"/>
<path d="M347.26 369.31L337.505 363.816L347.149 358.114L347.26 369.31Z" fill="white"/>
<path d="M371.949 321.466L365.746 325.132L365.674 317.922L371.949 321.466Z" fill="white"/>
<path d="M381.438 303.345L376.281 300.426L381.379 297.421L381.438 303.345Z" fill="white"/>
<path d="M406.057 258.137L402.269 260.367L402.226 255.968L406.057 258.137Z" fill="white"/>
<path d="M198.155 323.205L198.14 323.19L198.155 323.19L198.155 323.205Z" fill="white"/>
<path d="M236.974 388.971L231.466 385.865L236.911 382.65L236.974 388.971Z" fill="white"/>
<path d="M264.182 385.54L256.985 389.789L256.902 381.42L264.182 385.54Z" fill="white"/>
<path d="M311.244 390.903L301.09 385.174L311.128 379.23L311.244 390.903Z" fill="white"/>
<path d="M339.491 384.794L328.411 391.336L328.283 378.456L339.491 384.794Z" fill="white"/>
<path d="M375.492 363.44L364.633 369.853L364.508 357.227L375.492 363.44Z" fill="white"/>
<path d="M383.242 347.687L373.966 342.442L383.136 337.031L383.242 347.687Z" fill="white"/>
<path d="M408.49 300.106L401.703 304.128L401.625 296.22L408.49 300.106Z" fill="white"/>
<path d="M418.018 282.732L411.567 279.079L417.944 275.3L418.018 282.732Z" fill="white"/>
<path d="M416.567 238.99L413.167 237.07L416.529 235.083L416.567 238.99Z" fill="white"/>
<path d="M403.847 216.166L402.742 216.812L402.73 215.526L403.847 216.166Z" fill="white"/>
<path d="M186.568 344.301L186.063 344.608L186.057 344.02L186.568 344.301Z" fill="white"/>
<path d="M199.233 366.332L197.238 365.208L199.211 364.029L199.233 366.332Z" fill="white"/>
<path d="M200.441 409.663L196.099 407.212L200.392 404.676L200.441 409.663Z" fill="white"/>
<path d="M227.118 406.905L221.294 410.346L221.227 403.58L227.118 406.905Z" fill="white"/>
<path d="M274.938 411.974L265.279 406.526L274.829 400.889L274.938 411.974Z" fill="white"/>
<path d="M303.331 406.149L292.267 412.691L292.139 399.827L303.331 406.149Z" fill="white"/>
<path d="M348.936 413.447L335.445 405.83L348.782 397.947L348.936 413.447Z" fill="white"/>
<path d="M378.179 405.407L363.926 413.839L363.762 397.259L378.179 405.407Z" fill="white"/>
<path d="M385.048 392.029L371.653 384.475L384.895 376.656L385.048 392.029Z" fill="white"/>
<path d="M411.542 342.07L400.809 348.418L400.685 335.951L411.542 342.07Z" fill="white"/>
<path d="M419.564 326.616L409.778 321.09L419.453 315.372L419.564 326.616Z" fill="white"/>
<path d="M446.063 278.737L437.129 284.019L437.026 273.633L446.063 278.737Z" fill="white"/>
<path d="M454.969 262.734L446.124 257.74L454.868 252.571L454.969 262.734Z" fill="white"/>
<path d="M443.551 236.769L437.758 240.193L437.691 233.46L443.551 236.769Z" fill="white"/>
<path d="M415.295 195.532L414.465 195.048L415.285 194.563L415.295 195.532Z" fill="white"/>
<path d="M188.334 386.293L185.825 387.779L185.796 384.857L188.334 386.293Z" fill="white"/>
<path d="M190.115 428.269L185.57 430.95L185.517 425.678L190.115 428.269Z" fill="white"/>
<path d="M238.31 432.508L230.087 427.872L238.216 423.074L238.31 432.508Z" fill="white"/>
<path d="M266.488 427.511L256.466 433.423L256.35 421.799L266.488 427.511Z" fill="white"/>
<path d="M312.694 434.645L299.491 427.184L312.544 419.478L312.694 434.645Z" fill="white"/>
<path d="M341.971 426.762L327.813 435.13L327.65 418.677L341.971 426.762Z" fill="white"/>
<path d="M386.256 435.376L370.498 426.479L386.076 417.272L386.256 435.376Z" fill="white"/>
<path d="M414.418 384.05L400.023 392.547L399.858 375.841L414.418 384.05Z" fill="white"/>
<path d="M421.321 370.895L407.543 363.122L421.164 355.061L421.321 370.895Z" fill="white"/>
<path d="M448.591 320.705L436.516 327.845L436.377 313.822L448.591 320.705Z" fill="white"/>
<path d="M456.402 306.429L444.556 299.749L456.268 292.835L456.402 306.429Z" fill="white"/>
<path d="M484.223 257.362L472.291 264.405L472.154 250.557L484.223 257.362Z" fill="white"/>
<path d="M453.438 218.85L447.899 215.729L453.375 212.482L453.438 218.85Z" fill="white"/>
<path d="M441.102 194.784L438.34 196.415L438.308 193.207L441.102 194.784Z" fill="white"/>
<path d="M162.831 387.26L161.586 386.558L162.817 385.831L162.831 387.26Z" fill="white"/>
<path d="M201.552 452.837L195.15 449.215L201.479 445.484L201.552 452.837Z" fill="white"/>
<path d="M229.042 448.879L220.961 453.66L220.868 444.275L229.042 448.879Z" fill="white"/>
<path d="M276.146 455.305L264.156 448.531L276.01 441.536L276.146 455.305Z" fill="white"/>
<path d="M305.303 448.123L291.934 456.038L291.78 440.49L305.303 448.123Z" fill="white"/>
<path d="M350.03 456.589L334.512 447.833L349.854 438.771L350.03 456.589Z" fill="white"/>
<path d="M379.675 447.385L363.813 456.77L363.63 438.332L379.675 447.385Z" fill="white"/>
<path d="M416.168 426.026L399.785 435.703L399.596 416.677L416.168 426.026Z" fill="white"/>
<path d="M422.577 414.305L406.308 405.127L422.392 395.629L422.577 414.305Z" fill="white"/>
<path d="M451.213 362.689L435.856 371.767L435.679 353.917L451.213 362.689Z" fill="white"/>
<path d="M457.934 350.329L442.766 341.76L457.761 332.908L457.934 350.329Z" fill="white"/>
<path d="M486.545 299.332L471.771 308.055L471.601 290.904L486.545 299.332Z" fill="white"/>
<path d="M493.726 287.079L478.383 278.416L493.551 269.467L493.726 287.079Z" fill="white"/>
<path d="M492.243 243.274L480.062 236.406L492.104 229.283L492.243 243.274Z" fill="white"/>
<path d="M481.425 215.396L473.044 220.339L472.948 210.604L481.425 215.396Z" fill="white"/>
<path d="M451.988 175.093L449.53 173.703L451.96 172.282L451.988 175.093Z" fill="white"/>
<path d="M439.162 152.809L438.673 153.1L438.667 152.528L439.162 152.809Z" fill="white"/>
<path d="M151.539 407.654L149.992 408.559L149.975 406.781L151.539 407.654Z" fill="white"/>
<path d="M163.894 430.355L160.732 428.56L163.857 426.703L163.894 430.355Z" fill="white"/>
<path d="M164.891 473.307L160.021 470.56L164.835 467.733L164.891 473.307Z" fill="white"/>
<path d="M191.786 470.245L185.362 474.042L185.288 466.577L191.786 470.245Z" fill="white"/>
<path d="M239.34 475.539L229.298 469.873L239.226 464.025L239.34 475.539Z" fill="white"/>
<path d="M268.095 469.489L256.305 476.467L256.169 462.761L268.095 469.489Z" fill="white"/>
<path d="M313.579 477.423L298.987 469.182L313.413 460.669L313.579 477.423Z" fill="white"/>
<path d="M343.213 468.743L327.824 477.838L327.647 459.972L343.213 468.743Z" fill="white"/>
<path d="M386.931 477.808L370.422 468.474L386.742 458.83L386.931 477.808Z" fill="white"/>
<path d="M416.744 468.014L400.124 477.835L399.933 458.54L416.744 468.014Z" fill="white"/>
<path d="M423.269 456.784L406.169 447.122L423.074 437.139L423.269 456.784Z" fill="white"/>
<path d="M452.757 404.667L435.711 414.731L435.515 394.943L452.757 404.667Z" fill="white"/>
<path d="M459.061 393.534L441.786 383.779L458.864 373.683L459.061 393.534Z" fill="white"/>
<path d="M488.834 341.303L471.267 351.69L471.065 331.283L488.834 341.303Z" fill="white"/>
<path d="M495.062 330.616L476.99 320.424L494.857 309.875L495.062 330.616Z" fill="white"/>
<path d="M525.038 277.954L506.761 288.76L506.55 267.528L525.038 277.954Z" fill="white"/>
<path d="M531.017 267.666L512.273 257.084L530.803 246.132L531.017 267.666Z" fill="white"/>
<path d="M522.605 235.985L507.343 244.998L507.167 227.259L522.605 235.985Z" fill="white"/>
<path d="M490.455 198.964L482.345 194.374L490.363 189.641L490.455 198.964Z" fill="white"/>
<path d="M478.612 173.415L473.814 176.258L473.759 170.684L478.612 173.415Z" fill="white"/>
<path d="M450.846 131.887L450.526 131.7L450.842 131.506L450.846 131.887Z" fill="white"/>
<path d="M126.477 408.252L125.87 407.909L126.47 407.57L126.477 408.252Z" fill="white"/>
<path d="M153.083 449.633L149.847 451.555L149.81 447.791L153.083 449.633Z" fill="white"/>
<path d="M154.611 491.627L149.733 494.502L149.677 488.833L154.611 491.627Z" fill="white"/>
<path d="M202.566 495.852L194.376 491.232L202.473 486.435L202.566 495.852Z" fill="white"/>
<path d="M230.538 490.874L220.847 496.592L220.735 485.333L230.538 490.874Z" fill="white"/>
<path d="M276.95 497.973L263.779 490.544L276.8 482.839L276.95 497.973Z" fill="white"/>
<path d="M306.386 490.121L292.023 498.602L291.857 481.911L306.386 490.121Z" fill="white"/>
<path d="M350.624 498.879L334.611 489.841L350.442 480.488L350.624 498.879Z" fill="white"/>
<path d="M380.25 489.389L364.151 498.903L363.965 480.18L380.25 489.389Z" fill="white"/>
<path d="M423.523 498.489L406.919 489.124L423.334 479.416L423.523 498.489Z" fill="white"/>
<path d="M453.332 446.655L436.049 456.864L435.85 436.806L453.332 446.655Z" fill="white"/>
<path d="M459.687 435.871L441.789 425.772L459.483 415.321L459.687 435.871Z" fill="white"/>
<path d="M489.997 383.301L471.325 394.334L471.11 372.624L489.997 383.301Z" fill="white"/>
<path d="M496.012 373.521L476.358 362.439L495.788 350.954L496.012 373.521Z" fill="white"/>
<path d="M526.963 319.928L506.444 332.059L506.208 308.222L526.963 319.928Z" fill="white"/>
<path d="M532.225 310.998L511.134 299.088L531.984 286.763L532.225 310.998Z" fill="white"/>
<path d="M563.357 256.577L541.845 269.29L541.597 244.293L563.357 256.577Z" fill="white"/>
<path d="M529.309 223.466L514.397 215.069L529.139 206.362L529.309 223.466Z" fill="white"/>
<path d="M519.316 194.008L508.33 200.502L508.204 187.749L519.316 194.008Z" fill="white"/>
<path d="M488.746 154.795L484.451 152.36L488.697 149.84L488.746 154.795Z" fill="white"/>
<path d="M476.243 131.445L474.349 132.56L474.327 130.368L476.243 131.445Z" fill="white"/>
<path d="M115.014 429.013L114.035 429.595L114.024 428.452L115.014 429.013Z" fill="white"/>
<path d="M127.41 451.142L125.239 449.909L127.385 448.649L127.41 451.142Z" fill="white"/>
<path d="M165.873 516.292L159.295 512.577L165.798 508.732L165.873 516.292Z" fill="white"/>
<path d="M193.346 512.239L185.217 517.037L185.124 507.604L193.346 512.239Z" fill="white"/>
<path d="M240.192 518.286L228.857 511.887L240.063 505.264L240.192 518.286Z" fill="white"/>
<path d="M269.178 511.487L256.394 519.031L256.246 504.198L269.178 511.487Z" fill="white"/>
<path d="M314.061 519.539L299.261 511.189L313.892 502.531L314.061 519.539Z" fill="white"/>
<path d="M343.551 510.749L328.288 519.763L328.112 502.024L343.551 510.749Z" fill="white"/>
<path d="M387.023 519.228L371.489 510.472L386.847 501.41L387.023 519.228Z" fill="white"/>
<path d="M416.224 510.029L401.009 519.026L400.833 501.335L416.224 510.029Z" fill="white"/>
<path d="M453.035 488.667L436.825 498.23L436.638 479.411L453.035 488.667Z" fill="white"/>
<path d="M459.861 477.449L442.698 467.757L459.666 457.741L459.861 477.449Z" fill="white"/>
<path d="M490.223 425.292L471.835 436.163L471.623 414.787L490.223 425.292Z" fill="white"/>
<path d="M496.348 415.4L476.918 404.427L496.126 393.071L496.348 415.4Z" fill="white"/>
<path d="M528.03 361.927L506.533 374.624L506.286 349.643L528.03 361.927Z" fill="white"/>
<path d="M533.157 353.871L510.518 341.088L532.899 327.874L533.157 353.871Z" fill="white"/>
<path d="M564.996 298.554L541.668 312.349L541.4 285.24L564.996 298.554Z" fill="white"/>
<path d="M569.435 291.458L545.167 277.754L569.158 263.571L569.435 291.458Z" fill="white"/>
<path d="M568.146 247.969L546.496 235.747L567.899 223.099L568.146 247.969Z" fill="white"/>
<path d="M560.433 214.613L542.661 225.097L542.456 204.467L560.433 214.613Z" fill="white"/>
<path d="M527.277 178.745L517.155 173.033L527.162 167.12L527.277 178.745Z" fill="white"/>
<path d="M515.883 152.048L509.396 155.893L509.322 148.349L515.883 152.048Z" fill="white"/>
<path d="M487.458 111.322L485.75 110.354L487.438 109.353L487.458 111.322Z" fill="white"/>
<path d="M90.2354 429.45L89.9002 429.263L90.2316 429.069L90.2354 429.45Z" fill="white"/>
<path d="M116.383 470.993L113.984 472.415L113.956 469.636L116.383 470.993Z" fill="white"/>
<path d="M128.359 494.015L124.64 491.924L128.317 489.743L128.359 494.015Z" fill="white"/>
<path d="M129.26 536.826L124.103 533.923L129.201 530.902L129.26 536.826Z" fill="white"/>
<path d="M156.043 533.606L149.651 537.386L149.577 529.953L156.043 533.606Z" fill="white"/>
<path d="M203.387 538.521L193.999 533.229L203.28 527.753L203.387 538.521Z" fill="white"/>
<path d="M231.558 532.857L220.967 539.108L220.845 526.817L231.558 532.857Z" fill="white"/>
<path d="M277.352 539.947L264.228 532.533L277.202 524.86L277.352 539.947Z" fill="white"/>
<path d="M306.342 532.115L292.658 540.192L292.5 524.311L306.342 532.115Z" fill="white"/>
<path d="M350.46 539.905L336.139 531.82L350.297 523.452L350.46 539.905Z" fill="white"/>
<path d="M379.254 531.392L365.27 539.662L365.109 523.4L379.254 531.392Z" fill="white"/>
<path d="M422.955 538.804L409.289 531.094L422.799 523.114L422.955 538.804Z" fill="white"/>
<path d="M451.308 530.677L438.286 538.366L438.136 523.248L451.308 530.677Z" fill="white"/>
<path d="M459.486 518.097L444.67 509.746L459.318 501.088L459.486 518.097Z" fill="white"/>
<path d="M489.83 467.289L472.641 477.45L472.443 457.487L489.83 467.289Z" fill="white"/>
<path d="M496.377 456.726L478.112 446.409L496.169 435.747L496.377 456.726Z" fill="white"/>
<path d="M527.684 403.924L507.324 415.958L507.089 392.295L527.684 403.924Z" fill="white"/>
<path d="M533.364 395.513L511.348 383.089L533.113 370.231L533.364 395.513Z" fill="white"/>
<path d="M566.064 340.537L541.757 354.913L541.477 326.661L566.064 340.537Z" fill="white"/>
<path d="M570.287 334.19L544.726 319.752L569.996 304.826L570.287 334.19Z" fill="white"/>
<path d="M602.934 277.181L576.923 292.559L576.623 262.322L602.934 277.181Z" fill="white"/>
<path d="M606.338 271.382L579.819 256.414L606.036 240.922L606.338 271.382Z" fill="white"/>
<path d="M601.216 235.205L577.146 249.436L576.868 221.454L601.216 235.205Z" fill="white"/>
<path d="M566.212 203.406L549.049 193.713L566.016 183.697L566.212 203.406Z" fill="white"/>
<path d="M556.682 172.641L543.882 180.201L543.734 165.336L556.682 172.641Z" fill="white"/>
<path d="M525.407 134.293L519.58 131.015L525.341 127.607L525.407 134.293Z" fill="white"/>
<path d="M513.356 110.08L510.026 112.051L509.987 108.176L513.356 110.08Z" fill="white"/>
<path d="M78.6632 450.371L78.0003 450.758L77.9927 449.996L78.6632 450.371Z" fill="white"/>
<path d="M91.0557 472.134L89.523 471.26L91.0382 470.371L91.0557 472.134Z" fill="white"/>
<path d="M117.863 512.988L113.885 515.33L113.84 510.709L117.863 512.988Z" fill="white"/>
<path d="M118.946 554.97L113.958 557.911L113.901 552.13L118.946 554.97Z" fill="white"/>
<path d="M166.58 558.755L159.172 554.572L166.496 550.242L166.58 558.755Z" fill="white"/>
<path d="M194.064 554.225L185.493 559.298L185.394 549.324L194.064 554.225Z" fill="white"/>
<path d="M240.447 559.991L229.591 553.873L240.324 547.541L240.447 559.991Z" fill="white"/>
<path d="M268.801 553.484L257.2 560.333L257.067 546.866L268.801 553.484Z" fill="white"/>
<path d="M313.67 560.17L301.265 553.162L313.528 545.909L313.67 560.17Z" fill="white"/>
<path d="M342.11 552.757L329.609 560.139L329.465 545.624L342.11 552.757Z" fill="white"/>
<path d="M386.245 559.212L374.239 552.438L386.108 545.428L386.245 559.212Z" fill="white"/>
<path d="M414.275 552.041L402.58 558.955L402.445 545.377L414.275 552.041Z" fill="white"/>
<path d="M458.562 557.828L447.722 551.71L458.439 545.377L458.562 557.828Z" fill="white"/>
<path d="M488.309 509.314L474.009 517.762L473.845 501.15L488.309 509.314Z" fill="white"/>
<path d="M496.115 497.578L479.847 488.401L495.93 478.886L496.115 497.578Z" fill="white"/>
<path d="M526.799 445.926L508.38 456.813L508.167 435.406L526.799 445.926Z" fill="white"/>
<path d="M533.103 436.35L513.114 425.065L532.875 413.386L533.103 436.35Z" fill="white"/>
<path d="M565.591 382.551L542.61 396.136L542.345 369.424L565.591 382.551Z" fill="white"/>
<path d="M570.478 375.784L545.603 361.752L570.194 347.23L570.478 375.784Z" fill="white"/>
<path d="M603.922 319.165L577.059 335.044L576.749 303.838L603.922 319.165Z" fill="white"/>
<path d="M607.077 313.924L579.601 298.409L606.764 282.368L607.077 313.924Z" fill="white"/>
<path d="M640.015 255.817L612.599 272.019L612.283 240.162L640.015 255.817Z" fill="white"/>
<path d="M604.855 227.561L581.514 214.403L604.59 200.77L604.855 227.561Z" fill="white"/>
<path d="M597.815 193.229L578.196 204.828L577.97 182.038L597.815 193.229Z" fill="white"/>
<path d="M563.954 158.29L552.251 151.688L563.821 144.855L563.954 158.29Z" fill="white"/>
<path d="M553.059 130.683L545.041 135.416L544.949 126.11L553.059 130.683Z" fill="white"/>
<path d="M523.909 90.4877L521.291 89.0048L523.879 87.4544L523.909 90.4877Z" fill="white"/>
<path d="M511.145 68.1086L510.482 68.4964L510.474 67.7182L511.145 68.1086Z" fill="white"/>
<path d="M54.0908 450.805L53.7714 450.618L54.087 450.424L54.0908 450.805Z" fill="white"/>
<path d="M79.8412 492.368L78.0419 493.434L78.021 491.322L79.8412 492.368Z" fill="white"/>
<path d="M91.9404 514.929L89.0187 513.274L91.907 511.562L91.9404 514.929Z" fill="white"/>
<path d="M129.87 579.147L124.139 575.916L129.805 572.572L129.87 579.147Z" fill="white"/>
<path d="M156.586 575.594L150.004 579.487L149.928 571.832L156.586 575.594Z" fill="white"/>
<path d="M203.561 580.115L194.891 575.214L203.462 570.142L203.561 580.115Z" fill="white"/>
<path d="M231.133 574.854L221.805 580.379L221.697 569.532L231.133 574.854Z" fill="white"/>
<path d="M276.928 580.515L266.311 574.506L276.807 568.303L276.928 580.515Z" fill="white"/>
<path d="M304.743 574.124L294.058 580.44L293.935 568.037L304.743 574.124Z" fill="white"/>
<path d="M349.633 579.794L339 573.785L349.512 567.581L349.633 579.794Z" fill="white"/>
<path d="M377.099 573.407L366.95 579.416L366.833 567.616L377.099 573.407Z" fill="white"/>
<path d="M421.982 578.457L412.419 573.056L421.873 567.467L421.982 578.457Z" fill="white"/>
<path d="M448.979 572.694L440.061 577.976L439.958 567.606L448.979 572.694Z" fill="white"/>
<path d="M486.17 551.328L475.674 557.531L475.553 545.335L486.17 551.328Z" fill="white"/>
<path d="M495.272 537.42L482.756 530.365L495.13 523.064L495.272 537.42Z" fill="white"/>
<path d="M525.581 487.947L509.592 497.381L509.408 478.816L525.581 487.947Z" fill="white"/>
<path d="M532.728 476.997L515.086 467.039L532.527 456.748L532.728 476.997Z" fill="white"/>
<path d="M564.214 424.558L543.901 436.56L543.667 412.961L564.214 424.558Z" fill="white"/>
<path d="M570.006 416.289L547.75 403.725L569.752 390.721L570.006 416.289Z" fill="white"/>
<path d="M603.37 361.18L577.943 376.187L577.65 346.664L603.37 361.18Z" fill="white"/>
<path d="M607.396 355.74L580.223 340.397L607.087 324.533L607.396 355.74Z" fill="white"/>
<path d="M640.812 297.802L612.844 314.327L612.522 281.835L640.812 297.802Z" fill="white"/>
<path d="M643.576 293.153L615.078 277.061L643.251 260.406L643.576 293.153Z" fill="white"/>
<path d="M642.611 250.232L615.726 235.061L642.305 219.359L642.611 250.232Z" fill="white"/>
<path d="M637.599 213.847L613.166 228.273L612.884 199.893L637.599 213.847Z" fill="white"/>
<path d="M602.631 182.524L584.638 172.363L602.426 161.863L602.631 182.524Z" fill="white"/>
<path d="M593.605 151.278L579.637 159.532L579.476 143.302L593.605 151.278Z" fill="white"/>
<path d="M562.085 113.853L554.677 109.67L562.001 105.341L562.085 113.853Z" fill="white"/>
<path d="M550.167 88.7183L545.842 91.2548L545.792 86.2523L550.167 88.7183Z" fill="white"/>
<path d="M522.62 46.9982L522.605 46.9829L522.62 46.9827L522.62 46.9982Z" fill="white"/>
<path d="M42.4555 471.727L41.8716 472.082L41.8649 471.399L42.4555 471.727Z" fill="white"/>
<path d="M54.7988 493.284L53.6016 492.629L54.7854 491.934L54.7988 493.284Z" fill="white"/>
<path d="M81.0201 534.35L78.0844 536.094L78.0504 532.664L81.0201 534.35Z" fill="white"/>
<path d="M92.6963 557.486L88.7689 555.27L92.6516 552.976L92.6963 557.486Z" fill="white"/>
<path d="M93.21 599.649L88.9792 597.261L93.1618 594.79L93.21 599.649Z" fill="white"/>
<path d="M119.363 596.96L114.375 599.916L114.318 594.119L119.363 596.96Z" fill="white"/>
<path d="M166.738 600.318L160.081 596.556L166.663 592.679L166.738 600.318Z" fill="white"/>
<path d="M193.655 596.223L186.316 600.568L186.231 592.04L193.655 596.223Z" fill="white"/>
<path d="M240.089 600.67L231.531 595.847L239.992 590.856L240.089 600.67Z" fill="white"/>
<path d="M267.313 595.492L258.553 600.677L258.452 590.498L267.313 595.492Z" fill="white"/>
<path d="M312.923 600.17L303.982 595.129L312.821 589.927L312.923 600.17Z" fill="white"/>
<path d="M339.938 594.772L331.289 599.893L331.189 589.84L339.938 594.772Z" fill="white"/>
<path d="M385.37 599.023L377.196 594.402L385.277 589.637L385.37 599.023Z" fill="white"/>
<path d="M412.008 594.057L404.306 598.612L404.217 589.671L412.008 594.057Z" fill="white"/>
<path d="M457.72 597.686L450.615 593.674L457.639 589.523L457.72 597.686Z" fill="white"/>
<path d="M484.286 593.34L477.23 597.508L477.149 589.313L484.286 593.34Z" fill="white"/>
<path d="M494.43 577.294L485.633 572.33L494.33 567.193L494.43 577.294Z" fill="white"/>
<path d="M523.458 529.962L511.273 537.166L511.133 523L523.458 529.962Z" fill="white"/>
<path d="M531.966 517.012L517.804 509.021L531.804 500.734L531.966 517.012Z" fill="white"/>
<path d="M562.82 466.565L545.222 476.968L545.019 456.529L562.82 466.565Z" fill="white"/>
<path d="M569.389 456.51L550.23 445.693L569.17 434.499L569.389 456.51Z" fill="white"/>
<path d="M601.707 403.189L579.389 416.387L579.132 390.437L601.707 403.189Z" fill="white"/>
<path d="M606.86 396.118L582.513 382.383L606.583 368.168L606.86 396.118Z" fill="white"/>
<path d="M640.674 339.797L613.526 355.853L613.213 324.298L640.674 339.797Z" fill="white"/>
<path d="M643.944 335.063L615.574 319.049L643.621 302.491L643.944 335.063Z" fill="white"/>
<path d="M677.099 276.446L648.91 293.1L648.585 260.354L677.099 276.446Z" fill="white"/>
<path d="M679.527 271.466L651.588 255.702L679.209 239.371L679.527 271.466Z" fill="white"/>
<path d="M675.763 234.465L648.946 250.296L648.637 219.154L675.763 234.465Z" fill="white"/>
<path d="M640.758 205.795L618.151 193.028L640.5 179.83L640.758 205.795Z" fill="white"/>
<path d="M633.579 171.878L614.528 183.137L614.309 161.015L633.579 171.878Z" fill="white"/>
<path d="M600.292 137.266L588.015 130.336L600.152 123.164L600.292 137.266Z" fill="white"/>
<path d="M590.013 109.32L580.78 114.78L580.673 104.044L590.013 109.32Z" fill="white"/>
<path d="M560.247 69.4482L557.054 67.6534L560.211 65.7797L560.247 69.4482Z" fill="white"/>
<path d="M547.512 46.7354L546.517 47.3329L546.506 46.1736L547.512 46.7354Z" fill="white"/>
<path d="M5.51352 451.097L5.49822 451.112L5.49807 451.097L5.51352 451.097Z" fill="white"/>
<path d="M17.9473 472.16L17.612 471.973L17.9436 471.795L17.9473 472.16Z" fill="white"/>
<path d="M43.4594 513.726L42.0073 514.582L41.9907 512.899L43.4594 513.726Z" fill="white"/>
<path d="M55.5537 535.857L53.3665 534.624L55.5287 533.332L55.5537 535.857Z" fill="white"/>
<path d="M81.897 576.335L78.2669 578.483L78.2251 574.275L81.897 576.335Z" fill="white"/>
<path d="M82.3614 618.323L78.6523 620.52L78.6097 616.217L82.3614 618.323Z" fill="white"/>
<path d="M130.045 620.757L125.016 617.9L129.987 614.961L130.045 620.757Z" fill="white"/>
<path d="M156.288 617.59L150.764 620.869L150.7 614.437L156.288 617.59Z" fill="white"/>
<path d="M203.315 620.983L196.61 617.19L203.239 613.281L203.315 620.983Z" fill="white"/>
<path d="M229.994 616.859L222.986 620.995L222.905 612.879L229.994 616.859Z" fill="white"/>
<path d="M276.295 620.72L268.791 616.474L276.209 612.097L276.295 620.72Z" fill="white"/>
<path d="M302.873 616.136L295.597 620.449L295.513 611.984L302.873 616.136Z" fill="white"/>
<path d="M348.854 619.762L341.766 615.751L348.774 611.615L348.854 619.762Z" fill="white"/>
<path d="M375.181 615.419L368.505 619.377L368.428 611.611L375.181 615.419Z" fill="white"/>
<path d="M421.253 618.504L415.106 615.023L421.183 611.437L421.253 618.504Z" fill="white"/>
<path d="M447.236 614.704L441.538 618.08L441.472 611.458L447.236 614.704Z" fill="white"/>
<path d="M493.877 617.657L487.954 614.301L493.809 610.844L493.877 617.657Z" fill="white"/>
<path d="M521.509 571.974L512.844 577.095L512.744 567.027L521.509 571.974Z" fill="white"/>
<path d="M531.155 556.933L520.634 550.986L531.035 544.848L531.155 556.933Z" fill="white"/>
<path d="M560.729 508.595L546.855 516.785L546.695 500.682L560.729 508.595Z" fill="white"/>
<path d="M568.739 496.699L552.726 487.678L568.557 478.325L568.739 496.699Z" fill="white"/>
<path d="M599.679 445.203L581.008 456.252L580.792 434.542L599.679 445.203Z" fill="white"/>
<path d="M605.921 435.818L585.597 424.346L605.689 412.473L605.921 435.818Z" fill="white"/>
<path d="M638.868 381.824L615.034 395.894L614.76 368.214L638.868 381.824Z" fill="white"/>
<path d="M643.506 375.632L617.658 361.038L643.211 345.934L643.506 375.632Z" fill="white"/>
<path d="M677.278 318.437L649.452 334.882L649.131 302.548L677.278 318.437Z" fill="white"/>
<path d="M680.041 313.629L651.83 297.693L679.72 281.216L680.041 313.629Z" fill="white"/>
<path d="M712.371 255.099L685.476 270.994L685.166 239.74L712.371 255.099Z" fill="white"/>
<path d="M678.109 227.787L653.139 213.693L677.825 199.106L678.109 227.787Z" fill="white"/>
<path d="M672.409 192.489L649.98 205.751L649.722 179.691L672.409 192.489Z" fill="white"/>
<path d="M638.177 160.127L621.988 150.996L637.992 141.546L638.177 160.127Z" fill="white"/>
<path d="M629.193 129.928L616.061 137.682L615.91 122.436L629.193 129.928Z" fill="white"/>
<path d="M598.277 92.5612L590.742 88.3159L598.191 83.906L598.277 92.5612Z" fill="white"/>
<path d="M586.39 67.3624L581.939 69.9795L581.888 64.8181L586.39 67.3624Z" fill="white"/>
<path d="M558.829 25.7535L558.621 25.6285L558.827 25.5154L558.829 25.7535Z" fill="white"/>
<path d="M6.31115 493.098L5.72711 493.437L5.72033 492.754L6.31115 493.098Z" fill="white"/>
<path d="M18.5898 514.544L17.5841 513.983L18.5783 513.385L18.5898 514.544Z" fill="white"/>
<path d="M44.3992 555.71L42.158 557.035L42.1321 554.43L44.3992 555.71Z" fill="white"/>
<path d="M56.1807 578.21L53.3549 576.618L56.1485 574.97L56.1807 578.21Z" fill="white"/>
<path d="M93.5127 641.433L89.6492 639.264L93.4687 637.002L93.5127 641.433Z" fill="white"/>
<path d="M119.287 638.97L115.041 641.474L114.992 636.551L119.287 638.97Z" fill="white"/>
<path d="M166.605 641.375L161.592 638.55L166.548 635.61L166.605 641.375Z" fill="white"/>
<path d="M192.722 638.241L187.387 641.391L187.326 635.198L192.722 638.241Z" fill="white"/>
<path d="M239.602 641.144L233.726 637.835L239.535 634.394L239.602 641.144Z" fill="white"/>
<path d="M265.777 637.517L259.921 640.974L259.854 634.161L265.777 637.517Z" fill="white"/>
<path d="M312.29 640.407L306.447 637.113L312.223 633.689L312.29 640.407Z" fill="white"/>
<path d="M338.308 636.797L332.72 640.093L332.656 633.598L338.308 636.797Z" fill="white"/>
<path d="M384.802 639.354L379.533 636.389L384.742 633.303L384.802 639.354Z" fill="white"/>
<path d="M410.52 636.081L405.674 638.94L405.618 633.303L410.52 636.081Z" fill="white"/>
<path d="M457.265 638.222L452.73 635.663L457.213 633.013L457.265 638.222Z" fill="white"/>
<path d="M483.035 635.362L478.474 638.06L478.421 632.739L483.035 635.362Z" fill="white"/>
<path d="M520.226 613.98L514.102 617.615L514.032 610.484L520.226 613.98Z" fill="white"/>
<path d="M530.506 597.122L523.146 592.955L530.422 588.658L530.506 597.122Z" fill="white"/>
<path d="M558.78 550.608L548.442 556.73L548.323 544.708L558.78 550.608Z" fill="white"/>
<path d="M567.8 536.399L555.81 529.641L567.663 522.646L567.8 536.399Z" fill="white"/>
<path d="M597.81 487.231L582.547 496.245L582.371 478.506L597.81 487.231Z" fill="white"/>
<path d="M605.158 475.834L588.315 466.312L604.966 456.475L605.158 475.834Z" fill="white"/>
<path d="M636.348 423.843L616.887 435.344L616.663 412.745L636.348 423.843Z" fill="white"/>
<path d="M642.501 415.205L620.884 402.999L642.255 390.367L642.501 415.205Z" fill="white"/>
<path d="M675.822 360.461L650.773 375.258L650.484 346.164L675.822 360.461Z" fill="white"/>
<path d="M679.957 354.782L653.215 339.673L679.652 324.052L679.957 354.782Z" fill="white"/>
<path d="M712.899 297.087L685.846 313.079L685.534 281.651L712.899 297.087Z" fill="white"/>
<path d="M715.846 291.69L688.641 276.331L715.536 260.436L715.846 291.69Z" fill="white"/>
<path d="M714.832 248.69L689.383 234.33L714.542 219.469L714.832 248.69Z" fill="white"/>
<path d="M709.986 213.129L686.042 227.264L685.767 199.456L709.986 213.129Z" fill="white"/>
<path d="M675.853 182.672L656.327 171.652L675.63 160.248L675.853 182.672Z" fill="white"/>
<path d="M667.802 150.542L651.608 160.121L651.422 141.302L667.802 150.542Z" fill="white"/>
<path d="M635.969 115.122L625.064 108.972L635.845 102.608L635.969 115.122Z" fill="white"/>
<path d="M625.269 87.9735L617.361 92.642L617.27 83.4469L625.269 87.9735Z" fill="white"/>
<path d="M596.262 47.8719L593.452 46.2798L596.23 44.6322L596.262 47.8719Z" fill="white"/>
<path d="M583.655 25.3802L582.661 25.9778L582.65 24.8184L583.655 25.3802Z" fill="white"/>
<path d="M7.12409 535.083L5.95616 535.778L5.94262 534.412L7.12409 535.083Z" fill="white"/>
<path d="M19.2324 556.912L17.5561 555.976L19.2135 555.007L19.2324 556.912Z" fill="white"/>
<path d="M45.0698 597.697L42.4657 599.247L42.4356 596.214L45.0698 597.697Z" fill="white"/>
<path d="M56.6611 620.31L53.6596 618.608L56.627 616.863L56.6611 620.31Z" fill="white"/>
<path d="M56.9492 662.094L54.3149 660.611L56.9193 659.076L56.9492 662.094Z" fill="white"/>
<path d="M82.4125 660.332L79.2558 662.19L79.2195 658.537L82.4125 660.332Z" fill="white"/>
<path d="M130.025 662.004L126.305 659.897L129.983 657.716L130.025 662.004Z" fill="white"/>
<path d="M155.594 659.606L151.727 661.884L151.683 657.406L155.594 659.606Z" fill="white"/>
<path d="M202.908 661.583L198.645 659.179L202.86 656.692L202.908 661.583Z" fill="white"/>
<path d="M228.649 658.882L224.261 661.467L224.21 656.385L228.649 658.882Z" fill="white"/>
<path d="M275.678 660.957L271.239 658.459L275.627 655.875L275.678 660.957Z" fill="white"/>
<path d="M301.337 658.161L296.981 660.745L296.931 655.663L301.337 658.161Z" fill="white"/>
<path d="M348.303 660.125L344.088 657.737L348.255 655.265L348.303 660.125Z" fill="white"/>
<path d="M373.868 657.441L369.78 659.864L369.733 655.1L373.868 657.441Z" fill="white"/>
<path d="M420.83 659.088L417.158 657.012L420.788 654.864L420.83 659.088Z" fill="white"/>
<path d="M446.144 656.725L442.688 658.76L442.648 654.742L446.144 656.725Z" fill="white"/>
<path d="M493.615 658.493L489.72 656.292L493.571 654.015L493.615 658.493Z" fill="white"/>
<path d="M519.405 655.998L515.128 658.518L515.078 653.547L519.405 655.998Z" fill="white"/>
<path d="M530.292 638.022L524.832 634.947L530.23 631.749L530.292 638.022Z" fill="white"/>
<path d="M557.308 592.616L549.779 597.074L549.693 588.324L557.308 592.616Z" fill="white"/>
<path d="M567.167 576.62L558.29 571.609L567.066 566.44L567.167 576.62Z" fill="white"/>
<path d="M595.655 529.246L584.228 535.998L584.096 522.721L595.655 529.246Z" fill="white"/>
<path d="M604.267 515.596L591.319 508.292L604.119 500.732L604.267 515.596Z" fill="white"/>
<path d="M634.366 465.856L618.488 475.241L618.305 456.803L634.366 465.856Z" fill="white"/>
<path d="M641.448 454.715L624.174 444.96L641.251 434.864L641.448 454.715Z" fill="white"/>
<path d="M673.238 402.48L652.672 414.643L652.435 390.727L673.238 402.48Z" fill="white"/>
<path d="M679.033 394.497L656.267 381.652L678.774 368.357L679.033 394.497Z" fill="white"/>
<path d="M712.315 339.086L686.746 354.206L686.452 324.493L712.315 339.086Z" fill="white"/>
<path d="M716.036 333.316L689.485 318.316L715.734 302.808L716.036 333.316Z" fill="white"/>
<path d="M748.185 275.74L722.411 290.973L722.114 261.022L748.185 275.74Z" fill="white"/>
<path d="M751.247 269.087L726.213 254.962L750.962 240.327L751.247 269.087Z" fill="white"/>
<path d="M746.499 233.764L722.619 247.866L722.343 220.122L746.499 233.764Z" fill="white"/>
<path d="M712.93 204.174L691.887 192.296L712.69 180.019L712.93 204.174Z" fill="white"/>
<path d="M705.919 171.16L687.421 182.096L687.207 160.593L705.919 171.16Z" fill="white"/>
<path d="M673.353 137.145L660.021 129.622L673.201 121.836L673.353 137.145Z" fill="white"/>
<path d="M663.687 108.589L653.017 114.889L652.894 102.502L663.687 108.589Z" fill="white"/>
<path d="M633.679 69.927L628.362 66.9461L633.618 63.8446L633.679 69.927Z" fill="white"/>
<path d="M621.662 45.9999L618.521 47.8576L618.485 44.2208L621.662 45.9999Z" fill="white"/>
<path d="M7.85871 577.069L6.21725 578.038L6.19851 576.149L7.85871 577.069Z" fill="white"/>
<path d="M19.7617 599.123L17.7341 597.968L19.7386 596.789L19.7617 599.123Z" fill="white"/>
<path d="M45.487 639.702L42.8827 641.237L42.8526 638.203L45.487 639.702Z" fill="white"/>
<path d="M45.538 681.695L43.4703 682.906L43.4466 680.524L45.538 681.695Z" fill="white"/>
<path d="M93.5098 682.728L90.8755 681.245L93.4798 679.71L93.5098 682.728Z" fill="white"/>
<path d="M118.704 680.969L115.942 682.601L115.91 679.393L118.704 680.969Z" fill="white"/>
<path d="M166.279 682.101L163.47 680.525L166.247 678.893L166.279 682.101Z" fill="white"/>
<path d="M191.488 680.247L188.616 681.943L188.583 678.608L191.488 680.247Z" fill="white"/>
<path d="M239.033 681.475L236.08 679.805L238.999 678.076L239.033 681.475Z" fill="white"/>
<path d="M264.225 679.526L261.32 681.238L261.287 677.871L264.225 679.526Z" fill="white"/>
<path d="M311.738 680.738L308.785 679.084L311.705 677.371L311.738 680.738Z" fill="white"/>
<path d="M336.803 678.806L334.088 680.421L334.056 677.245L336.803 678.806Z" fill="white"/>
<path d="M384.379 679.922L381.617 678.361L384.347 676.746L384.379 679.922Z" fill="white"/>
<path d="M409.381 678.086L406.84 679.588L406.81 676.634L409.381 678.086Z" fill="white"/>
<path d="M457.02 679.09L454.449 677.639L456.99 676.137L457.02 679.09Z" fill="white"/>
<path d="M482.26 677.363L479.467 679.011L479.434 675.771L482.26 677.363Z" fill="white"/>
<path d="M530.16 679.096L526.313 676.926L530.116 674.681L530.16 679.096Z" fill="white"/>
<path d="M556.47 634.634L550.82 637.977L550.755 631.403L556.47 634.634Z" fill="white"/>
<path d="M566.905 617.456L560.04 613.586L566.827 609.595L566.905 617.456Z" fill="white"/>
<path d="M594.198 571.253L585.565 576.358L585.465 566.337L594.198 571.253Z" fill="white"/>
<path d="M603.618 555.786L593.831 550.26L603.507 544.542L603.618 555.786Z" fill="white"/>
<path d="M632.148 507.887L620.2 514.946L620.062 501.05L632.148 507.887Z" fill="white"/>
<path d="M640.621 494.589L627.051 486.941L640.467 479.009L640.621 494.589Z" fill="white"/>
<path d="M670.543 444.5L654.617 453.918L654.434 435.416L670.543 444.5Z" fill="white"/>
<path d="M677.738 433.613L660.033 423.608L677.537 413.269L677.738 433.613Z" fill="white"/>
<path d="M709.986 381.119L688.52 393.799L688.273 368.866L709.986 381.119Z" fill="white"/>
<path d="M715.436 373.568L691.919 360.301L715.168 346.555L715.436 373.568Z" fill="white"/>
<path d="M748.268 317.733L722.999 332.675L722.708 303.311L748.268 317.733Z" fill="white"/>
<path d="M751.857 311.408L726.265 296.955L751.566 282.012L751.857 311.408Z" fill="white"/>
<path d="M782.806 254.4L759.304 268.292L759.033 240.977L782.806 254.4Z" fill="white"/>
<path d="M749.539 224.903L728.353 212.947L749.298 200.557L749.539 224.903Z" fill="white"/>
<path d="M742.844 191.791L723.794 203.05L723.574 180.928L742.844 191.791Z" fill="white"/>
<path d="M710.398 158.616L695.614 150.266L710.23 141.624L710.398 158.616Z" fill="white"/>
<path d="M701.533 129.21L688.938 136.657L688.792 122.015L701.533 129.21Z" fill="white"/>
<path d="M671.128 92.0928L663.161 87.5976L671.037 82.9294L671.128 92.0928Z" fill="white"/>
<path d="M659.603 66.6361L654.41 69.7054L654.35 63.6547L659.603 66.6361Z" fill="white"/>
<path d="M631.922 25.6956L630.565 24.9149L631.906 24.1234L631.922 25.6956Z" fill="white"/>
<path d="M8.38593 619.057L6.57088 620.139L6.55009 618.043L8.38593 619.057Z" fill="white"/>
<path d="M20.1943 641.144L18.1189 639.973L20.1706 638.746L20.1943 641.144Z" fill="white"/>
<path d="M57.0586 703.562L55.3344 702.594L57.0391 701.593L57.0586 703.562Z" fill="white"/>
<path d="M81.9716 702.33L80.0934 703.445L80.0716 701.253L81.9716 702.33Z" fill="white"/>
<path d="M129.828 702.951L127.912 701.874L129.806 700.76L129.828 702.951Z" fill="white"/>
<path d="M154.661 701.609L152.799 702.708L152.777 700.548L154.661 701.609Z" fill="white"/>
<path d="M202.469 702.12L200.76 701.152L202.449 700.166L202.469 702.12Z" fill="white"/>
<path d="M227.255 700.889L225.566 701.891L225.547 699.937L227.255 700.889Z" fill="white"/>
<path d="M275.158 701.383L273.482 700.43L275.139 699.445L275.158 701.383Z" fill="white"/>
<path d="M299.944 700.168L298.287 701.153L298.268 699.216L299.944 700.168Z" fill="white"/>
<path d="M347.928 700.756L346.076 699.71L347.907 698.644L347.928 700.756Z" fill="white"/>
<path d="M372.777 699.446L370.93 700.528L370.909 698.4L372.777 699.446Z" fill="white"/>
<path d="M420.633 700.035L418.781 698.989L420.612 697.907L420.633 700.035Z" fill="white"/>
<path d="M445.514 698.724L443.62 699.839L443.598 697.647L445.514 698.724Z" fill="white"/>
<path d="M493.612 699.772L490.962 698.273L493.582 696.739L493.612 699.772Z" fill="white"/>
<path d="M519.075 697.995L515.903 699.868L515.866 696.184L519.075 697.995Z" fill="white"/>
<path d="M555.998 676.632L551.673 679.184L551.623 674.166L555.998 676.632Z" fill="white"/>
<path d="M566.74 658.483L561.583 655.58L566.682 652.575L566.74 658.483Z" fill="white"/>
<path d="M593.455 613.254L586.542 617.341L586.463 609.321L593.455 613.254Z" fill="white"/>
<path d="M603.356 596.638L595.581 592.236L603.268 587.697L603.356 596.638Z" fill="white"/>
<path d="M630.628 549.895L621.569 555.258L621.464 544.729L630.628 549.895Z" fill="white"/>
<path d="M639.795 534.494L629.912 528.906L639.682 523.123L639.795 534.494Z" fill="white"/>
<path d="M668.404 486.531L656.282 493.687L656.142 479.6L668.404 486.531Z" fill="white"/>
<path d="M676.749 473.218L663.226 465.569L676.595 457.67L676.749 473.218Z" fill="white"/>
<path d="M706.798 423.144L690.715 432.642L690.529 413.966L706.798 423.144Z" fill="white"/>
<path d="M714.124 412.636L695.716 402.257L713.915 391.515L714.124 412.636Z" fill="white"/>
<path d="M746.59 359.759L724.446 372.843L724.191 347.1L746.59 359.759Z" fill="white"/>
<path d="M751.692 352.418L727.808 338.933L751.42 324.992L751.692 352.418Z" fill="white"/>
<path d="M783.779 296.384L759.456 310.777L759.176 282.493L783.779 296.384Z" fill="white"/>
<path d="M787.469 289.137L763.457 275.589L787.195 261.568L787.469 289.137Z" fill="white"/>
<path d="M786.084 245.521L764.946 233.581L785.843 221.223L786.084 245.521Z" fill="white"/>
<path d="M779.484 212.44L760.323 223.764L760.102 201.499L779.484 212.44Z" fill="white"/>
<path d="M747.217 179.661L731.698 170.905L747.04 161.858L747.217 179.661Z" fill="white"/>
<path d="M738.396 149.841L725.358 157.547L725.208 142.396L738.396 149.841Z" fill="white"/>
<path d="M708.173 113.548L698.753 108.241L708.066 102.733L708.173 113.548Z" fill="white"/>
<path d="M697.498 87.257L690.3 91.5055L690.217 83.1362L697.498 87.257Z" fill="white"/>
<path d="M669.031 47.2454L666.046 45.5596L668.997 43.8309L669.031 47.2454Z" fill="white"/>
<path d="M656.519 24.6574L655.288 25.3844L655.274 23.9551L656.519 24.6574Z" fill="white"/>
<path d="M8.73926 661.063L7.03455 662.065L7.01486 660.079L8.73926 661.063Z" fill="white"/>
<path d="M20.4658 682.896L18.8213 681.96L20.4469 680.991L20.4658 682.896Z" fill="white"/>
<path d="M20.6074 724.428L19.7771 723.944L20.5978 723.459L20.6074 724.428Z" fill="white"/>
<path d="M45.2403 723.691L44.246 724.289L44.2345 723.129L45.2403 723.691Z" fill="white"/>
<path d="M93.4746 723.959L92.1814 723.225L93.46 722.482L93.4746 723.959Z" fill="white"/>
<path d="M118.057 722.969L116.889 723.663L116.875 722.298L118.057 722.969Z" fill="white"/>
<path d="M166.034 722.985L165.188 722.501L166.025 722.017L166.034 722.985Z" fill="white"/>
<path d="M190.524 722.25L189.719 722.734L189.709 721.797L190.524 722.25Z" fill="white"/>
<path d="M238.723 722.233L237.924 721.78L238.714 721.311L238.723 722.233Z" fill="white"/>
<path d="M263.212 721.529L262.423 721.997L262.414 721.076L263.212 721.529Z" fill="white"/>
<path d="M311.492 721.606L310.518 721.06L311.481 720.494L311.492 721.606Z" fill="white"/>
<path d="M336.155 720.806L335.019 721.484L335.006 720.166L336.155 720.806Z" fill="white"/>
<path d="M384.327 721.122L382.954 720.341L384.311 719.534L384.327 721.122Z" fill="white"/>
<path d="M409.099 720.082L407.615 720.97L407.598 719.239L409.099 720.082Z" fill="white"/>
<path d="M457.193 720.685L455.341 719.623L457.172 718.541L457.193 720.685Z" fill="white"/>
<path d="M482.312 719.356L480.071 720.696L480.045 718.076L482.312 719.356Z" fill="white"/>
<path d="M530.367 720.753L527.11 718.912L530.33 717.021L530.367 720.753Z" fill="white"/>
<path d="M556.033 718.625L552.277 720.854L552.233 716.471L556.033 718.625Z" fill="white"/>
<path d="M566.882 699.998L562.555 697.563L566.833 695.043L566.882 699.998Z" fill="white"/>
<path d="M593.031 655.268L587.38 658.595L587.316 652.052L593.031 655.268Z" fill="white"/>
<path d="M603.305 637.854L596.902 634.233L603.232 630.485L603.305 637.854Z" fill="white"/>
<path d="M630.044 591.895L622.484 596.369L622.397 587.587L630.044 591.895Z" fill="white"/>
<path d="M639.517 575.299L631.709 570.881L639.428 566.326L639.517 575.299Z" fill="white"/>
<path d="M666.454 528.543L657.868 533.616L657.769 523.642L666.454 528.543Z" fill="white"/>
<path d="M675.842 512.965L666.247 507.549L675.732 501.927L675.842 512.965Z" fill="white"/>
<path d="M704.405 465.161L692.504 472.204L692.367 458.371L704.405 465.161Z" fill="white"/>
<path d="M712.78 451.657L699.593 444.212L712.63 436.523L712.78 451.657Z" fill="white"/>
<path d="M743.562 401.782L726.547 411.846L726.351 392.058L743.562 401.782Z" fill="white"/>
<path d="M750.607 391.881L731.177 380.909L750.386 369.553L750.607 391.881Z" fill="white"/>
<path d="M783.179 338.384L760.372 351.872L760.109 325.366L783.179 338.384Z" fill="white"/>
<path d="M787.853 331.063L763.952 317.577L787.581 303.636L787.853 331.063Z" fill="white"/>
<path d="M819.081 275.037L796.005 288.671L795.739 261.864L819.081 275.037Z" fill="white"/>
<path d="M822.951 266.661L800.903 254.221L822.7 241.346L822.951 266.661Z" fill="white"/>
<path d="M816.538 233.069L796.635 244.829L796.405 221.706L816.538 233.069Z" fill="white"/>
<path d="M783.794 200.342L768.212 191.539L783.616 182.444L783.794 200.342Z" fill="white"/>
<path d="M775.194 170.473L761.81 178.388L761.656 162.841L775.194 170.473Z" fill="white"/>
<path d="M744.863 134.419L735.06 128.878L744.751 123.143L744.863 134.419Z" fill="white"/>
<path d="M734.582 107.886L726.611 112.587L726.519 103.328L734.582 107.886Z" fill="white"/>
<path d="M705.996 68.5583L701.813 66.2175L705.949 63.7624L705.996 68.5583Z" fill="white"/>
<path d="M694.001 45.2824L691.397 46.833L691.367 43.7997L694.001 45.2824Z" fill="white"/>
<path d="M8.74272 703.056L7.63779 703.703L7.62519 702.432L8.74272 703.056Z" fill="white"/>
<path d="M8.5246 745.068L8.36668 745.149L8.36495 744.974L8.5246 745.068Z" fill="white"/>
<path d="M57.1045 744.951L56.4659 744.592L57.0971 744.205L57.1045 744.951Z" fill="white"/>
<path d="M81.5784 744.343L80.9153 744.715L80.9079 743.969L81.5784 744.343Z" fill="white"/>
<path d="M129.761 744.135L129.282 743.87L129.755 743.58L129.761 744.135Z" fill="white"/>
<path d="M154.046 743.624L153.73 743.786L153.727 743.437L154.046 743.624Z" fill="white"/>
<path d="M202.353 743.225L202.209 743.147L202.351 743.05L202.353 743.225Z" fill="white"/>
<path d="M226.64 742.904L226.498 742.985L226.496 742.81L226.64 742.904Z" fill="white"/>
<path d="M275.139 742.614L274.772 742.427L275.135 742.217L275.139 742.614Z" fill="white"/>
<path d="M299.583 742.181L299.078 742.472L299.072 741.884L299.583 742.181Z" fill="white"/>
<path d="M348.005 742.193L347.143 741.709L347.995 741.192L348.005 742.193Z" fill="white"/>
<path d="M372.717 741.456L371.581 742.118L371.568 740.8L372.717 741.456Z" fill="white"/>
<path d="M420.936 741.835L419.435 740.992L420.918 740.104L420.936 741.835Z" fill="white"/>
<path d="M445.818 740.73L444.098 741.732L444.078 739.747L445.818 740.73Z" fill="white"/>
<path d="M493.964 741.651L491.505 740.277L493.936 738.824L493.964 741.651Z" fill="white"/>
<path d="M519.366 740.001L516.383 741.762L516.348 738.284L519.366 740.001Z" fill="white"/>
<path d="M567.17 741.782L563.242 739.566L567.125 737.256L567.17 741.782Z" fill="white"/>
<path d="M592.813 697.263L588.109 700.042L588.055 694.579L592.813 697.263Z" fill="white"/>
<path d="M603.366 679.227L598.034 676.215L603.305 673.097L603.366 679.227Z" fill="white"/>
<path d="M629.762 633.907L623.228 637.767L623.152 630.176L629.762 633.907Z" fill="white"/>
<path d="M639.643 616.814L632.666 612.865L639.563 608.794L639.643 616.814Z" fill="white"/>
<path d="M665.665 570.545L658.878 574.551L658.8 566.674L665.665 570.545Z" fill="white"/>
<path d="M675.387 553.47L668.378 549.521L675.307 545.434L675.387 553.47Z" fill="white"/>
<path d="M702.234 507.192L694.2 511.941L694.108 502.603L702.234 507.192Z" fill="white"/>
<path d="M711.857 491.388L702.645 486.191L711.753 480.812L711.857 491.388Z" fill="white"/>
<path d="M740.327 443.808L728.758 450.641L728.624 437.206L740.327 443.808Z" fill="white"/>
<path d="M749.038 430.507L735.499 422.859L748.884 414.96L749.038 430.507Z" fill="white"/>
<path d="M780.595 380.418L762.255 391.258L762.043 369.929L780.595 380.418Z" fill="white"/>
<path d="M787.188 371.236L766.48 359.562L786.952 347.463L787.188 371.236Z" fill="white"/>
<path d="M819.513 317.026L796.422 330.676L796.156 303.853L819.513 317.026Z" fill="white"/>
<path d="M823.836 309.439L800.415 296.219L823.569 282.537L823.836 309.439Z" fill="white"/>
<path d="M854.193 253.692L832.665 266.421L832.416 241.393L854.193 253.692Z" fill="white"/>
<path d="M820.807 221.75L803.883 212.198L820.614 202.296L820.807 221.75Z" fill="white"/>
<path d="M812.2 191.103L798.153 199.406L797.991 183.08L812.2 191.103Z" fill="white"/>
<path d="M781.392 154.974L771.717 149.511L781.281 143.857L781.392 154.974Z" fill="white"/>
<path d="M771.143 128.52L763.172 133.221L763.08 123.978L771.143 128.52Z" fill="white"/>
<path d="M742.815 89.6346L737.882 86.8565L742.759 83.9651L742.815 89.6346Z" fill="white"/>
<path d="M730.975 65.9282L727.771 67.8183L727.734 64.0863L730.975 65.9282Z" fill="white"/>
<path d="M704.449 24.6746L703.619 24.1903L704.44 23.7057L704.449 24.6746Z" fill="white"/>
<path d="M44.9902 765.703L44.9748 765.703L44.9746 765.688L44.9902 765.703Z" fill="white"/>
<path d="M93.5029 765.301L93.3592 765.223L93.5012 765.126L93.5029 765.301Z" fill="white"/>
<path d="M311.684 763.248L311.348 763.061L311.68 762.851L311.684 763.248Z" fill="white"/>
<path d="M336.223 762.814L335.607 763.17L335.6 762.455L336.223 762.814Z" fill="white"/>
<path d="M384.663 762.985L383.514 762.345L384.65 761.667L384.663 762.985Z" fill="white"/>
<path d="M409.437 762.088L408.063 762.88L408.048 761.308L409.437 762.088Z" fill="white"/>
<path d="M457.626 762.69L455.726 761.629L457.604 760.514L457.626 762.69Z" fill="white"/>
<path d="M482.728 761.361L480.487 762.686L480.461 760.065L482.728 761.361Z" fill="white"/>
<path d="M530.734 762.648L527.653 760.915L530.699 759.106L530.734 762.648Z" fill="white"/>
<path d="M556.212 760.632L552.803 762.635L552.763 758.681L556.212 760.632Z" fill="white"/>
<path d="M592.975 739.271L588.65 741.823L588.6 736.789L592.975 739.271Z" fill="white"/>
<path d="M603.589 720.885L598.831 718.2L603.535 715.422L603.589 720.885Z" fill="white"/>
<path d="M629.576 675.902L623.941 679.23L623.876 672.687L629.576 675.902Z" fill="white"/>
<path d="M639.785 658.346L633.622 654.865L639.715 651.263L639.785 658.346Z" fill="white"/>
<path d="M665.669 612.538L659.497 616.189L659.426 609.026L665.669 612.538Z" fill="white"/>
<path d="M675.464 594.906L669.445 591.504L675.395 587.998L675.464 594.906Z" fill="white"/>
<path d="M701.031 549.197L695.412 552.525L695.347 545.997L701.031 549.197Z" fill="white"/>
<path d="M711.144 531.451L705.3 528.158L711.077 524.75L711.144 531.451Z" fill="white"/>
<path d="M738.029 485.84L730.5 490.282L730.413 481.532L738.029 485.84Z" fill="white"/>
<path d="M747.904 469.859L738.98 464.818L747.803 459.616L747.904 469.859Z" fill="white"/>
<path d="M776.884 422.449L764.699 429.653L764.559 415.503L776.884 422.449Z" fill="white"/>
<path d="M785.715 410.02L770.628 401.514L785.543 392.71L785.715 410.02Z" fill="white"/>
<path d="M817.803 359.053L797.884 370.813L797.655 347.674L817.803 359.053Z" fill="white"/>
<path d="M823.735 350.56L801.831 338.199L823.486 325.421L823.735 350.56Z" fill="white"/>
<path d="M855.61 295.672L832.582 309.289L832.317 282.53L855.61 295.672Z" fill="white"/>
<path d="M859.867 287.895L836.781 274.862L859.604 261.373L859.867 287.895Z" fill="white"/>
<path d="M858.143 243.695L838.92 232.847L857.923 221.604L858.143 243.695Z" fill="white"/>
<path d="M850.126 211.739L834.043 221.238L833.857 202.546L850.126 211.739Z" fill="white"/>
<path d="M818.34 176.287L807.499 170.153L818.216 163.821L818.34 176.287Z" fill="white"/>
<path d="M807.958 149.152L799.608 154.079L799.512 144.391L807.958 149.152Z" fill="white"/>
<path d="M779.44 110.379L774.316 107.492L779.382 104.503L779.44 110.379Z" fill="white"/>
<path d="M767.773 86.56L764.206 88.6601L764.165 84.5152L767.773 86.56Z" fill="white"/>
<path d="M741.14 45.4978L739.942 44.8267L741.126 44.1321L741.14 45.4978Z" fill="white"/>
<path d="M728.621 23.9423L728.306 24.1361L728.302 23.7549L728.621 23.9423Z" fill="white"/>
<path d="M299.745 784.173L299.619 784.237L299.618 784.095L299.745 784.173Z" fill="white"/>
<path d="M348.341 784.04L347.718 783.697L348.334 783.326L348.341 784.04Z" fill="white"/>
<path d="M372.943 783.447L372.09 783.932L372.08 782.963L372.943 783.447Z" fill="white"/>
<path d="M421.304 783.745L419.931 782.981L421.288 782.173L421.304 783.745Z" fill="white"/>
<path d="M446.14 782.721L444.562 783.657L444.544 781.815L446.14 782.721Z" fill="white"/>
<path d="M494.316 783.545L492.033 782.265L494.29 780.925L494.316 783.545Z" fill="white"/>
<path d="M519.575 781.992L516.908 783.575L516.877 780.463L519.575 781.992Z" fill="white"/>
<path d="M567.393 783.456L564.008 781.552L567.354 779.565L567.393 783.456Z" fill="white"/>
<path d="M592.899 781.265L589.301 783.381L589.259 779.221L592.899 781.265Z" fill="white"/>
<path d="M603.812 762.558L599.629 760.202L603.764 757.746L603.812 762.558Z" fill="white"/>
<path d="M629.627 717.895L624.545 720.899L624.486 715.007L629.627 717.895Z" fill="white"/>
<path d="M639.991 699.972L634.467 696.85L639.928 693.635L639.991 699.972Z" fill="white"/>
<path d="M665.783 654.546L660.07 657.922L660.004 651.284L665.783 654.546Z" fill="white"/>
<path d="M675.751 636.675L670.131 633.506L675.687 630.227L675.751 636.675Z" fill="white"/>
<path d="M700.877 591.192L696.11 594.019L696.055 588.476L700.877 591.192Z" fill="white"/>
<path d="M711.075 572.635L706.669 570.138L711.025 567.569L711.075 572.635Z" fill="white"/>
<path d="M736.366 527.85L731.947 530.467L731.896 525.321L736.366 527.85Z" fill="white"/>
<path d="M747.029 509.654L741.952 506.798L746.971 503.826L747.029 509.654Z" fill="white"/>
<path d="M774.109 464.47L766.691 468.863L766.606 460.24L774.109 464.47Z" fill="white"/>
<path d="M784.129 448.63L774.981 443.464L784.025 438.133L784.129 448.63Z" fill="white"/>
<path d="M814.378 401.08L800.189 409.464L800.025 392.979L814.378 401.08Z" fill="white"/>
<path d="M822.603 389.944L805.296 380.173L822.405 370.061L822.603 389.944Z" fill="white"/>
<path d="M854.979 337.671L833.513 350.368L833.266 325.419L854.979 337.671Z" fill="white"/>
<path d="M860.284 329.9L837.182 316.851L860.021 303.363L860.284 329.9Z" fill="white"/>
<path d="M891.977 274.314L868.617 288.125L868.348 260.969L891.977 274.314Z" fill="white"/>
<path d="M895.817 266.192L873.306 253.503L895.561 240.354L895.817 266.192Z" fill="white"/>
<path d="M888.878 232.352L869.527 243.788L869.304 221.301L888.878 232.352Z" fill="white"/>
<path d="M855.595 198.09L842.695 190.8L855.448 183.273L855.595 198.09Z" fill="white"/>
<path d="M845.613 169.775L835.638 175.671L835.523 164.094L845.613 169.775Z" fill="white"/>
<path d="M816.195 131.345L810.496 128.13L816.13 124.802L816.195 131.345Z" fill="white"/>
<path d="M804.589 107.192L800.643 109.518L800.597 104.928L804.589 107.192Z" fill="white"/>
<path d="M777.717 66.1794L776.471 65.4771L777.703 64.7501L777.717 66.1794Z" fill="white"/>
<path d="M765.293 44.5754L764.804 44.8661L764.798 44.3103L765.293 44.5754Z" fill="white"/>
<path d="M312.051 805.143L311.875 805.049L312.049 804.952L312.051 805.143Z" fill="white"/>
<path d="M336.449 804.805L336.118 804.999L336.114 804.618L336.449 804.805Z" fill="white"/>
<path d="M384.982 804.816L384.136 804.332L384.973 803.832L384.982 804.816Z" fill="white"/>
<path d="M409.726 804.079L408.542 804.773L408.528 803.408L409.726 804.079Z" fill="white"/>
<path d="M457.994 804.6L456.254 803.617L457.974 802.599L457.994 804.6Z" fill="white"/>
<path d="M483.018 803.352L480.967 804.563L480.943 802.181L483.018 803.352Z" fill="white"/>
<path d="M531.006 804.4L528.356 802.902L530.976 801.351L531.006 804.4Z" fill="white"/>
<path d="M556.327 802.624L553.375 804.369L553.341 800.939L556.327 802.624Z" fill="white"/>
<path d="M604.018 804.184L600.457 802.187L603.977 800.119L604.018 804.184Z" fill="white"/>
<path d="M629.647 759.904L625.149 762.553L625.097 757.328L629.647 759.904Z" fill="white"/>
<path d="M640.214 741.629L635.265 738.851L640.158 735.96L640.214 741.629Z" fill="white"/>
<path d="M665.898 696.538L660.627 699.656L660.566 693.542L665.898 696.538Z" fill="white"/>
<path d="M676.038 678.427L670.818 675.493L675.979 672.456L676.038 678.427Z" fill="white"/>
<path d="M701.182 633.198L696.573 635.912L696.52 630.56L701.182 633.198Z" fill="white"/>
<path d="M711.411 614.514L707.212 612.126L711.363 609.686L711.411 614.514Z" fill="white"/>
<path d="M735.91 569.848L732.8 571.689L732.765 568.084L735.91 569.848Z" fill="white"/>
<path d="M746.735 550.459L743.75 548.773L746.701 547.029L746.735 550.459Z" fill="white"/>
<path d="M772.018 506.5L768.34 508.664L768.298 504.392L772.018 506.5Z" fill="white"/>
<path d="M783.076 488.141L778.287 485.441L783.022 482.63L783.076 488.141Z" fill="white"/>
<path d="M810.619 443.111L802.648 447.812L802.557 438.569L810.619 443.111Z" fill="white"/>
<path d="M820.71 428.017L810.269 422.117L820.591 416.011L820.71 428.017Z" fill="white"/>
<path d="M852.221 379.708L835.49 389.578L835.298 370.156L852.221 379.708Z" fill="white"/>
<path d="M859.538 369.915L839.885 358.834L859.314 347.348L859.538 369.915Z" fill="white"/>
<path d="M892.425 316.303L869.034 330.131L868.764 302.958L892.425 316.303Z" fill="white"/>
<path d="M896.848 309.239L872.516 295.504L896.57 281.289L896.848 309.239Z" fill="white"/>
<path d="M893.383 220.808L876.843 211.474L893.194 201.798L893.383 220.808Z" fill="white"/>
<path d="M884.032 190.39L871.279 197.934L871.132 183.117L884.032 190.39Z" fill="white"/>
<path d="M853.16 152.674L846.247 148.772L853.081 144.733L853.16 152.674Z" fill="white"/>
<path d="M841.769 127.819L836.908 130.695L836.851 125.041L841.769 127.819Z" fill="white"/>
<path d="M814.503 87.1765L812.587 86.1155L814.481 85.0008L814.503 87.1765Z" fill="white"/>
<path d="M801.966 65.2241L801.319 65.6117L801.311 64.8335L801.966 65.2241Z" fill="white"/>
<path d="M300.098 826.163L300.083 826.179L300.083 826.163L300.098 826.163Z" fill="white"/>
<path d="M348.725 825.966L348.214 825.685L348.719 825.394L348.725 825.966Z" fill="white"/>
<path d="M373.232 825.437L372.57 825.841L372.562 825.063L373.232 825.437Z" fill="white"/>
<path d="M421.656 825.656L420.459 824.969L421.643 824.274L421.656 825.656Z" fill="white"/>
<path d="M446.524 824.71L444.993 825.615L444.976 823.836L446.524 824.71Z" fill="white"/>
<path d="M494.668 825.44L492.576 824.253L494.644 823.026L494.668 825.44Z" fill="white"/>
<path d="M519.817 823.983L517.402 825.421L517.374 822.61L519.817 823.983Z" fill="white"/>
<path d="M567.68 825.224L564.694 823.538L567.646 821.794L567.68 825.224Z" fill="white"/>
<path d="M593.031 823.257L589.858 825.131L589.822 821.463L593.031 823.257Z" fill="white"/>
<path d="M629.524 801.898L625.83 804.079L625.788 799.791L629.524 801.898Z" fill="white"/>
<path d="M640.372 783.192L636.189 780.836L640.325 778.396L640.372 783.192Z" fill="white"/>
<path d="M666.045 738.546L661.184 741.421L661.128 735.768L666.045 738.546Z" fill="white"/>
<path d="M676.358 720.274L671.409 717.48L676.302 714.589L676.358 720.274Z" fill="white"/>
<path d="M701.583 675.188L696.99 677.902L696.937 672.566L701.583 675.188Z" fill="white"/>
<path d="M711.86 656.551L707.582 654.131L711.812 651.628L711.86 656.551Z" fill="white"/>
<path d="M736.358 611.837L733.185 613.726L733.149 610.042L736.358 611.837Z" fill="white"/>
<path d="M747.007 592.212L744.436 590.76L746.978 589.258L747.007 592.212Z" fill="white"/>
<path d="M771.117 548.502L769.413 549.503L769.393 547.534L771.117 548.502Z" fill="white"/>
<path d="M782.54 528.535L780.56 527.411L782.517 526.249L782.54 528.535Z" fill="white"/>
<path d="M808.179 485.144L804.47 487.325L804.427 483.021L808.179 485.144Z" fill="white"/>
<path d="M819.415 467.117L814.035 464.073L819.354 460.939L819.415 467.117Z" fill="white"/>
<path d="M847.955 421.744L838.216 427.51L838.104 416.187L847.955 421.744Z" fill="white"/>
<path d="M857.839 408.32L844.476 400.781L857.687 392.979L857.839 408.32Z" fill="white"/>
<path d="M890.365 358.333L870.651 369.98L870.424 347.079L890.365 358.333Z" fill="white"/>
<path d="M896.635 350.171L874.171 337.481L896.379 324.364L896.635 350.171Z" fill="white"/>
<path d="M890.657 174.903L880.966 169.424L890.547 163.77L890.657 174.903Z" fill="white"/>
<path d="M879.519 148.442L872.874 152.367L872.798 144.649L879.519 148.442Z" fill="white"/>
<path d="M851.322 108.285L848.624 106.755L851.291 105.172L851.322 108.285Z" fill="white"/>
<path d="M839.002 85.8536L837.645 86.6453L837.629 85.0731L839.002 85.8536Z" fill="white"/>
<path d="M312.468 847.132L312.292 847.038L312.466 846.941L312.468 847.132Z" fill="white"/>
<path d="M336.865 846.795L336.534 846.989L336.53 846.607L336.865 846.795Z" fill="white"/>
<path d="M385.398 846.806L384.552 846.322L385.389 845.837L385.398 846.806Z" fill="white"/>
<path d="M410.031 846.069L409.021 846.667L409.009 845.491L410.031 846.069Z" fill="white"/>
<path d="M458.346 846.479L456.781 845.605L458.328 844.7L458.346 846.479Z" fill="white"/>
<path d="M483.324 845.342L481.43 846.473L481.408 844.265L483.324 845.342Z" fill="white"/>
<path d="M531.357 846.279L528.899 844.89L531.329 843.452L531.357 846.279Z" fill="white"/>
<path d="M556.521 844.616L553.901 846.167L553.871 843.117L556.521 844.616Z" fill="white"/>
<path d="M604.272 845.905L601.191 844.173L604.237 842.38L604.272 845.905Z" fill="white"/>
<path d="M629.623 843.891L626.403 845.797L626.366 842.065L629.623 843.891Z" fill="white"/>
<path d="M640.579 824.834L637.003 822.821L640.538 820.737L640.579 824.834Z" fill="white"/>
<path d="M665.969 780.54L661.834 782.979L661.786 778.168L665.969 780.54Z" fill="white"/>
<path d="M676.646 762.058L672.079 759.483L676.594 756.818L676.646 762.058Z" fill="white"/>
<path d="M701.952 717.177L697.437 719.843L697.385 714.602L701.952 717.177Z" fill="white"/>
<path d="M712.309 698.587L707.934 696.121L712.259 693.569L712.309 698.587Z" fill="white"/>
<path d="M736.965 653.84L733.524 655.875L733.484 651.873L736.965 653.84Z" fill="white"/>
<path d="M747.552 634.422L744.614 632.767L747.518 631.039L747.552 634.422Z" fill="white"/>
<path d="M771.438 590.492L769.86 591.445L769.841 589.587L771.438 590.492Z" fill="white"/>
<path d="M782.634 569.972L781.628 569.394L782.622 568.813L782.634 569.972Z" fill="white"/>
<path d="M806.802 527.151L805.76 527.765L805.748 526.558L806.802 527.151Z" fill="white"/>
<path d="M818.571 506.991L816.927 506.054L818.552 505.085L818.571 506.991Z" fill="white"/>
<path d="M844.894 463.767L840.333 466.481L840.28 461.161L844.894 463.767Z" fill="white"/>
<path d="M856.011 446.504L849.305 442.727L855.935 438.818L856.011 446.504Z" fill="white"/>
<path d="M886.352 400.366L873.252 408.104L873.101 392.89L886.352 400.366Z" fill="white"/>
<path d="M895.21 389.033L878.223 379.45L895.016 369.516L895.21 389.033Z" fill="white"/>
<path d="M876.277 106.481L873.846 107.902L873.818 105.091L876.277 106.481Z" fill="white"/>
<path d="M666.021 822.533L662.423 824.649L662.381 820.489L666.021 822.533Z" fill="white"/>
<path d="M676.853 803.684L672.925 801.468L676.808 799.174L676.853 803.684Z" fill="white"/>
<path d="M702.241 759.184L697.916 761.736L697.866 756.702L702.241 759.184Z" fill="white"/>
<path d="M712.726 740.593L708.351 738.126L712.676 735.558L712.726 740.593Z" fill="white"/>
<path d="M737.62 695.827L733.816 698.072L733.772 693.673L737.62 695.827Z" fill="white"/>
<path d="M748.146 676.727L744.666 674.76L748.107 672.725L748.146 676.727Z" fill="white"/>
<path d="M772.283 632.493L770.073 633.785L770.048 631.229L772.283 632.493Z" fill="white"/>
<path d="M783.228 612.261L781.695 611.387L783.21 610.498L783.228 612.261Z" fill="white"/>
<path d="M806.709 569.146L806.441 569.307L806.438 568.989L806.709 569.146Z" fill="white"/>
<path d="M818.504 548.143L818.312 548.034L818.502 547.921L818.504 548.143Z" fill="white"/>
<path d="M842.93 505.796L841.92 506.394L841.908 505.219L842.93 505.796Z" fill="white"/>
<path d="M854.942 486.015L852.627 484.703L854.916 483.331L854.942 486.015Z" fill="white"/>
<path d="M882.214 442.401L875.9 446.132L875.827 438.795L882.214 442.401Z" fill="white"/>
<path d="M893.043 426.649L883.719 421.389L892.937 415.945L893.043 426.649Z" fill="white"/>
<path d="M677.14 845.468L673.563 843.455L677.099 841.371L677.14 845.468Z" fill="white"/>
<path d="M702.372 801.176L698.474 803.486L698.428 798.944L702.372 801.176Z" fill="white"/>
<path d="M713.061 782.424L708.942 780.114L713.014 777.707L713.061 782.424Z" fill="white"/>
<path d="M738.258 737.83L734.123 740.269L734.075 735.457L738.258 737.83Z" fill="white"/>
<path d="M748.691 718.922L744.86 716.752L748.648 714.522L748.691 718.922Z" fill="white"/>
<path d="M773.16 674.478L770.256 676.19L770.222 672.823L773.16 674.478Z" fill="white"/>
<path d="M783.871 654.661L781.636 653.397L783.846 652.089L783.871 654.661Z" fill="white"/>
<path d="M807.507 611.131L806.67 611.632L806.661 610.663L807.507 611.131Z" fill="white"/>
<path d="M818.952 590.196L818.649 590.024L818.949 589.846L818.952 590.196Z" fill="white"/>
<path d="M854.583 526.677L854.568 526.677L854.583 526.662L854.583 526.677Z" fill="white"/>
<path d="M879.756 484.434L877.736 485.614L877.712 483.279L879.756 484.434Z" fill="white"/>
<path d="M702.661 843.166L698.952 845.363L698.909 841.044L702.661 843.166Z" fill="white"/>
<path d="M713.364 824.255L709.549 822.101L713.321 819.872L713.364 824.255Z" fill="white"/>
<path d="M738.547 779.82L734.602 782.163L734.556 777.557L738.547 779.82Z" fill="white"/>
<path d="M749.205 761.069L745.086 758.759L749.158 756.352L749.205 761.069Z" fill="white"/>
<path d="M774.006 716.463L770.47 718.562L770.43 714.449L774.006 716.463Z" fill="white"/>
<path d="M784.578 697.124L781.513 695.392L784.543 693.614L784.578 697.124Z" fill="white"/>
<path d="M808.559 653.13L806.776 654.196L806.755 652.099L808.559 653.13Z" fill="white"/>
<path d="M819.644 632.659L818.526 632.034L819.631 631.372L819.644 632.659Z" fill="white"/>
<path d="M738.933 821.81L735.034 824.12L734.989 819.578L738.933 821.81Z" fill="white"/>
<path d="M749.573 803.011L745.582 800.747L749.528 798.405L749.573 803.011Z" fill="white"/>
<path d="M774.708 758.465L770.746 760.791L770.7 756.202L774.708 758.465Z" fill="white"/>
<path d="M785.221 739.508L781.469 737.401L785.178 735.189L785.221 739.508Z" fill="white"/>
<path d="M809.595 695.113L806.88 696.712L806.849 693.568L809.595 695.113Z" fill="white"/>
<path d="M820.415 675.248L818.26 674.03L820.39 672.77L820.415 675.248Z" fill="white"/>
<path d="M844.148 631.78L843.185 632.346L843.174 631.234L844.148 631.78Z" fill="white"/>
<path d="M855.562 610.909L855.13 610.659L855.557 610.416L855.562 610.909Z" fill="white"/>
<path d="M749.974 844.968L746.03 842.736L749.929 840.442L749.974 844.968Z" fill="white"/>
<path d="M775.188 800.454L771.116 802.861L771.069 798.128L775.188 800.454Z" fill="white"/>
<path d="M785.718 781.656L781.726 779.392L785.672 777.05L785.718 781.656Z" fill="white"/>
<path d="M810.567 737.113L807.031 739.197L806.99 735.083L810.567 737.113Z" fill="white"/>
<path d="M821.154 717.79L818.041 716.026L821.119 714.217L821.154 717.79Z" fill="white"/>
<path d="M845.31 673.762L843.227 674.99L843.203 672.576L845.31 673.762Z" fill="white"/>
<path d="M856.366 653.561L854.786 652.671L856.348 651.751L856.366 653.561Z" fill="white"/>
<path d="M879.926 610.413L879.516 610.671L879.511 610.179L879.926 610.413Z" fill="white"/>
<path d="M775.62 842.443L771.532 844.866L771.485 840.117L775.62 842.443Z" fill="white"/>
<path d="M786.183 823.708L782.048 821.382L786.136 818.975L786.183 823.708Z" fill="white"/>
<path d="M811.269 779.099L807.308 781.441L807.262 776.836L811.269 779.099Z" fill="white"/>
<path d="M821.813 760.19L817.982 758.036L821.77 755.791L821.813 760.19Z" fill="white"/>
<path d="M846.361 715.745L843.347 717.538L843.312 714.028L846.361 715.745Z" fill="white"/>
<path d="M857.153 696.182L854.471 694.668L857.123 693.101L857.153 696.182Z" fill="white"/>
<path d="M881.136 652.41L879.542 653.347L879.524 651.505L881.136 652.41Z" fill="white"/>
<path d="M811.891 821.086L807.614 823.606L807.565 818.652L811.891 821.086Z" fill="white"/>
<path d="M822.343 802.384L818.16 800.027L822.295 797.572L822.343 802.384Z" fill="white"/>
<path d="M847.365 757.744L843.467 760.038L843.422 755.512L847.365 757.744Z" fill="white"/>
<path d="M857.877 738.708L854.285 736.679L857.836 734.579L857.877 738.708Z" fill="white"/>
<path d="M882.347 694.391L879.569 696.039L879.537 692.799L882.347 694.391Z" fill="white"/>
<path d="M822.872 844.563L818.37 842.019L822.821 839.386L822.872 844.563Z" fill="white"/>
<path d="M848.036 799.731L843.759 802.251L843.709 797.296L848.036 799.731Z" fill="white"/>
<path d="M858.504 781.045L854.289 778.672L858.456 776.201L858.504 781.045Z" fill="white"/>
<path d="M883.414 736.39L879.673 738.587L879.63 734.252L883.414 736.39Z" fill="white"/>
<path d="M848.707 841.718L844.05 844.464L843.997 839.065L848.707 841.718Z" fill="white"/>
<path d="M859.017 823.208L854.498 820.664L858.965 818.031L859.017 823.208Z" fill="white"/>
<path d="M884.181 778.376L879.903 780.896L879.854 775.941L884.181 778.376Z" fill="white"/>
<path d="M884.851 820.363L880.195 823.109L880.141 817.709L884.851 820.363Z" fill="white"/>
</svg>
