<?xml version="1.0" encoding="utf-8"?>
<!-- Generator: Adobe Illustrator 27.0.0, SVG Export Plug-In . SVG Version: 6.00 Build 0)  -->
<!DOCTYPE svg PUBLIC "-//W3C//DTD SVG 1.1//EN" "http://www.w3.org/Graphics/SVG/1.1/DTD/svg11.dtd" [
	<!ENTITY ns_extend "http://ns.adobe.com/Extensibility/1.0/">
	<!ENTITY ns_ai "http://ns.adobe.com/AdobeIllustrator/10.0/">
	<!ENTITY ns_graphs "http://ns.adobe.com/Graphs/1.0/">
	<!ENTITY ns_vars "http://ns.adobe.com/Variables/1.0/">
	<!ENTITY ns_imrep "http://ns.adobe.com/ImageReplacement/1.0/">
	<!ENTITY ns_sfw "http://ns.adobe.com/SaveForWeb/1.0/">
	<!ENTITY ns_custom "http://ns.adobe.com/GenericCustomNamespace/1.0/">
	<!ENTITY ns_adobe_xpath "http://ns.adobe.com/XPath/1.0/">
]>
<svg version="1.1" id="Слой_1"

	 xmlns="http://www.w3.org/2000/svg" 
	 xmlns:xlink="http://www.w3.org/1999/xlink" 
	 x="0px" y="0px" viewBox="0 0 2049.4 1422.9"
	 style="enable-background:new 0 0 2049.4 1422.9;" xml:space="preserve">

<!-- 
<svg version="1.1" id="Слой_1"
 xmlns:x="&ns_extend;" 
 xmlns:i="&ns_ai;" 
 xmlns:graph="&ns_graphs;"
	 xmlns="http://www.w3.org/2000/svg" 
	 xmlns:xlink="http://www.w3.org/1999/xlink" 
	 x="0px" y="0px" viewBox="0 0 2049.4 1422.9"
	 style="enable-background:new 0 0 2049.4 1422.9;" xml:space="preserve"> -->

	 <!-- <svg version="1.1" id="Слой_1" xmlns="http://www.w3.org/2000/svg" xmlns:xlink="http://www.w3.org/1999/xlink" x="0px" y="0px"
	 viewBox="0 0 2049.4 1422.9" style="enable-background:new 0 0 2049.4 1422.9;" xml:space="preserve"> -->
<style type="text/css">
	.st0{fill:#DDE8FD;}
	.st1{fill:#BED2FA;}
	.st2{fill:#93B3F4;}
	.st3{fill:#3A49CD;}
	.st4{fill:#E75755;}
	.st5{fill:#FFFFFF;}
	.st6{fill:#3662C1;}
	.st7{fill:#6D89CF;}
	.st8{fill:#FA7269;}
	.st9{fill:#D0D0EA;}
	.st10{fill:#232323;}
	.st11{fill:#FFFFFF;stroke:#000000;stroke-miterlimit:10;}
	.st12{opacity:0.4;}
	.st13{fill:#003FA4;}
	.st14{fill:#FFB47E;}
	.st15{fill:#0076FF;}
	.st16{fill:#003474;}
	.st17{fill:#FF8A3E;}
	.st18{fill:#DC1414;}
	.st19{fill:#FF4B4B;}
	.st20{fill:#FF6548;}
	.st21{fill:#DE661B;}
	.st22{fill:#002B6A;}
	.st23{fill:#0054BE;}
	.st24{fill:#9B0101;}
</style>
<metadata>
	<sfw  xmlns="&ns_sfw;">
		<slices></slices>
		<sliceSourceBounds  bottomLeftOrigin="true" height="1309.8" width="1924.1" x="55.7" y="2.3"></sliceSourceBounds>
	</sfw>
</metadata>
<g>
	<g>
		<path class="st0" d="M202.4,1385.9c0,0-220.4-289.7-37.3-603.3c162.5-278.3,302.7-424.3,479.5-453.3
			c103.2-16.9,165.4,234.9,310.7-48.3c198.1-386.2,961.1-74,835.9,520.1c-60.6,287.5,184.5,298,59.6,585.4L202.4,1385.9z"/>
		<path class="st1" d="M625.7,928.4c0,0-109.1-155.2-151.7-135.1C431.5,813.5,625.7,928.4,625.7,928.4z"/>
		<path class="st1" d="M618.9,886.7c0,0-16.6-116.7-42.9-112.2C549.7,779.1,618.9,886.7,618.9,886.7z"/>
		<g>
			<path class="st2" d="M526.6,1250.5c0,0,10.5-51.9-30.2-58.5c0,0-27.6-0.9-43.8,9.5c0,0,46.2,26.7,40.7,34.9
				c-5.5,8.3-49.3-33.4-49.3-33.4s-49.5,21.7-60.6,37.4c0,0,58.5,10.4,51.2,17.1c-7.3,6.7-68.7-1.3-68.7-1.3s-39.5,31.8-22.3,57.2
				c17.3,25.3,36.9,25.2,43.1,20.7c6.2-4.4,36.7-40.8,40.6-35.9c3.8,5-9.5,35.7-25.3,45.6c0,0,49.8,16.8,64.8-4.5
				c15-21.2,8.1-37.7,17.6-50.7c9.5-13,20.4-19.1,18.5-10.1c-1.9,8.9-21.8,27.6-21.9,44.6c-0.1,17-1.8,29.4,17.7,14.4
				c19.4-15,45.2-49.8,36.8-68.3C526.6,1250.5,526.6,1250.5,526.6,1250.5z"/>
			<g>
				<path class="st3" d="M365.3,1302.2c0,0,116.1-70.9,161.3-51.5c0,0,15.5,14.1,42.2,20l7,6c0,0-32.7-10.2-40.7-7.4
					C535,1269.1,523,1220.7,365.3,1302.2z"/>
				<path class="st3" d="M568.8,1270.5c0,0,36,4.6,56.6,37.3l-4.4,3c0,0-27.6-30.2-49.9-35.7
					C548.7,1269.8,568.8,1270.5,568.8,1270.5z"/>
			</g>
		</g>
		<g>
			<path class="st1" d="M562.2,1099c0,0,84.3-47.2,45-111.3c0,0-31.5-39.3-65.3-49.5c0,0,18,95.6,0,97.8c-18,2.3-12.4-108-12.4-108
				s-88.8-42.6-123.6-39.3c0,0,55.1,93.3,37.1,91.1c-18-2.3-79.8-96.7-79.8-96.7s-91.1-16.9-105.7,37.1c-14.6,54,9,80.9,22.4,84.3
				c13.4,3.4,100.1,2.3,97.8,13.5c-2.3,11.3-60.7,29.2-93.3,19.2c0,0,36,88.8,83.2,84.3c47.2-4.5,61.9-33.7,91.1-36
				c29.2-2.3,50.6,5.6,36,13.5c-14.6,7.9-64.1,2.6-87.7,22.6c-23.6,20-42.7,32.5,1.1,41.4c43.8,8.9,122.5,3.4,138.3-30.3
				C562.2,1099,562.2,1099,562.2,1099z"/>
			<g>
				<path class="st3" d="M299,937c0,0,236.1,76.4,263.2,162c0,0-1.1,38.2,22.5,82.1v16.9c0,0-24.7-57.4-38.2-65.3
					C546.4,1132.7,599.2,1058.5,299,937z"/>
				<path class="st3" d="M584.7,1181c0,0,36.4,55.3,15.7,122.6l-9.4-2.5c0,0,9.1-74.2-10-111.4C562,1152.4,584.7,1181,584.7,1181z"
					/>
			</g>
		</g>
		<path class="st4" d="M647.9,703.8l-126.2,652.3c-2.5,13.2,7.6,25.5,21.1,25.5h66.6L647.9,703.8z"/>
		<g>
			<path class="st2" d="M1486.6,890.6c0,0-56.7-36.2-26.9-79.2c0,0,23.5-26.1,47.3-31.8c0,0-16.3,65.7-3.9,68.1
				c12.4,2.3,13-74.5,13-74.5s63.5-26.2,87.6-22.4c0,0-42.1,62.7-29.5,61.9c12.6-0.8,59.3-64,59.3-64s64-8.1,72,30
				c8,38.1-9.5,56-19,57.7c-9.5,1.8-69.7-2.4-68.5,5.4s41,22.7,64.1,17c0,0-28.5,60.4-61.2,55.3c-32.7-5-41.7-25.9-61.9-28.6
				c-20.3-2.7-35.4,1.9-25.5,8s44.5,4.3,60.1,19.2s28.4,24.2-2.4,28.7c-30.9,4.5-85.3-2.5-95-26.7
				C1486.6,890.6,1486.6,890.6,1486.6,890.6z"/>
			<g>
				<path class="st2" d="M1676.1,788.5c0,0-167.3,43.8-189.5,102.1c0,0-0.8,26.7-19,56.1l-0.7,11.7c0,0,19.5-38.9,29.2-43.8
					C1496.2,914.7,1462.4,861,1676.1,788.5z"/>
				<path class="st2" d="M1467.7,946.8c0,0-27.5,37-15.8,84.7l6.7-1.4c0,0-3.4-51.9,11.4-77.1
					C1484.7,927.7,1467.7,946.8,1467.7,946.8z"/>
			</g>
		</g>
		<g>
			<path class="st5" d="M1333.8,733.4c0,0-87.2-19.2-69.6-86.4c0,0,17.3-43.2,44.4-61.2c0,0,9.7,89.3,26.2,86.5
				c16.5-2.8-18-98.8-18-98.8s67-61.6,98.8-68c0,0-23.7,97.3-8.4,90.4c15.3-6.9,44.7-106.8,44.7-106.8s76-39.3,103.4,4.5
				c27.4,43.8,13.7,74,2.7,80.6c-11,6.6-87.9,28.8-82.9,38.1c5,9.3,61.5,9.6,87.6-8.1c0,0-8,88.2-51,96.9
				c-43,8.6-63.7-13.2-90.1-7.4c-26.4,5.8-43.2,18.5-28.2,21.6c15,3.1,57.4-14.9,83.7-3.5c26.3,11.5,46.5,17.2,10.1,36.9
				s-107.4,35.9-130.4,10.2C1333.8,733.4,1333.8,733.4,1333.8,733.4z"/>
			<g>
				<path class="st5" d="M1523.1,519.8c0,0-188.2,130.9-189.2,213.7c0,0,11.3,33.5,2.1,78.6l4.5,14.9c0,0,6.5-57.4,16.3-67.9
					C1356.8,759,1290.1,707.6,1523.1,519.8z"/>
				<path class="st5" d="M1336,812c0,0-17.4,58.7,19.1,112.6l7.6-4.7c0,0-27.9-63.1-21-101.2C1348.4,780.6,1336,812,1336,812z"/>
			</g>
		</g>
		<path class="st6" d="M649.4,701.2l-83.7,640.5c-2.8,21.2,13.8,40.1,35.2,40.1h122.7l-69.2-682.9L649.4,701.2z"/>
		<path class="st7" d="M649.4,701.2l-37.5,636.4c-1.4,23.9,17.7,44.1,41.6,44.1h183L649.4,701.2z"/>
		<path class="st3" d="M648,706.5l18.2,631.2c-1.4,23.9,17.7,44.1,41.6,44.1h183L648,706.5z"/>
		<path class="st5" d="M1524.1,1381.8H802.6c-18,0-33.4-12.9-36.7-30.6L656.1,750.8c-5-27.2,16-52.4,43.7-52.4h713.1
			c18,0,33.4,12.9,36.7,30.6l111.3,608.8C1564.9,1360.6,1547.4,1381.8,1524.1,1381.8z"/>
		<path class="st8" d="M670.4,828.8h797.8l-20.5-113.3c-1.8-9.9-10.3-17-20.4-17H654.6c-4.2,0-7.4,3.8-6.7,8L670.4,828.8z"/>
		<g>
			<g>
				<g>
					<path class="st6" d="M689,664.3c-19.1,0-34.5,15.5-34.5,34.5h6.7c0-15.4,12.5-28,28-28c15.4,0,28,12.5,28,28
						c0,3.1-0.5,6.1-1.4,8.8c-2.7,8.3-9.2,14.7-17.4,17.6c-2.3,0.8-4.9,1.3-7.5,1.5v6.7c3.1-0.2,6-0.7,8.8-1.6
						c11.3-3.6,20-12.7,23-24.1c0.8-2.8,1.1-5.8,1.1-8.8C723.6,679.8,708.1,664.3,689,664.3z"/>
				</g>
				<path class="st6" d="M699.7,729.9c0,0.7-0.1,1.4-0.3,2c-0.8,3.2-3.8,5.4-7.2,5.4c-4.1,0-7.5-3.4-7.5-7.5s3.4-7.5,7.5-7.5
					c2.4,0,4.5,1.1,5.9,2.9C699.1,726.5,699.7,728.1,699.7,729.9z"/>
			</g>
			<g>
				<g>
					<path class="st6" d="M813,664.3c-19.1,0-34.5,15.5-34.5,34.5h6.7c0-15.4,12.6-28,28-28c15.4,0,28,12.5,28,28
						c0,3.1-0.5,6.1-1.4,8.8c-2.7,8.3-9.2,14.7-17.4,17.6c-2.3,0.8-4.9,1.3-7.5,1.5v6.7c3.1-0.2,6-0.7,8.8-1.6
						c11.3-3.6,20-12.7,23-24.1c0.8-2.8,1.1-5.8,1.1-8.8C847.7,679.8,832.2,664.3,813,664.3z"/>
				</g>
				<path class="st6" d="M823.7,729.9c0,0.7-0.1,1.4-0.3,2c-0.8,3.2-3.8,5.4-7.2,5.4c-4.1,0-7.5-3.4-7.5-7.5s3.4-7.5,7.5-7.5
					c2.4,0,4.6,1.1,5.9,2.9C823.2,726.5,823.7,728.1,823.7,729.9z"/>
			</g>
			<g>
				<g>
					<path class="st6" d="M937,664.3c-19.1,0-34.5,15.5-34.5,34.5h6.7c0-15.4,12.5-28,28-28c15.4,0,28,12.5,28,28
						c0,3.1-0.5,6.1-1.4,8.8c-2.7,8.3-9.2,14.7-17.4,17.6c-2.3,0.8-4.9,1.3-7.5,1.5v6.7c3.1-0.2,6-0.7,8.8-1.6
						c11.3-3.6,20-12.7,23-24.1c0.8-2.8,1.1-5.8,1.1-8.8C971.7,679.8,956.1,664.3,937,664.3z"/>
				</g>
				<path class="st6" d="M947.7,729.9c0,0.7-0.1,1.4-0.3,2c-0.8,3.2-3.8,5.4-7.2,5.4c-4.1,0-7.5-3.4-7.5-7.5s3.4-7.5,7.5-7.5
					c2.4,0,4.5,1.1,5.9,2.9C947.2,726.5,947.7,728.1,947.7,729.9z"/>
			</g>
			<g>
				<g>
					<path class="st6" d="M1061.1,664.3c-19.1,0-34.5,15.5-34.5,34.5h6.7c0-15.4,12.5-28,28-28c15.4,0,28,12.5,28,28
						c0,3.1-0.5,6.1-1.4,8.8c-2.7,8.3-9.2,14.7-17.4,17.6c-2.3,0.8-4.9,1.3-7.5,1.5v6.7c3.1-0.2,6-0.7,8.8-1.6
						c11.3-3.6,20-12.7,23-24.1c0.8-2.8,1.1-5.8,1.1-8.8C1095.7,679.8,1080.1,664.3,1061.1,664.3z"/>
				</g>
				<path class="st6" d="M1071.8,729.9c0,0.7-0.1,1.4-0.3,2c-0.8,3.2-3.8,5.4-7.2,5.4c-4.1,0-7.5-3.4-7.5-7.5s3.4-7.5,7.5-7.5
					c2.4,0,4.5,1.1,5.9,2.9C1071.2,726.5,1071.8,728.1,1071.8,729.9z"/>
			</g>
			<g>
				<g>
					<path class="st6" d="M1185.1,664.3c-19.1,0-34.5,15.5-34.5,34.5h6.7c0-15.4,12.6-28,28-28s28,12.5,28,28c0,3.1-0.5,6.1-1.4,8.8
						c-2.7,8.3-9.2,14.7-17.4,17.6c-2.3,0.8-4.9,1.3-7.5,1.5v6.7c3.1-0.2,6-0.7,8.8-1.6c11.3-3.6,20-12.7,23-24.1
						c0.8-2.8,1.1-5.8,1.1-8.8C1219.7,679.8,1204.1,664.3,1185.1,664.3z"/>
				</g>
				<path class="st6" d="M1195.8,729.9c0,0.7-0.1,1.4-0.3,2c-0.8,3.2-3.8,5.4-7.2,5.4c-4.1,0-7.5-3.4-7.5-7.5s3.4-7.5,7.5-7.5
					c2.4,0,4.6,1.1,5.9,2.9C1195.2,726.5,1195.8,728.1,1195.8,729.9z"/>
			</g>
			<g>
				<g>
					<path class="st6" d="M1309.1,664.3c-19.1,0-34.5,15.5-34.5,34.5h6.7c0-15.4,12.5-28,28-28s28,12.5,28,28c0,3.1-0.5,6.1-1.4,8.8
						c-2.7,8.3-9.2,14.7-17.4,17.6c-2.3,0.8-4.9,1.3-7.5,1.5v6.7c3.1-0.2,6-0.7,8.8-1.6c11.2-3.6,20-12.7,23-24.1
						c0.8-2.8,1.1-5.8,1.1-8.8C1343.7,679.8,1328.2,664.3,1309.1,664.3z"/>
				</g>
				<path class="st6" d="M1319.8,729.9c0,0.7-0.1,1.4-0.3,2c-0.8,3.2-3.8,5.4-7.2,5.4c-4.1,0-7.5-3.4-7.5-7.5s3.4-7.5,7.5-7.5
					c2.4,0,4.5,1.1,5.9,2.9C1319.2,726.5,1319.8,728.1,1319.8,729.9z"/>
			</g>
			<g>
				<g>
					<path class="st6" d="M1433.1,664.3c-19.1,0-34.5,15.5-34.5,34.5h6.7c0-15.4,12.5-28,28-28s28,12.5,28,28c0,3.1-0.5,6.1-1.4,8.8
						c-2.7,8.3-9.2,14.7-17.4,17.6c-2.3,0.8-4.9,1.3-7.5,1.5v6.7c3.1-0.2,6-0.7,8.8-1.6c11.2-3.6,20-12.7,23-24.1
						c0.8-2.8,1.1-5.8,1.1-8.8C1467.7,679.8,1452.2,664.3,1433.1,664.3z"/>
				</g>
				<path class="st6" d="M1443.8,729.9c0,0.7-0.1,1.4-0.3,2c-0.8,3.2-3.8,5.4-7.2,5.4c-4.1,0-7.5-3.4-7.5-7.5s3.4-7.5,7.5-7.5
					c2.4,0,4.5,1.1,5.9,2.9C1443.3,726.5,1443.8,728.1,1443.8,729.9z"/>
			</g>
		</g>
		<g>
			<path class="st7" d="M1131.8,1041.7h-40.4c-4.7,0-9.2-3.8-10.1-8.4l-7.8-40.4c-0.9-4.7,2.2-8.4,6.9-8.4h40.4
				c4.7,0,9.2,3.8,10.1,8.4l7.8,40.4C1139.5,1038,1136.5,1041.7,1131.8,1041.7z"/>
			<path class="st7" d="M1233.5,1041.7h-40.4c-4.7,0-9.2-3.8-10.1-8.4l-7.8-40.4c-0.9-4.7,2.2-8.4,6.9-8.4h40.4
				c4.7,0,9.2,3.8,10.1,8.4l7.8,40.4C1241.3,1038,1238.2,1041.7,1233.5,1041.7z"/>
			<path class="st6" d="M1335.3,1041.7h-40.4c-4.7,0-9.2-3.8-10.1-8.4l-7.8-40.4c-0.9-4.7,2.2-8.4,6.9-8.4h40.4
				c4.7,0,9.2,3.8,10.1,8.4l7.8,40.4C1343.1,1038,1340,1041.7,1335.3,1041.7z"/>
			<path class="st7" d="M826.4,1041.7h-40.4c-4.7,0-9.2-3.8-10.1-8.4l-7.8-40.4c-0.9-4.7,2.2-8.4,6.9-8.4h40.4
				c4.7,0,9.2,3.8,10.1,8.4l7.8,40.4C834.2,1038,831.1,1041.7,826.4,1041.7z"/>
			<path class="st8" d="M782.2,920.6h-17.4c-2,0-3.9-1.7-4.3-3.7l-3.4-17.4c-0.4-2,0.9-3.7,2.9-3.7h17.4c2,0,3.9,1.7,4.3,3.7
				l3.4,17.4C785.6,919,784.3,920.6,782.2,920.6z"/>
			<path class="st7" d="M928.2,1041.7h-40.4c-4.7,0-9.2-3.8-10.1-8.4l-7.8-40.4c-0.9-4.7,2.2-8.4,6.9-8.4h40.4
				c4.7,0,9.2,3.8,10.1,8.4l7.8,40.4C935.9,1038,932.9,1041.7,928.2,1041.7z"/>
			<path class="st7" d="M1030,1041.7h-40.4c-4.7,0-9.2-3.8-10.1-8.4l-7.8-40.4c-0.9-4.7,2.2-8.4,6.9-8.4h40.4
				c4.7,0,9.2,3.8,10.1,8.4l7.8,40.4C1037.7,1038,1034.7,1041.7,1030,1041.7z"/>
			<path class="st6" d="M1437.1,1041.7h-40.4c-4.7,0-9.2-3.8-10.1-8.4l-7.8-40.4c-0.9-4.7,2.2-8.4,6.9-8.4h40.4
				c4.7,0,9.2,3.8,10.1,8.4l7.8,40.4C1444.9,1038,1441.8,1041.7,1437.1,1041.7z"/>
			<path class="st7" d="M1114.9,954.1h-40.4c-4.7,0-9.2-3.8-10.1-8.4l-7.8-40.4c-0.9-4.7,2.2-8.4,6.9-8.4h40.4
				c4.7,0,9.2,3.8,10.1,8.4l7.8,40.4C1122.6,950.4,1119.6,954.1,1114.9,954.1z"/>
			<path class="st7" d="M1216.6,954.1h-40.4c-4.7,0-9.2-3.8-10.1-8.4l-7.8-40.4c-0.9-4.7,2.2-8.4,6.9-8.4h40.4
				c4.7,0,9.2,3.8,10.1,8.4l7.8,40.4C1224.4,950.4,1221.3,954.1,1216.6,954.1z"/>
			<path class="st6" d="M1318.4,954.1H1278c-4.7,0-9.2-3.8-10.1-8.4l-7.8-40.4c-0.9-4.7,2.2-8.4,6.9-8.4h40.4
				c4.7,0,9.2,3.8,10.1,8.4l7.8,40.4C1326.2,950.4,1323.1,954.1,1318.4,954.1z"/>
			<path class="st6" d="M1420.2,954.1h-40.4c-4.7,0-9.2-3.8-10.1-8.4l-7.8-40.4c-0.9-4.7,2.2-8.4,6.9-8.4h40.4
				c4.7,0,9.2,3.8,10.1,8.4l7.8,40.4C1428,950.4,1424.9,954.1,1420.2,954.1z"/>
			<path class="st7" d="M1149.7,1134.6h-40.4c-4.7,0-9.2-3.8-10.1-8.4l-7.8-40.4c-0.9-4.7,2.2-8.4,6.9-8.4h40.4
				c4.7,0,9.2,3.8,10.1,8.4l7.8,40.4C1157.4,1130.7,1154.4,1134.6,1149.7,1134.6z"/>
			<path class="st7" d="M1251.5,1134.6h-40.4c-4.7,0-9.2-3.8-10.1-8.4l-7.8-40.4c-0.9-4.7,2.2-8.4,6.9-8.4h40.4
				c4.7,0,9.2,3.8,10.1,8.4l7.8,40.4C1259.2,1130.7,1256.2,1134.6,1251.5,1134.6z"/>
			<path class="st6" d="M1353.2,1134.6h-40.4c-4.7,0-9.2-3.8-10.1-8.4l-7.8-40.4c-0.9-4.7,2.2-8.4,6.9-8.4h40.4
				c4.7,0,9.2,3.8,10.1,8.4l7.8,40.4C1360.9,1130.7,1357.8,1134.6,1353.2,1134.6z"/>
			<path class="st7" d="M844.4,1134.6H804c-4.7,0-9.2-3.8-10.1-8.4l-7.8-40.4c-0.9-4.7,2.2-8.4,6.9-8.4h40.4c4.7,0,9.2,3.8,10.1,8.4
				l7.8,40.4C852.1,1130.7,849.1,1134.6,844.4,1134.6z"/>
			<path class="st7" d="M946.1,1134.6h-40.4c-4.7,0-9.2-3.8-10.1-8.4l-7.8-40.4c-0.9-4.7,2.2-8.4,6.9-8.4h40.4
				c4.7,0,9.2,3.8,10.1,8.4l7.8,40.4C953.8,1130.7,950.7,1134.6,946.1,1134.6z"/>
			<path class="st7" d="M1047.9,1134.6h-40.4c-4.7,0-9.2-3.8-10.1-8.4l-7.8-40.4c-0.9-4.7,2.2-8.4,6.9-8.4h40.4
				c4.7,0,9.2,3.8,10.1,8.4l7.8,40.4C1055.6,1130.7,1052.6,1134.6,1047.9,1134.6z"/>
			<path class="st6" d="M1455,1134.6h-40.4c-4.7,0-9.2-3.8-10.1-8.4l-7.8-40.4c-0.9-4.7,2.2-8.4,6.9-8.4h40.4
				c4.7,0,9.2,3.8,10.1,8.4l7.8,40.4C1462.7,1130.7,1459.6,1134.6,1455,1134.6z"/>
			<path class="st7" d="M1167.6,1227.4h-40.4c-4.7,0-9.2-3.8-10.1-8.4l-7.8-40.4c-0.9-4.7,2.2-8.4,6.9-8.4h40.4
				c4.7,0,9.2,3.8,10.1,8.4l7.8,40.4C1175.3,1223.6,1172.2,1227.4,1167.6,1227.4z"/>
			<path class="st7" d="M1269.4,1227.4H1229c-4.7,0-9.2-3.8-10.1-8.4l-7.8-40.4c-0.9-4.7,2.2-8.4,6.9-8.4h40.4
				c4.7,0,9.2,3.8,10.1,8.4l7.8,40.4C1277.1,1223.6,1274,1227.4,1269.4,1227.4z"/>
			<path class="st6" d="M1371.2,1227.4h-40.4c-4.7,0-9.2-3.8-10.1-8.4l-7.8-40.4c-0.9-4.7,2.2-8.4,6.9-8.4h40.4
				c4.7,0,9.2,3.8,10.1,8.4l7.8,40.4C1378.9,1223.6,1375.8,1227.4,1371.2,1227.4z"/>
			<path class="st7" d="M862.2,1227.4h-40.4c-4.7,0-9.2-3.8-10.1-8.4l-7.8-40.4c-0.9-4.7,2.2-8.4,6.9-8.4h40.4
				c4.7,0,9.2,3.8,10.1,8.4l7.8,40.4C870,1223.6,866.9,1227.4,862.2,1227.4z"/>
			<path class="st7" d="M964.1,1227.4h-40.4c-4.7,0-9.2-3.8-10.1-8.4l-7.8-40.4c-0.9-4.7,2.2-8.4,6.9-8.4H953
				c4.7,0,9.2,3.8,10.1,8.4l7.8,40.4C971.8,1223.6,968.7,1227.4,964.1,1227.4z"/>
			<path class="st7" d="M1065.8,1227.4h-40.4c-4.7,0-9.2-3.8-10.1-8.4l-7.8-40.4c-0.9-4.7,2.2-8.4,6.9-8.4h40.4
				c4.7,0,9.2,3.8,10.1,8.4l7.8,40.4C1073.5,1223.6,1070.4,1227.4,1065.8,1227.4z"/>
			<path class="st6" d="M1472.9,1227.4h-40.4c-4.7,0-9.2-3.8-10.1-8.4l-7.8-40.4c-0.9-4.7,2.2-8.4,6.9-8.4h40.4
				c4.7,0,9.2,3.8,10.1,8.4l7.8,40.4C1480.6,1223.6,1477.5,1227.4,1472.9,1227.4z"/>
			<path class="st7" d="M1184.5,1315h-40.4c-4.7,0-9.2-3.8-10.1-8.4l-7.8-40.4c-0.9-4.7,2.2-8.4,6.9-8.4h40.4
				c4.7,0,9.2,3.8,10.1,8.4l7.8,40.4C1192.2,1311.2,1189.1,1315,1184.5,1315z"/>
			<path class="st7" d="M1286.3,1315h-40.4c-4.7,0-9.2-3.8-10.1-8.4l-7.8-40.4c-0.9-4.7,2.2-8.4,6.9-8.4h40.4
				c4.7,0,9.2,3.8,10.1,8.4l7.8,40.4C1294,1311.2,1290.9,1315,1286.3,1315z"/>
			<path class="st6" d="M1388.1,1315h-40.4c-4.7,0-9.2-3.8-10.1-8.4l-7.8-40.4c-0.9-4.7,2.2-8.4,6.9-8.4h40.4
				c4.7,0,9.2,3.8,10.1,8.4l7.8,40.4C1395.8,1311.2,1392.7,1315,1388.1,1315z"/>
			<path class="st7" d="M879.1,1315h-40.4c-4.7,0-9.2-3.8-10.1-8.4l-7.8-40.4c-0.9-4.7,2.2-8.4,6.9-8.4H868c4.7,0,9.2,3.8,10.1,8.4
				l7.8,40.4C886.9,1311.2,883.8,1315,879.1,1315z"/>
			<path class="st7" d="M981,1315h-40.4c-4.7,0-9.2-3.8-10.1-8.4l-7.8-40.4c-0.9-4.7,2.2-8.4,6.9-8.4h40.4c4.7,0,9.2,3.8,10.1,8.4
				l7.8,40.4C988.7,1311.2,985.6,1315,981,1315z"/>
			<path class="st7" d="M1082.7,1315h-40.4c-4.7,0-9.2-3.8-10.1-8.4l-7.8-40.4c-0.9-4.7,2.2-8.4,6.9-8.4h40.4
				c4.7,0,9.2,3.8,10.1,8.4l7.8,40.4C1090.4,1311.2,1087.3,1315,1082.7,1315z"/>
			<path class="st7" d="M904.5,904.7H797.6c-1.6,0-2.8-1.3-2.8-2.8l0,0c0-1.6,1.3-2.8,2.8-2.8h106.8c1.6,0,2.8,1.3,2.8,2.8l0,0
				C907.4,903.4,906.1,904.7,904.5,904.7z"/>
			<path class="st7" d="M907.7,917.7H800.9c-1.6,0-2.8-1.3-2.8-2.8l0,0c0-1.6,1.3-2.8,2.8-2.8h106.8c1.6,0,2.8,1.3,2.8,2.8l0,0
				C910.6,916.4,909.3,917.7,907.7,917.7z"/>
		</g>
		<g>
			<path class="st5" d="M789.9,808.4h-36.6c-3,0-5.4-2.4-5.4-5.4l0,0c0-3,2.4-5.4,5.4-5.4h36.6c3,0,5.4,2.4,5.4,5.4l0,0
				C795.4,805.9,792.9,808.4,789.9,808.4z"/>
			<path class="st5" d="M890.5,808.4h-36.6c-3,0-5.4-2.4-5.4-5.4l0,0c0-3,2.4-5.4,5.4-5.4h36.6c3,0,5.4,2.4,5.4,5.4l0,0
				C895.9,805.9,893.5,808.4,890.5,808.4z"/>
			<path class="st5" d="M991.1,808.4h-36.6c-3,0-5.4-2.4-5.4-5.4l0,0c0-3,2.4-5.4,5.4-5.4h36.6c3,0,5.4,2.4,5.4,5.4l0,0
				C996.6,805.9,994.1,808.4,991.1,808.4z"/>
			<path class="st5" d="M1091.7,808.4H1055c-3,0-5.4-2.4-5.4-5.4l0,0c0-3,2.4-5.4,5.4-5.4h36.7c3,0,5.4,2.4,5.4,5.4l0,0
				C1097.2,805.9,1094.8,808.4,1091.7,808.4z"/>
			<path class="st5" d="M1192.3,808.4h-36.7c-3,0-5.4-2.4-5.4-5.4l0,0c0-3,2.4-5.4,5.4-5.4h36.7c3,0,5.4,2.4,5.4,5.4l0,0
				C1197.8,805.9,1195.3,808.4,1192.3,808.4z"/>
			<path class="st5" d="M1293,808.4h-36.7c-3,0-5.4-2.4-5.4-5.4l0,0c0-3,2.4-5.4,5.4-5.4h36.7c3,0,5.4,2.4,5.4,5.4l0,0
				C1298.4,805.9,1296,808.4,1293,808.4z"/>
			<path class="st5" d="M1393.5,808.4h-36.7c-3,0-5.4-2.4-5.4-5.4l0,0c0-3,2.4-5.4,5.4-5.4h36.7c3,0,5.4,2.4,5.4,5.4l0,0
				C1399,805.9,1396.5,808.4,1393.5,808.4z"/>
		</g>
		<path class="st3" d="M1774.3,1381.8h-64.6c-3.5-2.9,2.4-9.6,8.5-10c2.6-0.2,6,0.4,9.9,1.1c0.8-11.8,6-64.9,25.1-62.8
			c21.5,2.3,0,23.4-6.1,35.8c-4.5,9.2-9.3,22.4-11.5,28.6c1.8,0.4,3.6,0.8,5.4,1.1c2.8-8.7,13.4-38.2,26.9-36.5
			c15.9,2,9.5,13.8-1.8,20.8c-8.3,5.2-18.4,12.5-23.2,16.1c4,0.7,8.4,1.1,12.7,1C1766.8,1376.8,1772.1,1380.1,1774.3,1381.8z"/>
		<path class="st3" d="M299.2,1378.7c-3.4-5.4-13.7-19.3-27.4-17.5c-14.9,2,16.5,11.9,26.2,17.6c-2.2,0-3.9-0.2-5.4-0.7
			c-6.5-2.3-17.5,2.1-21,3.7h61.3c-0.5-1.5-1.5-3.8-4.4-5.6c-1-0.7-3-0.8-5.6-0.5c3.7-4.3,6.2-18-3.9-14.5c-7.4,2.6-7.4,11-6.7,16
			c-1.6,0.3-3.2,0.5-4.8,0.8c-3-15.6-13.9-61.2-35.8-62.3c-22.2-1.2,18.8,47.3,32.5,62.8C302.4,1378.5,300.7,1378.7,299.2,1378.7z"
			/>
		<path class="st9" d="M1977.3,1396.9H58.3c-1.4,0-2.5-3.5-2.5-7.8l0,0c0-4.4,1.1-7.8,2.5-7.8h1919c1.4,0,2.5,3.5,2.5,7.8l0,0
			C1979.8,1393.1,1978.7,1396.9,1977.3,1396.9z"/>
	</g>
</g>
<g>
	<path class="st10" d="M489.6,953c-2.7,0-8.6-6-8.6-6l-0.3,439.4l85.2,0.3L489.6,953z"/>
	<g>
		<g>
			<polygon class="st11" points="969.4,1386.9 559.5,1386.9 484.3,947 888.6,947 			"/>
		</g>
		<g>
			<polygon class="st8" points="897.6,1001.9 492.6,1001.9 483,945.7 887.2,945.7 			"/>
		</g>
		<g class="st12">
			<g>
				<path class="st0" d="M575.3,1058c2.2,12.6-6.2,22.8-18.7,22.8s-24.4-10.2-26.6-22.8c-2.2-12.6,6.2-22.8,18.7-22.8
					C561.2,1035.2,573.1,1045.4,575.3,1058z"/>
			</g>
			<g>
				<path class="st0" d="M854.2,1079.3H614c-11.7,0-22.8-9.5-24.9-21.3h0c-2-11.8,5.8-21.3,17.4-21.3h239.9c11.7,0,22.9,9.5,25,21.3
					l0,0C873.6,1069.8,865.9,1079.3,854.2,1079.3z"/>
			</g>
			<g>
				<path class="st0" d="M589.3,1138.5c2.2,12.7-6.2,22.9-18.7,22.9c-12.5,0-24.5-10.3-26.6-22.9c-2.2-12.6,6.2-22.9,18.7-22.9
					C575.1,1115.6,587.1,1125.8,589.3,1138.5z"/>
			</g>
			<g>
				<path class="st0" d="M868.9,1159.9H628c-11.7,0-22.9-9.6-24.9-21.4v0c-2.1-11.8,5.8-21.4,17.5-21.4h240.5
					c11.7,0,22.9,9.6,25.1,21.4v0C888.3,1150.3,880.6,1159.9,868.9,1159.9z"/>
			</g>
			<g>
				<path class="st0" d="M602.6,1215.3c2.2,12.7-6.2,23-18.8,23s-24.5-10.3-26.7-23c-2.2-12.7,6.2-23,18.8-23
					S600.4,1202.6,602.6,1215.3z"/>
			</g>
			<g>
				<path class="st0" d="M882.9,1236.9H641.4c-11.7,0-22.9-9.6-25-21.5l0,0c-2.1-11.9,5.8-21.5,17.5-21.5H875
					c11.7,0,23,9.6,25.2,21.5h0C902.4,1227.2,894.6,1236.9,882.9,1236.9z"/>
			</g>
			<g>
				<path class="st0" d="M618.2,1305.6c2.2,12.8-6.2,23.2-18.8,23.2s-24.6-10.4-26.8-23.2c-2.2-12.8,6.2-23.1,18.8-23.1
					C604,1282.5,616,1292.9,618.2,1305.6z"/>
			</g>
			<g>
				<path class="st0" d="M899.3,1327.3H657.2c-11.8,0-23-9.7-25.1-21.7l0,0c-2.1-11.9,5.8-21.6,17.5-21.6h241.8
					c11.8,0,23.1,9.7,25.3,21.6l0,0C918.9,1317.6,911.1,1327.3,899.3,1327.3z"/>
			</g>
		</g>
		<g>
			<path class="st5" d="M842.8,1197.7c12,66.1-31.4,119.9-96.8,119.9s-127.9-53.8-139.3-119.9c-11.4-65.8,32-119,97-119
				S830.9,1131.9,842.8,1197.7z"/>
			<path d="M746,1318.1c-65.6,0-128.4-54.1-139.9-120.4c-11.4-66,32.3-119.5,97.4-119.5s127.8,53.5,139.7,119.5
				C855.3,1264,811.7,1318.1,746,1318.1z M703.7,1079.2c-64.6,0-108,53.1-96.6,118.5c11.4,65.7,73.7,119.4,138.8,119.4
				s108.4-53.7,96.5-119.4C830.5,1132.3,768.3,1079.2,703.7,1079.2z"/>
		</g>
		<g>
			<g>
				<path class="st10" d="M716.9,1227.2l-1.3-5.3c-3.1-10.7-1.6-22.9,6.2-34.8c7.1-10.9,10.6-18.8,9-27.8
					c-1.8-10.3-9.4-17.1-22-17.3c-7.2,0-14.7,2.4-19,6.2l-7-12.7c5.9-4.8,16.5-8.1,27.1-8.1c22.9,0,35.8,14.3,38.6,29.6
					c2.4,13.7-3.3,23.8-10.9,35.1c-6.9,10.5-8.5,19.6-6.1,29.9l1.1,5.1H716.9z M731.4,1268.3c-6.8,0-12.6-5.5-13.8-12.6
					c-1.3-7.5,2.7-12.8,9.7-12.8c7,0,12.7,5.3,14.1,12.8c1.3,7.1-2.4,12.6-9.8,12.6H731.4z"/>
			</g>
		</g>
		<g>
			<path class="st5" d="M521.6,977.5l-0.8,6.2h-4.1l3.2-22h5.1l10.9,22h-4.3l-3.1-6.2H521.6z M527.4,974.5l-2.7-5.4
				c-0.7-1.3-1.3-2.8-1.8-4.1h-0.1c-0.1,1.3-0.2,2.8-0.3,4.1l-0.8,5.4H527.4z"/>
			<path class="st5" d="M552.3,981.4c0.6,3.3,0.3,5.7-1.1,7.2c-1.4,1.5-3.6,1.9-5.8,1.9c-2,0-4.2-0.4-5.7-1.3l0.4-3
				c1.1,0.6,2.9,1.2,4.8,1.2c2.6,0,4.3-1.4,3.7-4.8l-0.2-1.4h-0.1c-0.7,1.4-2.1,2.4-4.2,2.4c-3.9,0-7.3-3.3-8.1-7.8
				c-0.9-5.2,1.9-8.4,5.7-8.4c2.4,0,4,1.2,5,2.5h0.1l-0.2-2.1h3.5c0.1,1.1,0.3,2.4,0.7,4.6L552.3,981.4z M547.1,974.2
				c-0.1-0.4-0.2-0.8-0.3-1.1c-0.7-1.5-2-2.6-3.7-2.6c-2.2,0-3.6,2-3,5.2c0.5,2.7,2.2,4.9,4.7,4.9c1.5,0,2.6-1,2.8-2.4
				c0-0.4,0-1-0.1-1.4L547.1,974.2z"/>
			<path class="st5" d="M558.6,976.9c0.6,2.9,3.1,4.1,5.6,4.1c1.9,0,3.1-0.3,4.3-0.7l1.1,2.8c-1.3,0.6-3.1,1-5.3,1
				c-5.1,0-8.7-3.2-9.6-8.1c-0.8-4.4,1.2-8.5,6.3-8.5c5.2,0,7.6,4.2,8.2,7.7c0.1,0.8,0.2,1.3,0.2,1.7H558.6z M565.1,974.1
				c-0.2-1.5-1.3-3.9-4-3.9c-2.5,0-3.1,2.3-3,3.9H565.1z"/>
			<path class="st5" d="M571.8,972.6c-0.3-1.8-0.6-3.4-1-4.7h3.5l0.6,2.4h0.1c0.5-1.2,1.9-2.7,4.6-2.7c2.8,0,5.9,1.8,6.8,6.8
				l1.6,9.4h-4l-1.6-9c-0.4-2.3-1.5-4-3.7-4c-1.6,0-2.5,1.1-2.7,2.3c-0.1,0.4,0,0.8,0.1,1.3l1.6,9.3h-4L571.8,972.6z"/>
			<path class="st5" d="M602.9,960.6l3.3,18.7c0.3,1.6,0.7,3.4,0.9,4.5h-3.6l-0.6-2.5h-0.1c-0.6,1.8-2.4,2.9-4.7,2.9
				c-3.8,0-7.3-3.2-8.2-8.1c-1-5.3,1.8-8.5,5.6-8.5c2.2,0,3.9,0.9,4.8,2.1h0.1l-1.6-9H602.9z M601.3,974.5c-0.1-0.3-0.2-0.7-0.3-1
				c-0.6-1.6-2.1-2.8-3.9-2.8c-2.6,0-3.6,2.3-3.1,5.3c0.5,2.9,2.3,5,4.8,5c1.6,0,2.9-1.1,2.9-2.8c0-0.4,0-0.8-0.1-1.2L601.3,974.5z"
				/>
			<path class="st5" d="M622.8,979.9c0.3,1.4,0.6,2.8,0.9,3.8h-3.6l-0.6-1.8h-0.1c-0.8,1.2-2.3,2.1-4.3,2.1c-3.2,0-5.4-2.3-5.8-4.7
				c-0.7-4,2.5-6,8.3-6l0-0.3c-0.2-1-0.9-2.8-3.7-2.8c-1.6,0-3.1,0.5-4,1.2l-1.2-2.6c1-0.7,3-1.4,5.5-1.4c5.1,0,7.1,3.2,7.7,6.7
				L622.8,979.9z M618.3,976c-2.8-0.1-5.4,0.6-5,3c0.3,1.6,1.4,2.3,2.7,2.3c1.6,0,2.6-1,2.7-2.2c0-0.3,0-0.6,0-0.9L618.3,976z"/>
		</g>
	</g>
</g>
<g>
	<g>
		<path class="st13" d="M1011.6,1183c1.3,6.1,1.8,12.7,0.5,18.8c-14,6-12.6-19.1-12.6-19.1C1004.6,1184.8,1011.6,1183,1011.6,1183z"
			/>
		<path class="st13" d="M973.9,1184.7c0,0,3.2,24.7-15.1,25.3c0,0-17.8,0.6-13.6-25.2C945.2,1184.8,958.3,1189,973.9,1184.7z"/>
		<path class="st13" d="M984,1206.3l-4.4,46.1l-5.9-21.8l0,0c0.4-3.3,0.8-6,1.1-7.7c0.2-1.2,0.7-2.4,1.6-3.4
			C979.7,1215.4,982.1,1210.8,984,1206.3z"/>
		<path class="st14" d="M1011.3,1154.2c6-7.7,8.6-23.5,8.6-23.5c0.8-5.4,3.6-10.7,6.4-14.8c0.9-1.4,1.8-2.6,2.6-3.7l-6.3-22.6
			l3.2-3.7l5.8-6.7l16.3,25.6c2.8,4.4,3.1,9.9,0.9,14.6c-4,8.5-10.8,22.2-16.4,31.4c-2.3,3.7-5.1,7-8.5,9.8
			c-0.7,0.6-1.3,1.4-1.8,2.3c-0.8,1.6-2.4,4.3-4.9,6.7l-11.7-5.4l0,0l-6.2,0.5c-0.2,0-0.5,0-0.7-0.1c-0.9-0.2-1.7-0.9-1.9-1.9
			c-0.3-1.3,0.5-2.7,1.8-3l4.4-1l2.2-0.5c1.5-0.1,2.9-0.7,4.2-1.8l0,0C1009.9,1155.8,1010.7,1155,1011.3,1154.2z"/>
		<path class="st15" d="M983.4,1164.4c5.5-0.1,10.7,0,15.1,0.2c0.1,0.1,0.3,0.1,0.4,0.1c0.1,0,0.1,0,0.3,0l6.2-0.5l0,0
			c0.1,0.2,1.9,4,3.7,9.5c0.9,2.7,1.8,5.9,2.5,9.3c0,0-7.1,1.7-12.1-0.4c0,0-1.4,25.2,12.6,19.1c-0.2,1.1-0.5,2.2-0.9,3.2
			c-0.3,0.9-0.3,1.9-0.2,3c1.3,9.8,7.9,59.7,12.4,83.4c0.4,2.1,0.7,4.2,0.8,6.3l4.2,90.2c0,0-0.6,0.1-1.5,0.4
			c-4.2,0.9-15.7,2.9-22.2-1.1l-19.8-114.4c-0.3-1.7-0.7-3.4-1.1-5l-4.2-15.6l4.4-46.1c-1.9,4.5-4.3,9.1-7.6,13.3
			c-0.8,1-1.4,2.1-1.6,3.4c-0.3,1.7-0.6,4.3-1.1,7.7l0,0c-0.8,6.4-1.8,15.2-2,23.3l-7,89.1l-0.1,46.7c0,0-0.4,0.1-1.3,0.3
			c-4.2,1-18,3.8-24.5,0.3c-0.7-0.4-1.4-0.8-1.8-1.4l-1.1-108.6c-0.1-2.7-0.3-5.4-0.7-8c-2.2-12.5-8.6-52.9-8-86.4
			c0.1-5.7,0.4-11.3,0.9-16.5l0.1-0.4l1,0.2c1.5,0.2,3-0.1,4.4-0.7l0,0c0.4-0.1,4.9-0.6,11.7-1.3
			C955.2,1166,970.1,1164.7,983.4,1164.4z M958.8,1210c18.2-0.6,15.1-25.3,15.1-25.3c-15.6,4.3-28.7,0.1-28.7,0.1
			C940.9,1210.6,958.8,1210,958.8,1210z"/>
		<path class="st16" d="M1026.8,1388.3c0,0,0.7,7.4,0.4,14.9c-0.1,2.6-2,4.9-4.5,5.5c-2.2,0.6-5,0.9-8.1,0.5
			c-1.2-0.2-2.3-0.6-3.3-1.5c-1.9-1.6-6.1-4.5-9.4-4.6c0,0-10.1,0.1-14.2-7.7c-0.4-0.7-0.7-1.5-0.8-2.4c-0.1-0.6-0.2-1.3-0.2-2
			c0-1.2,0.7-2.3,1.9-2.7c2.6-0.9,8.9-2.8,16.1-1C1011.1,1391.2,1022.7,1389.2,1026.8,1388.3L1026.8,1388.3L1026.8,1388.3z"/>
		<path class="st17" d="M1022.7,1089.5l6.3,22.6c-0.8,1.1-1.7,2.3-2.6,3.7l-0.2-0.2l-10.9-17.5L1022.7,1089.5z"/>
		<path class="st17" d="M1005.5,1164.2l11.7,5.4c-2.1,2-4.7,3.7-8,4.2C1007.4,1168.3,1005.6,1164.4,1005.5,1164.2z"/>
		<path class="st14" d="M976,1019.5c1.7-0.1,3.4-0.6,4.5-1.2c0.3-0.1,0.6-0.3,0.8-0.5c0,0,2.2,6.8,3.1,9.3l0,0.1
			c-0.6,0-1.2,0.1-1.8,0.2l-17,3.1l-9.8,1.8l-0.1-0.5c-0.1-0.6-0.1-1.2-0.2-1.7l0,0l3.2-16.2l-0.2,0.6c-0.9,2.1-2.6,3.7-4.8,4.4
			l-5.3,1.5l-2.4,0.7c-8,1.4-7.9-4.9-7.9-4.9l1.4-12.8l1.4-12.4l0.2-1.6c0.4-3.5,1.2-7.1,2.3-10.5l1.4-4.3l0-0.1
			c0.5,0.2,1.2,0.2,2,0.1c0,0,5.4-2,5.3,0.8l-3.4,8c-0.4,1-0.4,2.1,0.2,3.1l1.2,2.1c0.4,0.7,0.7,1.6,0.7,2.5l0,3.3
			c0,0.7,0.2,1.5,0.7,2c0.5,0.5,1.1,0.9,1.9,1c1.4,0.2,2.8-0.7,3.3-2.2l0.2-0.5c0.2-0.9,1.2-1.6,2.2-1.4c1.8,0.3,4.5,1.5,4.4,5.2
			l0,0c0.4,0.7,1.3,3.4,1.8,4.8c0.2,0.5,0.3,1.1,0.2,1.7c0,3.5,0.7,6.4,1.4,8.5c0.4,1.1,1,2.1,1.8,3c1.3,1.6,3.3,2.6,5.4,2.9
			C974.6,1019.6,975.3,1019.6,976,1019.5z"/>
		<path class="st16" d="M963.2,1390c5,9.3,2.3,22.7,1.3,26.5c-0.2,0.7-0.6,1.4-1.3,1.8c-3.8,2.6-10.1,2.4-13.8,2
			c-1.7-0.2-3.2-0.7-4.7-1.4c-6.5-2.9-15.7-2.1-15.7-2.1c-17.6,1.9-26.6-3.6-29.5-5.9c-0.8-0.6-1.2-1.6-1-2.6
			c0.9-4.1,6.4-4.8,6.4-4.8c18-1.8,33.6-13.4,33.6-13.4C945.2,1393.8,959,1391,963.2,1390z"/>
		<path class="st17" d="M958.7,1013.9l-3.2,16.2l0,0c-1.6-8.7-7.3-9.8-7.3-9.8l5.3-1.5c2.2-0.6,4-2.2,4.8-4.4L958.7,1013.9z"/>
		<path class="st14" d="M948.1,1159.6c0.6,0.5,1.1,1.3,1.1,2.1c0,0.1,0,0.1,0,0.3c0,1.5-1.2,2.7-2.8,2.9l-2.4,0.1
			c-1-1.9-1.7-3.8-2.1-5.9l4.1-0.2C946.9,1158.9,947.5,1159.2,948.1,1159.6z"/>
		<path class="st14" d="M928,1168.9l-0.1,0.4l-7.2,13c-2.2-2.4-4-5.5-5.1-7.9c-1-2.1-1.5-4.3-1.4-6.6l0.1-4.7c0-0.9,0-1.7-0.1-2.6
			l-7-34.7c-1.9-9.6-0.5-19.4,3.9-28.1l3.6-6.9c2.4,0.8,5.8,1.8,10.2,2.5c1,0.2,2,0.3,3.2,0.5l3.3,22.8l-2,6.6
			c-0.6,1.9-0.9,3.9-1,5.8c-0.2,2.8-0.3,7-0.2,11.3c0.2,7,0.9,14.6,3.3,17.1c0,0,1,1.9,5.4,2l4.9-0.2c0.4,2,1.1,4,2.1,5.9l-3.3,0.2
			c-0.9,0-1.9,0.3-2.7,0.7l-4.6,2.3l0,0c-1.4,0.7-2.9,0.9-4.4,0.7L928,1168.9z"/>
		<path class="st17" d="M938.1,1094.7L938.1,1094.7l-6.6,21.8l-3.3-22.8C931.1,1094.1,934.4,1094.4,938.1,1094.7z"/>
		<polygon class="st17" points="940.7,991 939.4,1003.4 934.7,1002.1 		"/>
		<path class="st17" d="M920.8,1182.3l7.2-13c-0.6,5.2-0.9,10.7-0.9,16.5l0,0C924.6,1185.7,922.6,1184.2,920.8,1182.3z"/>
		<g>
			<path class="st18" d="M996.6,1162.8c-0.3-1.3,0.5-2.7,1.8-3l4.4-1c-9.5-0.9-17.8-1.3-24.9-1.3c-19.3-0.1-29.4,2.2-29.8,2.3
				c0.6,0.5,1.1,1.3,1.1,2.1c0,0.1,0,0.1,0,0.3c0,1.5-1.2,2.7-2.8,2.9l-2.4,0.1l-3.3,0.2c-0.9,0-1.9,0.3-2.7,0.7l-4.6,2.3
				c0.4-0.1,4.9-0.6,11.7-1.3c10-1,24.9-2.3,38.2-2.6c5.5-0.1,10.7,0,15.1,0.2C997.5,1164.4,996.8,1163.7,996.6,1162.8z"/>
			<path class="st18" d="M1032.1,1075.8l-1.3-2.6c-0.2,0.2-3.3,4-7,8.3c-4.1,4.8-8.8,10.3-10.8,12.2l0,0c-0.2,1.5-0.5,3-0.8,4.6
				l-1,4.7l4.1-4.7l7.5-8.6l3.2-3.7l5.8-6.7C1032.4,1078.2,1032.6,1076.9,1032.1,1075.8z"/>
			<path class="st19" d="M954.2,1081.1c-2-0.9-4.2-1.6-6.3-2c-4.4-1-8.9-1.4-13.2-2.9c-5.2-1.8-11.3-5.8-14.7-10.9l-8.2,18
				c0,0,9,3.7,20.3,6.3c3.1-1.2,6.4-2.2,9.3-2.6c1.3-0.2,2.5-0.2,3.8,0c6.9,0.8,12.1,6.5,11.7,13.7c-0.5,8.8-5.2,13-11.9,17.7
				c-3.5,2.4-6.7,5-9.2,8.1c-0.3,1.3-0.4,2.7-0.6,4c-1,7.3-1.8,28.6-3.4,26.9c0,0,1,1.9,5.4,2l4.9-0.2c-0.6-3.3-0.6-6.8,0.4-10.7
				c1.7-6.8,5.5-11.7,10.2-16.7c4.5-4.9,10.3-8.2,13.6-14.1c3.4-6.2,3.7-15.4,1-21.9C964.8,1089.9,960,1083.8,954.2,1081.1z
				 M1028.2,1068c-1.3-0.7-2.6-1.3-4.1-1.7c-2.8-0.8-5.8-0.8-8.7-1.1c-0.4-0.1-0.9-0.1-1.4-0.2c-7.5-1.4-12.8-3.9-17.5-9.9
				c-5.5-7.1-5.9-16.6-1.6-23.5l-3.2-2.1c-1.8-1.3-3.9-1.9-6.1-2.1c-2.3,3-3.9,6.8-4.4,10.5c-1.6,9.2,1.8,18.7,8.3,25.2
				c6.7,6.6,14.5,7.1,22.7,10.5c0.8,0.3,1.6,0.6,2.3,1c2.1,1,4.4,2.2,6.1,3.7c1.2,1,2.1,2.2,2.9,3.4c3.7-4.3,6.8-8.1,7-8.3
				L1028.2,1068z M994.3,1139.4c-2.4-7.3,1.7-16.6,3.7-23.7c3.1-11.1,5.9-23.9-2.3-33.5c-6.9-8-16-13.5-24.1-20.2
				c-6.4-5.3-9.8-15.6-8.5-23.8c0.4-2.7,1.5-5.2,2.6-7.6l-9.8,1.8l-9.8,1.8c-3.8,0.7-7.2,2.5-9.9,5.3l-4.1,4.2
				c-0.7,0.8-1.4,1.6-2.1,2.3c3.1,3.6,7.8,6.5,10.3,8.2c11.5,7.6,25.8,11.3,35.3,21.9c10,11.3,11.2,26.9,5.9,40.6
				c-4.4,11.3-9.4,28.6-3.6,40.6c7.1,0.1,15.4,0.4,24.9,1.3l2.2-0.5l0.2-5.9C1000.1,1149.8,996.4,1145.6,994.3,1139.4z"/>
			<path class="st20" d="M956.7,1100.7c0.4-7.2-4.8-12.9-11.7-13.7c-1.2-0.2-2.5-0.1-3.8,0c-2.8,0.4-6.1,1.3-9.3,2.6
				c3.5,0.8,7.3,1.5,11.2,1.9c-0.9,2-1.5,3.2-1.5,3.2c-0.6,0-1.2,0-1.7,0c0,0-0.1,11.2-4,29.9c-0.2,0.6-0.3,1.2-0.3,1.9
				c2.5-3,5.7-5.6,9.2-8.1C951.6,1113.6,956.2,1109.4,956.7,1100.7z M1020.8,1078c-1.8-1.5-3.9-2.7-6.1-3.7c-0.8-0.4-1.6-0.7-2.3-1
				c-8.2-3.3-16.1-3.8-22.7-10.5c-6.5-6.4-9.8-15.9-8.3-25.2c0.6-3.6,2.2-7.5,4.4-10.5c-0.4,0-0.9,0-1.4,0c-0.6,0-1.2,0.1-1.8,0.2
				l-17,3.1c-1.2,2.4-2.2,4.9-2.6,7.6c-1.3,8.2,2.1,18.5,8.5,23.8c8.1,6.6,17.3,12.2,24.1,20.2c8.2,9.6,5.4,22.3,2.3,33.5
				c-1.9,7-6.1,16.3-3.7,23.7c2.1,6.3,5.9,10.5,10.9,12.9l0.6-19.8c0.1-3,0.5-5.9,1.1-8.8l4.4-20.7l1-4.7c0.3-1.5,0.6-3,0.8-4.6l0,0
				c2-1.9,6.7-7.3,10.8-12.2C1022.9,1080.2,1022,1079,1020.8,1078z M1014.1,1064.9c0.4,0.1,0.9,0.2,1.4,0.2c2.9,0.4,5.9,0.3,8.7,1.1
				c1.4,0.4,2.8,1,4.1,1.7l-7.8-15.7c-1.9-3.8-4.8-7-8.5-9.3l-16.8-11.4c-4.4,7-4,16.3,1.6,23.5
				C1001.3,1061.1,1006.7,1063.6,1014.1,1064.9z M940.3,1054.3c-2.6-1.7-7.2-4.6-10.3-8.2c-1.9,2.3-3.5,4.9-4.7,7.6l-5.3,11.6
				c3.4,5.1,9.4,9,14.7,10.9c4.2,1.5,8.8,1.9,13.2,2.9c2.2,0.5,4.3,1.1,6.3,2c5.8,2.6,10.5,8.7,12.9,14.5c2.7,6.6,2.4,15.7-1,21.9
				c-3.3,6-9.1,9.3-13.6,14.1c-4.6,5.1-8.6,9.9-10.2,16.7c-0.9,4-1,7.4-0.4,10.7l4.1-0.2c0.7-0.1,1.4,0.2,2,0.6
				c0.4-0.1,10.5-2.4,29.8-2.3c-5.8-12.1-0.8-29.4,3.6-40.6c5.3-13.6,4.1-29.2-5.9-40.6C966.2,1065.6,951.8,1061.9,940.3,1054.3z"/>
			<path class="st18" d="M932,1089.6c-11.3-2.6-20.3-6.3-20.3-6.3l-1.3,2.9c-0.5,1.2,0,2.7,1.2,3.2c0.9,0.4,1.9,0.8,3.2,1.3l0,0
				c2.4,0.8,5.8,1.8,10.2,2.5c1,0.2,2,0.3,3.2,0.5c2.9,0.4,6.2,0.8,9.9,0.9c0.6,0,1.2,0,1.9,0.1c0.6,0,1.2,0,1.7,0
				c0,0,0.6-1.2,1.5-3.2C939.4,1091.2,935.6,1090.5,932,1089.6z"/>
		</g>
		<path class="st21" d="M955.4,1005.3c1.7,0.1,3.3-0.2,4.5-1c1.2-0.9,2-2.2,2.4-3.7c0.3-1.4,0.5-3.1,0-4.4c-0.5-1.4-2-2.3-3.5-2.9
			c0.8,0,1.7,0.3,2.4,0.6c0.8,0.4,1.4,1.1,1.8,1.8c0.4,0.8,0.6,1.7,0.6,2.6c0,0.4,0,0.9-0.1,1.3c0,0.4-0.1,0.9-0.3,1.3
			c-0.5,1.7-1.5,3.2-3,4.1C958.8,1005.8,957,1005.8,955.4,1005.3z"/>
		<path class="st21" d="M1032.4,1108c-1.1,1.4-2,2.8-3.1,4.3c-0.9,1.5-2,2.8-3,4.3c-1.9,2.9-3.7,5.9-5.2,9.1
			c0.8-3.5,2.4-6.7,4.3-9.7c1-1.5,2.1-2.8,3.2-4.3C1029.8,1110.5,1031.1,1109.2,1032.4,1108z"/>
		<path class="st22" d="M989.5,1178.2c0.2,4.6-0.2,9.3-1,13.9c-0.8,4.6-2,9.1-3.7,13.5c-1.7,4.4-3.9,8.5-6.7,12.3
			c-0.7,0.9-1.5,1.8-2.1,2.8s-0.9,2-1,3.2c-0.4,2.3-0.8,4.5-1.2,6.9c0.2-2.3,0.5-4.6,0.7-6.9c0.1-1.2,0.4-2.4,1-3.5
			c0.3-0.6,0.7-1,1-1.5c0.3-0.5,0.7-0.9,1-1.4c2.6-3.8,4.7-7.9,6.4-12.2c1.7-4.2,3-8.8,3.9-13.2c0.5-2.2,0.9-4.5,1.1-6.9
			C989.3,1182.8,989.4,1180.5,989.5,1178.2z"/>
		<path class="st21" d="M1017.5,1159.1c-1.5-0.3-2.8-0.9-4.2-1.4c-1.4-0.5-2.7-1-4.2-1.4l0,0l0,0l0,0l0,0c0.7-0.3,1.5-0.3,2.3-0.2
			c0.8,0.1,1.5,0.3,2.2,0.6c0.7,0.2,1.4,0.6,2,1S1016.9,1158.5,1017.5,1159.1z"/>
		<g>
			<path class="st21" d="M944,1165.1c-0.8,0.2-1.6,0.3-2.4,0.4c-0.8,0.1-1.6,0.2-2.3,0.5c-0.4,0.1-0.7,0.3-1,0.5l-1.1,0.5l-2.2,1.1
				c-0.7,0.3-1.5,0.8-2.3,1c-0.9,0.3-1.7,0.4-2.6,0.4c-0.9,0-1.7-0.3-2.5-0.4c-0.8-0.2-1.6-0.3-2.4-0.6c0.8,0,1.7,0,2.5,0.1
				s1.7,0.1,2.4,0.1c0.8,0,1.5-0.2,2.3-0.4c0.7-0.3,1.4-0.7,2.1-1l2.2-1.1l1.1-0.5c0.4-0.2,0.8-0.3,1.2-0.5c0.9-0.2,1.7-0.2,2.5-0.2
				C942.4,1165,943.2,1165,944,1165.1z"/>
		</g>
		<g>
			<path class="st16" d="M988.7,972.3c-1.4-0.5-2.4-1.7-2.7-3.1c-1.5-9.9-10.1-12.7-13.7-13.4c-1-0.2-1.6-0.3-1.6-0.3
				c-6.8-1.1-12-0.9-15.9,0c-6.4,1.5-9.4,4.9-10.8,7.1c-0.8,1.4-1,2.3-1,2.3s-2.6,8.3,1.7,9.6c0.5,0.2,1.2,0.2,2,0.1
				c0,0,5.4-2,5.3,0.8l-3.4,8c-0.4,1-0.4,2.1,0.2,3.1l1.2,2.1c0.4,0.7,0.7,1.6,0.7,2.5l0,3.3c0,0.7,0.2,1.5,0.7,2
				c0.5,0.5,1.1,0.9,1.9,1c1.4,0.2,2.8-0.7,3.3-2.2l0.2-0.5c0.2-0.9,1.2-1.6,2.2-1.4c1.8,0.3,4.5,1.5,4.4,5.2l0,0
				c0.4,0.7,1.3,3.4,1.8,4.8c0.2,0.5,0.3,1.1,0.2,1.7c0,3.5,0.7,6.4,1.4,8.5c0.4,1.1,1,2.1,1.8,3c1.3,1.6,3.3,2.6,5.4,2.9
				c0.8,0.1,1.5,0.1,2.2,0.1c1.7-0.1,3.4-0.6,4.5-1.2c0.3-0.1,0.6-0.3,0.8-0.5c1.4-1,2.5-2.4,3-4.1c0.6-2.4,2-5.6,3.1-7.9
				c0.6-1.4,1.4-2.7,2.4-3.9c0.6-0.8,1.3-1.7,1.8-2.7c1.4-2.3,2.4-4.9,3-6.4c0.4-1,0.6-2,0.8-3.1C997.4,977.4,992,973.5,988.7,972.3
				z"/>
			<path class="st23" d="M991.7,999L991.7,999c0.3-4.8-0.2-9.4-1.5-13.5c-0.7-2.3-2.3-4.7-4.6-6.9c-0.4-0.4-0.8-0.7-1.3-1.1
				c-0.8-0.7-1.7-1.4-2.2-2.4c-0.8-1.8-1.1-3.7-1.4-5.6c-0.4-2.6-0.8-5.3-2.6-7.8c-1.5-2.1-3.6-4.2-5.6-5.7l-0.6-0.1
				c0.1,0.1,0.1,0.1,0.2,0.2c2.4,1.8,4.6,4.3,5.8,5.9c1.8,2.4,2.2,5.1,2.6,7.6c0.3,1.9,0.6,3.9,1.4,5.7c0.5,1.1,1.3,1.8,2.2,2.5
				c0.4,0.4,0.8,0.7,1.2,1.1c2.3,2.2,3.8,4.6,4.5,6.9c1.3,4.1,1.8,8.8,1.4,13.6c0,0.1,0,0.1,0,0.3l0,0L991.7,999z M976.2,1019.5
				c4.1-6.1,6.5-15.1,5.8-22.4c-0.5-5.6-1.5-11.9-6.1-16.8c-0.4-0.4-0.7-0.7-1.1-1c-1.5-1.5-2.4-2.4-2.7-4.7
				c-0.1-0.4-0.1-0.9-0.2-1.2c-0.5-3.9-1.1-7.8-4.1-10.6c-3.2-3-7-5.3-11.7-6.9c-0.4-0.2-0.7-0.2-1.1-0.4l-0.5,0.1
				c0.1,0,0.1,0,0.2,0.1c0.4,0.1,0.9,0.2,1.3,0.4c4.6,1.7,8.4,3.9,11.5,6.9c2.9,2.7,3.4,6.6,4,10.4c0.1,0.4,0.1,0.8,0.2,1.2
				c0.4,2.4,1.3,3.4,2.8,4.9c0.3,0.3,0.6,0.7,1.1,1c2.5,2.7,5.2,6.8,6,16.6c0.6,7.3-1.8,16.3-5.9,22.4l-0.1,0.1L976.2,1019.5z
				 M968.6,1016.6C968.6,1016.5,968.6,1016.5,968.6,1016.6c4.4-8.2,5-18,1.5-27.6c-0.9-2.3-1.8-4.2-3.7-5.7
				c-0.4-0.2-0.7-0.5-1.1-0.7c-0.7-0.4-1.4-0.8-1.8-1.5c-0.6-1.2-0.4-2.9-0.3-4.5c0.1-1.2,0.2-2.2,0-3.1c-0.6-3.5-2.9-7.9-6.6-10
				c-3.4-1.8-7.5-2.2-11.6-1.4c-0.2,0.1-0.4,0.1-0.8,0.3l0,0.1l-0.2,0.4c0.1,0,0.1-0.1,0.1-0.1c0.4-0.1,0.7-0.2,1-0.3
				c4.2-0.9,8.2-0.5,11.4,1.4c3.6,2,5.9,6.3,6.5,9.8c0.1,0.9,0,2,0,3c-0.1,1.7-0.3,3.5,0.4,4.7c0.4,0.8,1.2,1.2,1.9,1.6
				c0.4,0.2,0.8,0.4,1.1,0.6c1.8,1.4,2.7,3.2,3.6,5.5c3.4,9.5,2.9,19.2-1.5,27.2L968.6,1016.6z"/>
		</g>
		<path class="st24" d="M1014.7,1074.4c0,3.6-0.4,7.2-0.7,10.8c-0.3,3.6-0.8,7.2-1.3,10.7s-1.2,7.1-1.9,10.7
			c-0.8,3.5-1.6,7.1-2.6,10.5c0.2-1.8,0.5-3.6,0.7-5.3l0.7-5.3c0.5-3.5,1-7.1,1.5-10.7c0.5-3.5,1.1-7.1,1.7-10.7l0.9-5.3
			C1014,1077.9,1014.3,1076.1,1014.7,1074.4z"/>
		<path class="st24" d="M941.8,1094.8c0.8-3.9,2.1-7.5,3.5-11.2c1.4-3.7,3-7.2,5-10.7c-0.8,3.9-2.1,7.5-3.5,11.2
			C945.3,1087.8,943.7,1091.4,941.8,1094.8z"/>
	</g>
</g>
</svg>
