<?xml version="1.0" encoding="utf-8"?>
<!-- Generator: Adobe Illustrator 27.0.0, SVG Export Plug-In . SVG Version: 6.00 Build 0)  -->
<!DOCTYPE svg PUBLIC "-//W3C//DTD SVG 1.1//EN" "http://www.w3.org/Graphics/SVG/1.1/DTD/svg11.dtd" [
	<!ENTITY ns_extend "http://ns.adobe.com/Extensibility/1.0/">
	<!ENTITY ns_ai "http://ns.adobe.com/AdobeIllustrator/10.0/">
	<!ENTITY ns_graphs "http://ns.adobe.com/Graphs/1.0/">
	<!ENTITY ns_vars "http://ns.adobe.com/Variables/1.0/">
	<!ENTITY ns_imrep "http://ns.adobe.com/ImageReplacement/1.0/">
	<!ENTITY ns_sfw "http://ns.adobe.com/SaveForWeb/1.0/">
	<!ENTITY ns_custom "http://ns.adobe.com/GenericCustomNamespace/1.0/">
	<!ENTITY ns_adobe_xpath "http://ns.adobe.com/XPath/1.0/">
]>
<!-- <svg version="1.1" id="Слой_1"

	 xmlns="http://www.w3.org/2000/svg" 
	 xmlns:xlink="http://www.w3.org/1999/xlink" 
	 x="0px" y="0px" viewBox="0 0 2049.4 1422.9"
	 style="enable-background:new 0 0 2049.4 1422.9;" xml:space="preserve"> -->

<svg version="1.1" id="Слой_1" 

	 xmlns="http://www.w3.org/2000/svg" 
	 xmlns:xlink="http://www.w3.org/1999/xlink"
	  x="0px" y="0px" viewBox="0 0 2049.4 1422.9"
	 style="enable-background:new 0 0 2049.4 1422.9;" xml:space="preserve">

	

<style type="text/css">
	.st0{fill:#DDE8FD;}
	.st1{fill:#93B3F4;}
	.st2{fill:#FFFFFF;}
	.st3{fill:#A0A0A0;}
	.st4{fill:#3662C1;}
	.st5{opacity:0.19;fill:url(#SVGID_1_);}
	.st6{opacity:0.19;fill:url(#SVGID_00000026865504101072835580000001599543183979981245_);}
	.st7{fill:#E8E8E8;}
	.st8{opacity:0.11;}
	.st9{fill:#3A49CD;}
	.st10{fill:#FA7269;}
	.st11{fill:#D3D3D3;}
	.st12{fill:#C5C5C5;}
	.st13{fill:#7E7E7E;}
	.st14{fill:#9C9C9C;}
	.st15{fill:#959595;}
	.st16{fill:#B8B8B8;}
	.st17{fill:#A2A2A2;}
	.st18{fill:#676767;}
	.st19{fill:#232323;}
	.st20{fill:#0C0C0C;}
	.st21{fill:#FCC3A6;}
	.st22{fill:#1B3585;}
	.st23{fill:#67A1EF;}
	.st24{fill:#3452A3;}
	.st25{fill:#418BEF;}
	.st26{fill:#F2B698;}
	.st27{fill:#233772;}
	.st28{fill:#204094;}
	.st29{fill:#D93843;}
	.st30{fill:#E8F2FF;}
	.st31{fill:#034E6E;}
	.st32{fill:#EC463A;}
	.st33{opacity:0.15;fill:#FFFFFF;}
	.st34{opacity:0.24;fill:#C7DCFF;}
	.st35{opacity:0.7;fill:#FFFFFF;}
	.st36{fill:#BAC1C9;}
	.st37{fill:none;stroke:#000000;stroke-width:0.75;stroke-linecap:round;stroke-miterlimit:10;}
</style>
<metadata>
	<sfw  xmlns="&ns_sfw;">
		<slices></slices>
		<sliceSourceBounds  bottomLeftOrigin="true" height="1229.3" width="1973.5" x="27.7" y="4.5"></sliceSourceBounds>
	</sfw>
</metadata>
<g>
	<path class="st0" d="M189,1384.1C37.9,1258.6-0.1,1051.1,46.2,873.8c57.8-221.4,285-378.9,538.6-355.7
		c-11.5-128.6,45.8-249.1,142.8-300.6c133.9-71,335.7-6.7,420.9,172.9c283.4-56.3,572.4,59.8,731.5,293.1
		c144.8,212.4,160.8,490.6,42.6,724c-566.3,0-1134.6,11-1700.9,11C204.1,1408.5,201.7,1393.8,189,1384.1z"/>
	<g>
		<path class="st1" d="M1583.1,923.4c0,0-53.6-34.2-25.4-74.9c0,0,22.2-24.7,44.7-30.1c0,0-15.4,62.1-3.7,64.3
			c11.7,2.1,12.2-70.5,12.2-70.5s60-24.8,82.8-21.2c0,0-39.8,59.3-27.9,58.5s56.1-60.5,56.1-60.5s60.5-7.6,68.1,28.4
			c7.5,36-9,52.9-17.9,54.6c-9,1.7-65.8-2.3-64.8,5.1s38.8,21.5,60.6,16.1c0,0-27,57.1-57.9,52.3c-30.9-4.7-39.4-24.5-58.5-27.1
			c-19.2-2.6-33.5,1.8-24.1,7.5c9.3,5.8,42.1,4.1,56.8,18.2c14.7,14.1,26.9,22.9-2.3,27.2c-29.2,4.3-80.7-2.4-89.8-25.2
			C1583.1,923.4,1583.1,923.4,1583.1,923.4z"/>
		<path class="st2" d="M1438.6,774.8c0,0-82.4-18.1-65.7-81.6c0,0,16.3-40.8,42-57.9c0,0,9.1,84.4,24.8,81.7
			c15.6-2.7-17-93.3-17-93.3s63.4-58.2,93.3-64.2c0,0-22.4,91.9-7.9,85.4s42.2-101,42.2-101s71.8-37.2,97.7,4.3
			c25.9,41.3,13,69.9,2.6,76.1c-10.4,6.2-83,27.2-78.3,36c4.7,8.8,58.1,9.1,82.8-7.6c0,0-7.5,83.3-48.2,91.6
			c-40.6,8.2-60.2-12.5-85.2-7c-24.9,5.5-40.8,17.5-26.6,20.4c14.2,2.9,54.2-14.1,79.1-3.3c24.8,10.8,43.9,16.2,9.6,34.9
			s-101.5,33.9-123.2,9.7C1438.6,774.8,1438.6,774.8,1438.6,774.8z"/>
	</g>
	<path class="st3" d="M1173.7,1342.7v-159.4H940.3v159.4l-27.5,6.5c-5.7,1.4-9.8,6.5-9.8,12.4v6.8h154h154v-6.8
		c0-5.9-4.1-11-9.8-12.4L1173.7,1342.7z"/>
	<path class="st4" d="M1538.5,1182.6C1538.5,1182.6,1538.6,1182.6,1538.5,1182.6c0.3-0.3,0.4-0.5,0.6-0.7c0,0,0.1-0.1,0.1-0.1
		c0.2-0.2,0.4-0.4,0.5-0.7c0,0,0.1-0.1,0.1-0.1c0.2-0.2,0.3-0.4,0.5-0.6c0-0.1,0.1-0.1,0.1-0.2c0.2-0.2,0.3-0.4,0.5-0.6
		c0-0.1,0.1-0.1,0.1-0.2c0.2-0.2,0.3-0.4,0.5-0.6c0-0.1,0.1-0.1,0.1-0.2c0.1-0.2,0.3-0.4,0.4-0.6c0-0.1,0.1-0.1,0.1-0.2
		c0.1-0.2,0.3-0.4,0.4-0.7c0-0.1,0.1-0.1,0.1-0.2c0.1-0.2,0.3-0.4,0.4-0.7c0-0.1,0.1-0.1,0.1-0.2c0.1-0.2,0.3-0.5,0.4-0.7
		c0-0.1,0.1-0.1,0.1-0.2c0.1-0.2,0.3-0.5,0.4-0.7c0,0,0-0.1,0.1-0.1c0.1-0.3,0.3-0.5,0.4-0.8c0,0,0,0,0,0c0.6-1.2,1.1-2.3,1.6-3.5
		c0,0,0-0.1,0.1-0.1c0.1-0.2,0.2-0.5,0.3-0.7c0-0.1,0.1-0.2,0.1-0.3c0.1-0.2,0.1-0.4,0.2-0.6c0-0.1,0.1-0.2,0.1-0.4
		c0.1-0.2,0.1-0.4,0.2-0.6c0-0.1,0.1-0.3,0.1-0.4c0.1-0.2,0.1-0.4,0.2-0.6c0-0.2,0.1-0.3,0.1-0.5c0.1-0.2,0.1-0.4,0.2-0.6
		c0-0.2,0.1-0.3,0.1-0.5c0-0.2,0.1-0.4,0.1-0.5c0-0.2,0.1-0.3,0.1-0.5c0-0.2,0.1-0.4,0.1-0.5c0-0.2,0.1-0.3,0.1-0.5
		c0-0.2,0.1-0.4,0.1-0.5c0-0.2,0.1-0.4,0.1-0.5c0-0.2,0.1-0.3,0.1-0.5c0-0.2,0.1-0.4,0.1-0.5c0-0.2,0.1-0.3,0.1-0.5
		c0-0.2,0.1-0.4,0.1-0.6c0-0.2,0-0.3,0.1-0.5c0-0.2,0-0.4,0.1-0.6c0-0.2,0-0.3,0.1-0.5c0-0.2,0-0.4,0.1-0.6c0-0.2,0-0.3,0-0.5
		c0-0.2,0-0.4,0-0.7c0-0.1,0-0.3,0-0.4c0-0.2,0-0.5,0-0.7c0-0.1,0-0.3,0-0.4c0-0.4,0-0.7,0-1.1V597.8c0-11.5-4.4-22-11.6-29.9l0,0
		c0,0,0,0,0,0c-0.2-0.3-0.5-0.5-0.8-0.8c0,0,0,0-0.1-0.1c-0.2-0.2-0.5-0.5-0.7-0.7c0,0-0.1-0.1-0.1-0.1c-0.2-0.2-0.5-0.5-0.7-0.7
		c0,0-0.1-0.1-0.1-0.1c-0.2-0.2-0.5-0.4-0.7-0.6c0,0-0.1-0.1-0.1-0.1c-0.2-0.2-0.5-0.4-0.7-0.6c-0.1,0-0.1-0.1-0.2-0.1
		c-0.2-0.2-0.5-0.4-0.7-0.6c-0.1,0-0.1-0.1-0.2-0.1c-0.2-0.2-0.5-0.4-0.7-0.6c-0.1,0-0.1-0.1-0.2-0.1c-0.2-0.2-0.5-0.4-0.7-0.5
		c-0.1,0-0.1-0.1-0.2-0.1c-0.2-0.2-0.5-0.4-0.7-0.5c-0.1,0-0.1-0.1-0.2-0.1c-0.3-0.2-0.5-0.4-0.8-0.5c0,0-0.1-0.1-0.1-0.1
		c-0.3-0.2-0.6-0.4-0.8-0.5c0,0-0.1,0-0.1-0.1c-0.3-0.2-0.6-0.4-0.9-0.6c0,0,0,0,0,0c-1.3-0.8-2.6-1.4-4-2.1c0,0-0.1,0-0.1,0
		c-0.3-0.1-0.6-0.3-0.9-0.4c-0.1,0-0.2-0.1-0.2-0.1c-0.3-0.1-0.5-0.2-0.8-0.3c-0.1,0-0.2-0.1-0.3-0.1c-0.2-0.1-0.5-0.2-0.7-0.3
		c-0.1,0-0.2-0.1-0.4-0.1c-0.2-0.1-0.5-0.2-0.7-0.2c-0.1,0-0.3-0.1-0.4-0.1c-0.2-0.1-0.4-0.1-0.7-0.2c-0.1,0-0.3-0.1-0.4-0.1
		c-0.2-0.1-0.4-0.1-0.7-0.2c-0.1,0-0.3-0.1-0.4-0.1c-0.2-0.1-0.4-0.1-0.7-0.2c-0.2,0-0.3-0.1-0.5-0.1c-0.2-0.1-0.4-0.1-0.6-0.1
		c-0.2,0-0.3-0.1-0.5-0.1c-0.2,0-0.4-0.1-0.6-0.1c-0.2,0-0.3-0.1-0.5-0.1c-0.2,0-0.4-0.1-0.6-0.1c-0.2,0-0.3-0.1-0.5-0.1
		c-0.2,0-0.4-0.1-0.6-0.1c-0.2,0-0.3,0-0.5-0.1c-0.2,0-0.4-0.1-0.7-0.1c-0.2,0-0.3,0-0.5-0.1c-0.2,0-0.5,0-0.7-0.1
		c-0.2,0-0.3,0-0.5,0c-0.2,0-0.5,0-0.7,0c-0.2,0-0.3,0-0.5,0c-0.3,0-0.5,0-0.8,0c-0.1,0-0.3,0-0.4,0c-0.4,0-0.8,0-1.2,0l0,0H608.7
		c-0.4,0-0.8,0-1.2,0c-0.1,0-0.3,0-0.4,0c-0.3,0-0.5,0-0.8,0c-0.2,0-0.3,0-0.5,0c-0.2,0-0.5,0-0.7,0c-0.2,0-0.3,0-0.5,0
		c-0.2,0-0.5,0-0.7,0.1c-0.2,0-0.3,0-0.5,0.1c-0.2,0-0.4,0.1-0.7,0.1c-0.2,0-0.3,0-0.5,0.1c-0.2,0-0.4,0.1-0.6,0.1
		c-0.2,0-0.3,0.1-0.5,0.1c-0.2,0-0.4,0.1-0.6,0.1c-0.2,0-0.3,0.1-0.5,0.1c-0.2,0-0.4,0.1-0.6,0.1c-0.2,0-0.3,0.1-0.5,0.1
		c-0.2,0-0.4,0.1-0.6,0.1c-0.2,0-0.3,0.1-0.5,0.1c-0.2,0.1-0.4,0.1-0.6,0.2c-0.1,0-0.3,0.1-0.4,0.1c-0.2,0.1-0.4,0.1-0.7,0.2
		c-0.1,0-0.3,0.1-0.4,0.1c-0.2,0.1-0.4,0.1-0.7,0.2c-0.1,0-0.3,0.1-0.4,0.1c-0.2,0.1-0.5,0.2-0.7,0.2c-0.1,0-0.2,0.1-0.4,0.1
		c-0.2,0.1-0.5,0.2-0.7,0.3c-0.1,0-0.2,0.1-0.3,0.1c-0.3,0.1-0.5,0.2-0.8,0.3c-0.1,0-0.2,0.1-0.2,0.1c-0.3,0.1-0.6,0.3-0.9,0.4
		c0,0-0.1,0-0.1,0c-1.4,0.6-2.7,1.3-4,2.1c0,0,0,0,0,0c-0.3,0.2-0.6,0.4-0.9,0.6c0,0-0.1,0-0.1,0.1c-0.3,0.2-0.6,0.3-0.8,0.5
		c0,0-0.1,0.1-0.1,0.1c-0.3,0.2-0.5,0.3-0.8,0.5c-0.1,0-0.1,0.1-0.2,0.1c-0.2,0.2-0.5,0.3-0.7,0.5c-0.1,0-0.1,0.1-0.2,0.1
		c-0.2,0.2-0.5,0.4-0.7,0.5c-0.1,0-0.1,0.1-0.2,0.1c-0.2,0.2-0.5,0.4-0.7,0.6c-0.1,0-0.1,0.1-0.2,0.1c-0.2,0.2-0.5,0.4-0.7,0.6
		c-0.1,0-0.1,0.1-0.2,0.1c-0.2,0.2-0.5,0.4-0.7,0.6c0,0-0.1,0.1-0.1,0.1c-0.2,0.2-0.5,0.4-0.7,0.6c0,0-0.1,0.1-0.1,0.1
		c-0.2,0.2-0.5,0.4-0.7,0.7c0,0-0.1,0.1-0.1,0.1c-0.2,0.2-0.5,0.5-0.7,0.7c0,0,0,0-0.1,0.1c-0.3,0.3-0.5,0.5-0.8,0.8c0,0,0,0,0,0
		l0,0c-7.2,7.9-11.7,18.4-11.7,29.9v555.6c0,0.4,0,0.7,0,1.1c0,0.1,0,0.3,0,0.4c0,0.2,0,0.5,0,0.7c0,0.2,0,0.3,0,0.5
		c0,0.2,0,0.4,0,0.6c0,0.2,0,0.3,0,0.5c0,0.2,0,0.4,0.1,0.6c0,0.2,0,0.3,0.1,0.5c0,0.2,0,0.4,0.1,0.6c0,0.2,0,0.3,0.1,0.5
		c0,0.2,0.1,0.4,0.1,0.6c0,0.2,0.1,0.3,0.1,0.5c0,0.2,0.1,0.4,0.1,0.5c0,0.2,0.1,0.3,0.1,0.5c0,0.2,0.1,0.4,0.1,0.5
		c0,0.2,0.1,0.4,0.1,0.5c0,0.2,0.1,0.3,0.1,0.5c0,0.2,0.1,0.4,0.1,0.5c0,0.2,0.1,0.3,0.1,0.5c0,0.2,0.1,0.4,0.1,0.5
		c0,0.2,0.1,0.3,0.1,0.5c0.1,0.2,0.1,0.4,0.2,0.6c0,0.2,0.1,0.3,0.1,0.4c0.1,0.2,0.1,0.4,0.2,0.6c0,0.1,0.1,0.3,0.1,0.4
		c0.1,0.2,0.1,0.4,0.2,0.6c0,0.1,0.1,0.3,0.1,0.4c0.1,0.2,0.1,0.4,0.2,0.6c0,0.1,0.1,0.2,0.1,0.3c0.1,0.2,0.2,0.5,0.3,0.7
		c0,0,0,0.1,0.1,0.1c0.5,1.2,1,2.4,1.6,3.6c0,0,0,0,0,0c0.1,0.3,0.3,0.5,0.4,0.8c0,0,0,0.1,0.1,0.1c0.1,0.2,0.3,0.5,0.4,0.7
		c0,0.1,0.1,0.1,0.1,0.2c0.1,0.2,0.3,0.5,0.4,0.7c0,0.1,0.1,0.1,0.1,0.2c0.1,0.2,0.3,0.4,0.4,0.7c0,0.1,0.1,0.1,0.1,0.2
		c0.1,0.2,0.3,0.4,0.4,0.7c0,0.1,0.1,0.1,0.1,0.2c0.1,0.2,0.3,0.4,0.4,0.6c0,0.1,0.1,0.1,0.1,0.2c0.2,0.2,0.3,0.4,0.5,0.6
		c0,0.1,0.1,0.1,0.1,0.2c0.2,0.2,0.3,0.4,0.5,0.6c0,0.1,0.1,0.1,0.1,0.2c0.2,0.2,0.3,0.4,0.5,0.6c0,0,0.1,0.1,0.1,0.1
		c0.2,0.2,0.4,0.4,0.5,0.7c0,0,0.1,0.1,0.1,0.1c0.2,0.2,0.4,0.4,0.6,0.7c0,0,0,0,0.1,0.1c0.4,0.5,0.9,1,1.4,1.5c0,0,0,0,0.1,0.1
		c0.2,0.2,0.5,0.5,0.7,0.7c0,0,0.1,0.1,0.1,0.1c0.2,0.2,0.5,0.5,0.7,0.7c0,0,0.1,0.1,0.1,0.1c0.2,0.2,0.5,0.4,0.7,0.6
		c0,0,0.1,0.1,0.1,0.1c0.2,0.2,0.5,0.4,0.7,0.6c0.1,0,0.1,0.1,0.2,0.1c0.2,0.2,0.5,0.4,0.7,0.6c0.1,0,0.1,0.1,0.2,0.1
		c0.2,0.2,0.5,0.4,0.7,0.6c0.1,0,0.1,0.1,0.2,0.1c0.2,0.2,0.5,0.4,0.7,0.5c0.1,0,0.1,0.1,0.2,0.1c0.2,0.2,0.5,0.4,0.8,0.5
		c0.1,0,0.1,0.1,0.2,0.1c0.3,0.2,0.5,0.4,0.8,0.5c0,0,0.1,0.1,0.1,0.1c0.3,0.2,0.6,0.4,0.8,0.5c0,0,0.1,0,0.1,0.1
		c0.3,0.2,0.6,0.4,0.9,0.6c0,0,0,0,0,0c1.3,0.8,2.6,1.4,4,2.1c0,0,0.1,0,0.1,0c0.3,0.1,0.6,0.3,0.9,0.4c0.1,0,0.2,0.1,0.2,0.1
		c0.3,0.1,0.5,0.2,0.8,0.3c0.1,0,0.2,0.1,0.3,0.1c0.2,0.1,0.5,0.2,0.7,0.3c0.1,0,0.2,0.1,0.4,0.1c0.2,0.1,0.5,0.2,0.7,0.2
		c0.1,0,0.3,0.1,0.4,0.1c0.2,0.1,0.4,0.1,0.7,0.2c0.1,0,0.3,0.1,0.4,0.1c0.2,0.1,0.4,0.1,0.7,0.2c0.1,0,0.3,0.1,0.4,0.1
		c0.2,0.1,0.4,0.1,0.7,0.2c0.2,0,0.3,0.1,0.5,0.1c0.2,0.1,0.4,0.1,0.6,0.1c0.2,0,0.3,0.1,0.5,0.1c0.2,0,0.4,0.1,0.6,0.1
		c0.2,0,0.3,0.1,0.5,0.1c0.2,0,0.4,0.1,0.6,0.1c0.2,0,0.3,0.1,0.5,0.1c0.2,0,0.4,0.1,0.6,0.1c0.2,0,0.3,0,0.5,0.1
		c0.2,0,0.4,0.1,0.7,0.1c0.2,0,0.3,0,0.5,0.1c0.2,0,0.4,0,0.7,0.1c0.2,0,0.3,0,0.5,0c0.2,0,0.5,0,0.7,0c0.2,0,0.3,0,0.5,0
		c0.3,0,0.5,0,0.8,0c0.1,0,0.3,0,0.4,0c0.4,0,0.8,0,1.2,0h896.5c0.4,0,0.8,0,1.2,0c0.1,0,0.3,0,0.4,0c0.3,0,0.5,0,0.8,0
		c0.2,0,0.3,0,0.5,0c0.2,0,0.5,0,0.7,0c0.2,0,0.3,0,0.5,0c0.2,0,0.5,0,0.7-0.1c0.2,0,0.3,0,0.5-0.1c0.2,0,0.4-0.1,0.7-0.1
		c0.2,0,0.3,0,0.5-0.1c0.2,0,0.4-0.1,0.6-0.1c0.2,0,0.3-0.1,0.5-0.1c0.2,0,0.4-0.1,0.6-0.1c0.2,0,0.3-0.1,0.5-0.1
		c0.2,0,0.4-0.1,0.6-0.1c0.2,0,0.3-0.1,0.5-0.1c0.2,0,0.4-0.1,0.6-0.1c0.2,0,0.3-0.1,0.5-0.1c0.2-0.1,0.4-0.1,0.6-0.2
		c0.1,0,0.3-0.1,0.4-0.1c0.2-0.1,0.4-0.1,0.7-0.2c0.1,0,0.3-0.1,0.4-0.1c0.2-0.1,0.4-0.1,0.7-0.2c0.1,0,0.3-0.1,0.4-0.1
		c0.2-0.1,0.5-0.2,0.7-0.2c0.1,0,0.2-0.1,0.4-0.1c0.2-0.1,0.5-0.2,0.7-0.3c0.1,0,0.2-0.1,0.3-0.1c0.3-0.1,0.5-0.2,0.8-0.3
		c0.1,0,0.2-0.1,0.2-0.1c0.3-0.1,0.6-0.3,0.9-0.4c0,0,0.1,0,0.1,0c1.4-0.6,2.7-1.3,4-2.1c0,0,0,0,0,0c0.3-0.2,0.6-0.4,0.9-0.6
		c0,0,0.1,0,0.1-0.1c0.3-0.2,0.6-0.4,0.8-0.5c0,0,0.1-0.1,0.1-0.1c0.3-0.2,0.5-0.3,0.8-0.5c0.1,0,0.1-0.1,0.2-0.1
		c0.3-0.2,0.5-0.4,0.8-0.5c0.1,0,0.1-0.1,0.2-0.1c0.2-0.2,0.5-0.4,0.7-0.5c0.1,0,0.1-0.1,0.2-0.1c0.2-0.2,0.5-0.4,0.7-0.6
		c0.1,0,0.1-0.1,0.2-0.1c0.2-0.2,0.5-0.4,0.7-0.6c0.1,0,0.1-0.1,0.2-0.1c0.2-0.2,0.5-0.4,0.7-0.6c0,0,0.1-0.1,0.1-0.1
		c0.2-0.2,0.5-0.4,0.7-0.6c0,0,0.1-0.1,0.1-0.1c0.2-0.2,0.5-0.4,0.7-0.7c0,0,0.1-0.1,0.1-0.1c0.2-0.2,0.5-0.5,0.7-0.7
		c0,0,0,0,0.1-0.1C1537.6,1183.6,1538.1,1183.1,1538.5,1182.6z"/>
	<path class="st2" d="M1505.3,582.7L1505.3,582.7H608.7c-0.8,0-1.5,0.1-2.3,0.2c-5.2,0.8-9.6,4.3-11.6,9c-0.1,0.2-0.2,0.5-0.3,0.7
		c-0.6,1.6-0.9,3.3-0.9,5.2v0v34.5v486.2v0.4v34v0.4c0,8.3,6.7,15,15,15h896.5c8.3,0,15-6.7,15-15v-34.5V597.8
		C1520.3,589.5,1513.6,582.7,1505.3,582.7z"/>
	<linearGradient id="SVGID_1_" gradientUnits="userSpaceOnUse" x1="1056.9987" y1="1180.4857" x2="1056.9987" y2="1242.1659">
		<stop  offset="0" style="stop-color:#000000"/>
		<stop  offset="1" style="stop-color:#FFFFFF"/>
	</linearGradient>
	<rect x="940.3" y="1197.6" class="st5" width="233.3" height="61.5"/>
	
		<linearGradient id="SVGID_00000024687407914792862180000007424214325169789318_" gradientUnits="userSpaceOnUse" x1="991.0013" y1="1367.0316" x2="991.0013" y2="1388.2928" gradientTransform="matrix(-1 0 0 -1 2048 2715.6899)">
		<stop  offset="0" style="stop-color:#000000"/>
		<stop  offset="1" style="stop-color:#FFFFFF"/>
	</linearGradient>
	<polygon style="opacity:0.19;fill:url(#SVGID_00000024687407914792862180000007424214325169789318_);" points="940.3,1321.5 
		1173.7,1321.5 1173.7,1342.7 940.3,1342.7 	"/>
	<g>
		<path class="st2" d="M780.2,881.4c0.3,0,0.4,0.2,0.4,0.4v1.9c0,0.2-0.2,0.4-0.4,0.4H767c-0.3,0-0.4-0.2-0.4-0.4v-29
			c0-0.3,0.2-0.4,0.4-0.4h2.2c0.3,0,0.4,0.2,0.4,0.4v26.6H780.2z"/>
		<path class="st2" d="M793.3,864.7c5.9,0,9.9,4,9.9,9.9c0,5.9-4,10-9.9,10c-5.9,0-9.9-4-9.9-10
			C783.5,868.7,787.5,864.7,793.3,864.7z M793.3,881.8c4.3,0,7.2-2.9,7.2-7.2c0-4.3-2.9-7.2-7.2-7.2c-4.3,0-7.2,2.9-7.2,7.2
			C786.2,878.9,789,881.8,793.3,881.8z"/>
		<path class="st2" d="M824.3,865.5c0-0.3,0.3-0.4,0.5-0.4h1.4c0.3,0,0.4,0.2,0.4,0.4v18.2c0,0.3-0.2,0.4-0.4,0.4h-1.4
			c-0.2,0-0.4-0.2-0.4-0.4l-0.5-3.2c-1.5,2.5-4.2,4-7.6,4c-5.7,0-9.6-4-9.6-10c0-5.9,3.9-9.9,9.6-9.9c3.5,0,6.1,1.5,7.7,3.9
			L824.3,865.5z M816.4,881.8c4.3,0,7.3-2.9,7.4-7.2c-0.1-4.3-3-7.2-7.4-7.2c-4.3,0-7.2,2.9-7.2,7.2
			C809.2,878.9,812.1,881.8,816.4,881.8z"/>
		<path class="st2" d="M831.3,874.6c0-5.9,3.9-9.9,9.6-9.9c3.5,0,6.1,1.5,7.6,3.9v-15.1c0-0.2,0.2-0.4,0.4-0.4h1.9
			c0.3,0,0.4,0.2,0.4,0.4v30.2c0,0.2-0.2,0.4-0.4,0.4h-1.3c-0.2,0-0.4-0.2-0.5-0.4l-0.6-3.2c-1.5,2.5-4.2,4-7.7,4
			C835.1,884.6,831.3,880.5,831.3,874.6z M841.1,867.4c-4.3,0-7.2,2.9-7.2,7.2c0,4.3,2.9,7.2,7.2,7.2c4.3,0,7.4-2.9,7.4-7.2
			C848.5,870.3,845.4,867.4,841.1,867.4z"/>
		<path class="st2" d="M859.1,855.7c1.3,0,2.1,0.8,2.1,2.1c0,1.3-0.8,2.2-2.1,2.2c-1.3,0-2.2-0.9-2.2-2.2
			C856.9,856.5,857.8,855.7,859.1,855.7z M860.4,883.8c0,0.2-0.1,0.4-0.4,0.4h-1.9c-0.3,0-0.4-0.2-0.4-0.4v-18.2
			c0-0.2,0.2-0.4,0.4-0.4h2c0.2,0,0.4,0.2,0.4,0.4V883.8z"/>
		<path class="st2" d="M866.8,865.5c0-0.2,0.2-0.4,0.4-0.4h1.3c0.3,0,0.4,0.2,0.5,0.4l0.5,3.4c1.2-2.5,3.5-4.2,6.9-4.2
			c4.5,0,7.6,2.6,7.6,8.5v10.6c0,0.2-0.2,0.4-0.4,0.4h-2c-0.3,0-0.4-0.2-0.4-0.4v-10.6c0-4.2-2.1-5.7-5.1-5.7
			c-3.7,0-6.3,3.5-6.5,7.6v8.8c0,0.3-0.2,0.4-0.4,0.4h-1.9c-0.3,0-0.4-0.2-0.4-0.4V865.5z"/>
		<path class="st2" d="M905.9,868.7l0.6-3.2c0-0.2,0.3-0.4,0.5-0.4h1.3c0.3,0,0.4,0.2,0.4,0.4l0,18.9c0,6.1-4.2,9.9-10.2,9.9
			c-2.7,0-5.3-0.7-7.4-2c-0.2-0.1-0.3-0.4-0.2-0.6l0.9-1.7c0.1-0.1,0.2-0.2,0.3-0.2c0.1,0,0.2,0,0.3,0.1c1.7,1.1,3.5,1.6,6.1,1.7
			c4.6,0,7.3-2.6,7.4-7v-4c-1.5,2.5-4.2,4-7.7,4c-5.7,0-9.6-4-9.6-9.9c0-5.9,3.9-10,9.6-10C901.7,864.7,904.3,866.2,905.9,868.7z
			 M898.5,881.9c4.3,0,7.4-2.9,7.4-7.2c0-4.3-3.1-7.2-7.4-7.2s-7.2,2.9-7.2,7.2C891.3,879,894.2,881.9,898.5,881.9z"/>
		<path class="st2" d="M917.4,879.8c1.4,0,2.4,0.9,2.4,2.4c0,1.4-0.9,2.4-2.4,2.4c-1.5,0-2.4-1-2.4-2.4
			C915,880.7,915.9,879.8,917.4,879.8z"/>
		<path class="st2" d="M928.7,879.8c1.4,0,2.4,0.9,2.4,2.4c0,1.4-0.9,2.4-2.4,2.4c-1.5,0-2.4-1-2.4-2.4
			C926.3,880.7,927.2,879.8,928.7,879.8z"/>
		<path class="st2" d="M940,879.8c1.4,0,2.4,0.9,2.4,2.4c0,1.4-0.9,2.4-2.4,2.4c-1.5,0-2.4-1-2.4-2.4
			C937.5,880.7,938.5,879.8,940,879.8z"/>
		<path class="st2" d="M951.2,879.8c1.4,0,2.4,0.9,2.4,2.4c0,1.4-0.9,2.4-2.4,2.4c-1.5,0-2.4-1-2.4-2.4
			C948.8,880.7,949.8,879.8,951.2,879.8z"/>
		<path class="st2" d="M962.5,879.8c1.4,0,2.4,0.9,2.4,2.4c0,1.4-0.9,2.4-2.4,2.4c-1.5,0-2.4-1-2.4-2.4
			C960.1,880.7,961.1,879.8,962.5,879.8z"/>
	</g>
	
		<ellipse transform="matrix(0.2298 -0.9732 0.9732 0.2298 496.5275 1932.3124)" class="st7" cx="1469.1" cy="652.5" rx="15.3" ry="15.3"/>
	
		<ellipse transform="matrix(0.4495 -0.8933 0.8933 0.4495 -203.5564 891.3356)" class="st7" cx="621.4" cy="610.8" rx="9.4" ry="9.4"/>
	
		<ellipse transform="matrix(0.7071 -0.7071 0.7071 0.7071 -237.8279 647.4883)" class="st7" cx="662.7" cy="610.8" rx="9.4" ry="9.4"/>
	
		<ellipse transform="matrix(0.7071 -0.7071 0.7071 0.7071 -225.747 676.6542)" class="st7" cx="703.9" cy="610.8" rx="9.4" ry="9.4"/>
	<path class="st7" d="M1419.9,637.2H634.3c-8.5,0-15.3,6.9-15.3,15.3l0,0c0,8.5,6.9,15.3,15.3,15.3h785.5c8.5,0,15.3-6.9,15.3-15.3
		l0,0C1435.2,644,1428.3,637.2,1419.9,637.2z"/>
	<path class="st2" d="M1565,465.2c-1.1,0-2.3,0-3.4,0.1c-9.2-28.4-35.9-49-67.4-49c-24.3,0-45.8,12.3-58.6,31
		c-4.9-1.4-10-2.1-15.3-2.1c-26.4,0-48.5,18.1-54.6,42.6c-2.3-0.5-4.7-0.7-7.2-0.7c-19.5,0-35.4,15.8-35.4,35.4s15.8,35.4,35.4,35.4
		H1565c25.6,0,46.4-20.8,46.4-46.4C1611.4,486,1590.6,465.2,1565,465.2z"/>
	<path class="st2" d="M418.6,456.2c0.9,0,1.8,0,2.8,0.1c7.5-23.2,29.3-39.9,54.9-39.9c19.9,0,37.4,10,47.8,25.3
		c4-1.1,8.1-1.7,12.5-1.7c21.5,0,39.6,14.8,44.6,34.7c1.9-0.4,3.8-0.6,5.8-0.6c15.9,0,28.9,12.9,28.9,28.9
		c0,15.9-12.9,28.9-28.9,28.9H418.6c-20.9,0-37.8-16.9-37.8-37.8C380.8,473.1,397.7,456.2,418.6,456.2z"/>
	<g>
		<ellipse class="st8" cx="1667.3" cy="1400.4" rx="80.6" ry="4.7"/>
		<path class="st9" d="M1667.3,1255.3h-61.2c-2.1,0-3.9,1.8-3.8,3.9l3.9,111.4c0.6,16.7,14.3,29.9,30.9,29.9h30.1h30.1
			c16.7,0,30.3-13.2,30.9-29.9l3.9-111.4c0.1-2.1-1.6-3.9-3.8-3.9H1667.3z"/>
		<path class="st10" d="M1626,1255.3c0,0-53.3-139.7-99.6-64.3c0,0,13.4-58,56.6-32.3c38.4,22.8,76.4,96.6,76.4,96.6H1626z"/>
		<path class="st10" d="M1552.7,1062c0,0,84.4,68.8,87.2,193.2h32.8C1672.7,1255.3,1633.2,1086.6,1552.7,1062z"/>
		<path class="st10" d="M1704.9,1255.3c0,0,5.3-130.1,61.2-77.4c0,0-32.5-55.8-61.2-19.2s-32.5,96.6-32.5,96.6H1704.9z"/>
		<path class="st10" d="M1739.1,1024.3c0,0-41.3-5-61.1,52.1c-27.2,78.7-27,178.9-27,178.9h31.5
			C1682.6,1255.3,1672.3,1024.9,1739.1,1024.3z"/>
		<path class="st10" d="M1648.5,1255.3c0,0,2.6-207.9-24.4-236c0,0,43.2-3.5,54.6,236H1648.5z"/>
		<path class="st8" d="M1637.2,1400.4h30.1h30.1c16.7,0,30.3-13.2,30.9-29.9l3.9-111.4c0.1-2.1-1.6-3.9-3.8-3.9h-5.1
			c0,0,0.9,88.3-30.5,111.9c-24.7,18.5-64.7,20.6-80.7,20.6C1617.8,1395.4,1626.9,1400.4,1637.2,1400.4z"/>
	</g>
	<g>
		<g>
			<g>
				<g>
					<path class="st11" d="M956.6,772c0,24.9-9,47.7-23.8,65.3c-1.9,2.2-3.8,4.4-5.9,6.4c-3.3,3.3-6.8,6.4-10.6,9.2
						c-1.8,1.4-3.7,2.7-5.7,4c-0.2,0.2-0.4,0.3-0.7,0.4c-2.7,1.8-5.6,3.4-8.5,4.9c-0.7,0.3-1.3,0.7-2,1c-3.2,1.5-6.4,2.9-9.7,4.1
						c-4.4,1.6-8.9,2.9-13.6,3.8c-6.7,1.4-13.7,2.2-20.8,2.2c-3.1,0-6.1-0.1-9.1-0.4c-3.1-0.3-6.2-0.7-9.3-1.3c-1.7-0.3-3.4-0.7-5-1
						c-4.8-1.1-9.5-2.6-14-4.4c-4-1.6-7.9-3.4-11.7-5.5c-0.4-0.2-0.9-0.5-1.3-0.7c-2.6-1.4-5-3-7.4-4.7c-2.1-1.4-4.1-2.9-6-4.5
						c-0.2-0.2-0.5-0.3-0.7-0.5c-2.8-2.3-5.4-4.7-7.9-7.3c-0.7-0.7-1.4-1.5-2.1-2.2c-1.9-2.1-3.8-4.3-5.5-6.5
						c-1.7-2.2-3.3-4.5-4.9-6.8c-10.4-15.9-16.4-34.9-16.4-55.3c0-56,45.4-101.3,101.4-101.3C911.2,670.7,956.6,716.1,956.6,772z"/>
				</g>
			</g>
			<g>
				<g>
					<path class="st12" d="M932.7,837.3c-1.9,2.2-3.8,4.4-5.9,6.4c-3.3,3.3-6.8,6.4-10.6,9.2c-1.8,1.4-3.7,2.7-5.7,4
						c-0.2,0.2-0.4,0.3-0.7,0.4l0.6-44.6C910.5,812.8,921,822.6,932.7,837.3z"/>
				</g>
			</g>
			<g>
				<g>
					<path class="st13" d="M901.4,862.3c-0.7,0.3-1.3,0.7-2,1c-7.3,3.5-15.1,6.2-23.3,7.9c-6.7,1.4-13.7,2.2-20.8,2.2
						c-3.1,0-6.1-0.1-9.1-0.4c-3.1-0.3-6.2-0.7-9.3-1.3c-1.7-0.3-3.4-0.7-5-1c-4.8-1.1-9.5-2.6-14-4.4l21.1-71.6
						c0,0,16.5-2.5,35.1-0.5C886.3,795.3,896.1,834.9,901.4,862.3z"/>
				</g>
			</g>
			<g>
				<g>
					<path class="st12" d="M874.1,794l-32.1,2c0,0-3.2,33.4-5.1,75.6c-1.7-0.3-3.4-0.7-5-1c-9.1-2.2-17.7-5.5-25.7-10
						c-0.4-0.2-0.9-0.5-1.3-0.7c-2.6-1.4-5-3-7.4-4.7c-2.1-1.4-4.1-2.9-6-4.5c-0.2-0.2-0.5-0.3-0.7-0.5c-2.8-2.3-5.4-4.7-7.9-7.3
						c-0.7-0.7-1.4-1.5-2.1-2.2c0.6-13.8,2.5-24.1,6.3-27.7c17.1-15.9,59.5-21.2,59.5-21.2l19.8-0.3
						C866.3,791.5,869.5,792.4,874.1,794z"/>
				</g>
			</g>
			<g>
				<g>
					<path class="st12" d="M916.2,853c-1.8,1.4-3.7,2.7-5.7,4c-3,1.9-6,3.7-9.2,5.3c-0.7,0.3-1.3,0.7-2,1c-3.2,1.5-6.4,2.9-9.7,4.1
						c0-0.3,0-0.5-0.1-0.8c-5.7-59.2-14.8-71.8-15.4-72.5c12.2,4.2,35,13.1,39.1,22.8C914.9,820.5,915.8,834.5,916.2,853z"/>
				</g>
			</g>
			<g>
				<g>
					<path d="M853.9,718.1c0,0-20.9-46.6-44.7-22.9c-19.9,19.8,11,50.3,28.9,41.6C856,728.1,853.9,718.1,853.9,718.1z"/>
				</g>
			</g>
			<g>
				<g>
					<path d="M885.7,756.1c0,0,8.6-9.8,5.9-24.7c-1.8-10.1-6.4-13.3-6.4-13.3s6.7-13.9-13.7-12.8c-20.4,1.1-32.3,11.3-32.3,11.3
						s-9.4-4.5-13.4,6.5c-4,10.9,0.4,27,0.4,27L885.7,756.1z"/>
				</g>
			</g>
			<g>
				<g>
					<g>
						<g>
							<g>
								<path class="st14" d="M841.1,773.6l1,24.9c0,0,4.8,7,19.4,7.6c10.9,0.5,14.1-5.3,14.1-5.3l-3.5-21.7l-26.6-4.8L841.1,773.6z
									"/>
							</g>
						</g>
					</g>
				</g>
			</g>
			<g>
				<g>
					<g>
						<g>
							<g>
								<path d="M841.1,772.1c0.1,0.7,0.4,1.5,0.8,2.4c6.1,12.2,25.9,16.7,32.2,17l-2-12.3L841.1,772.1z"/>
							</g>
						</g>
					</g>
				</g>
			</g>
			<g>
				<g>
					<g>
						<g>
							<g>
								<path class="st14" d="M875.5,722.1c0,0,14.3,30.8,9.8,48.3c-4.5,17.6-20.4,15.2-30,12c-9.6-3.2-14.1-8.9-14.1-8.9
									s-8.8,3.2-15-4.9c-6.1-8.1-2.7-17.7,2.3-20c5-2.3,11.1,1.2,11.1,1.2l-4.9-8.9C834.7,741,853.5,694.6,875.5,722.1z"/>
							</g>
						</g>
					</g>
				</g>
			</g>
			<g>
				<g>
					<g>
						<g>
							<g>
								<path d="M839.6,749.9c0,0,13.4,2.5,22.5-12.5c9.1-15,8.1-21.1,8.1-21.1l9.5,15.2c0,0,1.9-10.7-2.4-17.4
									c-4.4-6.7-8.8-5.3-8.8-5.3l-29.4,7.8l-7.4,23.7L839.6,749.9z"/>
							</g>
						</g>
					</g>
				</g>
			</g>
			<g>
				<g>
					<path d="M875,761.7c-0.1,0-0.2,0-0.3,0c-0.6-0.2-0.9-0.8-0.7-1.3c1.7-5.7-2.7-11.8-2.7-11.8c-0.4-0.5-0.2-1.2,0.2-1.5
						c0.5-0.4,1.2-0.2,1.5,0.2c0.2,0.3,5,7,3.1,13.7C875.9,761.4,875.4,761.7,875,761.7z"/>
				</g>
			</g>
			<g>
				<g>
					<path d="M838.5,764.6c-0.3,0-0.6-0.1-0.8-0.3l-8.6-8.8c-0.4-0.4-0.4-1.1,0-1.5c0.4-0.4,1.1-0.4,1.5,0l8.6,8.8
						c0.4,0.4,0.4,1.1,0,1.5C839.1,764.5,838.8,764.6,838.5,764.6z"/>
				</g>
			</g>
			<g>
				<g>
					<path d="M829.6,762.4c-0.5,0-1-0.4-1.1-0.9c-0.1-0.6,0.3-1.2,0.9-1.3l5.8-1c0.6-0.1,1.2,0.3,1.3,0.9c0.1,0.6-0.3,1.2-0.9,1.3
						l-5.8,1C829.7,762.4,829.6,762.4,829.6,762.4z"/>
				</g>
			</g>
			<g>
				<g>
					<path d="M880.6,736.2c-0.1,0-0.1,0-0.2,0l-5.5-0.9c-0.6-0.1-1-0.7-0.9-1.2c0.1-0.6,0.6-1,1.2-0.9l5.5,0.9
						c0.6,0.1,1,0.7,0.9,1.2C881.6,735.8,881.1,736.2,880.6,736.2z"/>
				</g>
			</g>
			<g>
				<g>
					<path d="M857.7,740.1c-0.4,0-0.8-0.2-1-0.6c-0.3-0.5-0.1-1.2,0.5-1.5l9-4.7c0.5-0.3,1.2-0.1,1.5,0.5c0.3,0.5,0.1,1.2-0.5,1.5
						l-9,4.7C858,740.1,857.9,740.1,857.7,740.1z"/>
				</g>
			</g>
			<g>
				<g>
					<path d="M880.8,748.9c-0.5,0-0.9-0.3-1-0.8l-1.8-5.6c-0.1-0.3,0-0.7,0.2-1l1.7-2.1c0.4-0.5,1.1-0.5,1.5-0.2
						c0.5,0.4,0.5,1.1,0.2,1.5l-1.3,1.7l1.6,5c0.2,0.6-0.1,1.2-0.7,1.4C881,748.9,880.9,748.9,880.8,748.9z"/>
				</g>
			</g>
			<g>
				<g>
					<path d="M862.9,750.7c-0.5,0-0.9-0.3-1-0.8l-1.8-5.6c-0.1-0.4,0-0.7,0.2-1l2.3-2.8c0.4-0.5,1.1-0.5,1.5-0.1
						c0.5,0.4,0.5,1.1,0.1,1.5l-2,2.4l1.6,5c0.2,0.6-0.1,1.2-0.7,1.4C863.1,750.6,863,750.7,862.9,750.7z"/>
				</g>
			</g>
			<g>
				<g>
					<path d="M870.6,770c-3.9,0-8.2-4.1-8.8-4.7c-0.4-0.4-0.4-1.1,0-1.5c0.4-0.4,1.1-0.4,1.5,0c1.4,1.4,6,5.1,8.5,3.8
						c0.5-0.3,1.2-0.1,1.5,0.4c0.3,0.5,0.1,1.2-0.4,1.5C872.2,769.8,871.4,770,870.6,770z"/>
				</g>
			</g>
			<g>
				<g>
					<path class="st12" d="M797.5,855.3c-2.1-1.4-4.1-2.9-6-4.5c-0.2-0.2-0.5-0.3-0.7-0.5c-2.8-2.3-5.4-4.7-7.9-7.3
						c-2.7-2.8-5.2-5.7-7.6-8.7c-1.7-2.2-3.3-4.5-4.9-6.8c13.6-13.1,25-20.2,25-20.2L797.5,855.3z"/>
				</g>
			</g>
			<g>
				<g>
					<path class="st2" d="M863.7,807.3c-0.7,0-1.5,0-2.3-0.1c-9.8-0.9-19.5-7.5-19.9-7.8c-0.5-0.3-0.6-1-0.3-1.5
						c0.3-0.5,1-0.6,1.5-0.3c0.1,0.1,9.7,6.6,18.9,7.4c9.7,0.9,12.9-4.5,13.1-4.7c0.3-0.5,1-0.7,1.5-0.4c0.5,0.3,0.7,1,0.4,1.5
						C876.4,801.7,873.1,807.3,863.7,807.3z"/>
				</g>
			</g>
		</g>
		<g>
			<g>
				<g>
					<path class="st2" d="M1234.5,1007.7c0,18.5-5,35.8-13.6,50.8c-0.3,0.6-0.7,1.1-1,1.7c-0.8,1.3-1.7,2.7-2.5,4
						c-0.4,0.5-0.7,1.1-1.2,1.6c-13.2,18.9-32.8,33.1-55.6,39.5c-0.5,0.1-1,0.3-1.5,0.4c-8.3,2.2-17,3.4-26,3.4
						c-35,0-65.9-17.8-84-44.8c-1.7-2.5-3.3-5.1-4.8-7.8c-8-14.5-12.5-31.1-12.5-48.8c0-56,45.4-101.3,101.3-101.3
						S1234.5,951.7,1234.5,1007.7z"/>
				</g>
			</g>
			<g>
				<g>
					<g>
						<path d="M1089.7,993.8c0,0-10.9-57.6,31.3-68.1c42.1-10.5,44.7,49.3,44.7,49.3s45.9,8.7,46.2,53.3
							c0.4,55.7-53.5,46.4-53.5,46.4l-51-20.8C1107.3,1053.9,1056.2,1026.1,1089.7,993.8z"/>
					</g>
				</g>
			</g>
			<g>
				<g>
					<g>
						<path class="st15" d="M1216.2,1065.8c-13.2,18.9-32.8,33.1-55.6,39.5c-0.5,0.1-1,0.3-1.5,0.4c-8.3,2.2-17,3.4-26,3.4
							c-35,0-65.9-17.8-84-44.8c13.6-18.6,30.7-32.7,42.3-37.7c17.2-7.4,44.4-12.3,69.6-5.2c0.1,0,0.2,0,0.2,0
							c7.6,2.2,14.9,5.4,21.8,10.1C1197.7,1041.5,1208.5,1053.1,1216.2,1065.8z"/>
					</g>
				</g>
			</g>
			<g>
				<g>
					<g>
						<g>
							<g>
								<g>
									<path class="st16" d="M1113.3,1003.9l0,0.6l0.5,11.6l0.4,9.1c0,0-0.8,2.1,9.8,1.4c14.2-1,18.8-7.1,18.8-7.1l0.6-21.3
										l-4.3,0.8L1113.3,1003.9z"/>
								</g>
							</g>
						</g>
					</g>
				</g>
			</g>
			<g>
				<g>
					<g>
						<g>
							<g>
								<g>
									<path d="M1113.3,1004.5l0.5,11.6c6.9-0.8,19.5-3.8,24.5-14.7c0.4-0.9,0.6-1.7,0.7-2.3l-25.7,5.2L1113.3,1004.5z"/>
								</g>
							</g>
						</g>
					</g>
				</g>
			</g>
			<g>
				<g>
					<g>
						<g>
							<g>
								<g>
									<path class="st16" d="M1108.8,948.9c0,0-13.2,30.2-8.4,47.2c4.8,17,20.2,14.3,29.5,11c9.3-3.3,13.6-9,13.6-9
										s8.6,2.9,14.4-5.1s2.2-17.3-2.7-19.4c-4.9-2.1-10.8,1.4-10.8,1.4l4.6-8.8C1148.9,966.4,1129.5,921.7,1108.8,948.9z"/>
								</g>
							</g>
						</g>
					</g>
				</g>
			</g>
			<g>
				<g>
					<g>
						<path d="M1112.9,944.5c0,0-1,16.1,15.2,23.4c16.2,7.3,27,5.9,27,5.9l-1.1-21l-20.2-22l-18.1,5.8L1112.9,944.5z"/>
					</g>
				</g>
			</g>
			<g>
				<g>
					<g>
						<polygon points="1143.2,970.5 1143.2,979.7 1151.4,971.6 						"/>
					</g>
				</g>
			</g>
			<g>
				<g>
					<g>
						<path class="st15" d="M1219.9,1060.1c-0.8,1.3-1.7,2.7-2.5,4c-0.4,0.5-0.7,1.1-1.2,1.6c-13.2,18.9-32.8,33.1-55.6,39.5
							c-0.5,0.1-1,0.3-1.5,0.4l1.4-84.3c0,0,0.2,0,0.4,0.1c0.1,0,0.2,0,0.2,0c5,0.8,37.8,7.3,55.3,33.1
							C1217.7,1056.2,1218.8,1058.1,1219.9,1060.1z"/>
					</g>
				</g>
			</g>
			<g>
				<g>
					<path class="st13" d="M1120.9,1027.9c-6.4,0-11.2-1.1-11.6-1.2c-0.6-0.1-0.9-0.7-0.8-1.3c0.1-0.6,0.7-0.9,1.3-0.8
						c0.2,0,19.3,4.6,32.5-5c0.5-0.4,1.2-0.2,1.5,0.2c0.4,0.5,0.2,1.2-0.2,1.5C1136.4,1026.6,1127.8,1027.9,1120.9,1027.9z"/>
				</g>
			</g>
			<g>
				<g>
					<path d="M1105,960c-0.5,0-0.9-0.3-1-0.8c-0.2-0.6,0.1-1.2,0.7-1.4l6-1.9c0.6-0.2,1.2,0.1,1.4,0.7c0.2,0.6-0.1,1.2-0.7,1.4
						l-6,1.9C1105.2,960,1105.1,960,1105,960z"/>
				</g>
			</g>
			<g>
				<g>
					<path d="M1144.9,989.3c-0.3,0-0.6-0.1-0.8-0.4c-0.4-0.4-0.4-1.1,0.1-1.5l9.3-8.6c0.4-0.4,1.1-0.4,1.5,0.1
						c0.4,0.4,0.4,1.1-0.1,1.5l-9.3,8.6C1145.4,989.2,1145.1,989.3,1144.9,989.3z"/>
				</g>
			</g>
			<g>
				<g>
					<path d="M1154.3,988.1c-0.1,0-0.3,0-0.4-0.1l-5.6-2.4c-0.5-0.2-0.8-0.9-0.6-1.4c0.2-0.5,0.9-0.8,1.4-0.6l5.6,2.4
						c0.5,0.2,0.8,0.9,0.6,1.4C1155.1,987.9,1154.7,988.1,1154.3,988.1z"/>
				</g>
			</g>
			<g>
				<g>
					<path d="M1106.9,975.2c-0.1,0-0.1,0-0.2,0c-0.6-0.1-1-0.7-0.8-1.3l1.1-5.3l-2.2-2.5c-0.4-0.5-0.3-1.1,0.1-1.5
						c0.5-0.4,1.1-0.3,1.5,0.1l2.5,2.9c0.2,0.3,0.3,0.6,0.2,0.9l-1.2,5.9C1107.8,974.9,1107.4,975.2,1106.9,975.2z"/>
				</g>
			</g>
			<g>
				<g>
					<path d="M1125.1,976.2c-0.1,0-0.1,0-0.2,0c-0.6-0.1-1-0.7-0.8-1.3l1.1-5.3l-2.2-2.5c-0.4-0.5-0.3-1.1,0.1-1.5
						c0.5-0.4,1.1-0.3,1.5,0.1l2.5,2.9c0.2,0.3,0.3,0.6,0.2,0.9l-1.2,5.9C1126.1,975.8,1125.6,976.2,1125.1,976.2z"/>
				</g>
			</g>
			<g>
				<g>
					<path d="M1110.5,988.5c-0.5,0-1-0.4-1.1-0.9c-2-9.7,2.7-14.5,2.9-14.7c0.4-0.4,1.1-0.4,1.5,0c0.4,0.4,0.4,1.1,0,1.5
						c-0.2,0.2-4,4.3-2.3,12.8c0.1,0.6-0.3,1.2-0.8,1.3C1110.6,988.5,1110.6,988.5,1110.5,988.5z"/>
				</g>
			</g>
			<g>
				<g>
					<path d="M1120.3,997.8c-0.6,0-2.2-0.3-5.4-3.9c-0.4-0.4-0.5-1-0.4-1.5c0.2-0.5,0.6-1,1.2-1.1c7.8-2.3,8.8-1.5,9.3-1.2
						c0.4,0.3,1,1,0.5,2.4c-0.6,2-3.1,5.1-5,5.2C1120.4,997.8,1120.4,997.8,1120.3,997.8z M1117.1,993.1c1.7,1.8,3,2.5,3.2,2.5
						c0.2,0,0.9-0.4,1.8-1.6c0.8-1,1.2-1.8,1.3-2.2C1122.8,991.9,1120.9,992,1117.1,993.1z"/>
				</g>
			</g>
		</g>
		<g>
			<g>
				<g>
					<path class="st17" d="M1391,796.1c0,11.9-2.3,23.3-6.6,33.6c-10.3,25.1-31.8,44.5-58.3,51.8c-1.8,0.5-3.7,1-5.5,1.4
						c-5.9,1.3-12.1,1.9-18.3,1.9c-3.1,0-6.2-0.2-9.3-0.5c-2-0.2-4-0.5-5.9-0.8c-2.6-0.5-5.1-1-7.6-1.7c-3.4-0.9-6.7-2-9.9-3.3
						c-7.4-2.9-14.4-6.9-20.7-11.6c-10-7.6-18.4-17.2-24.4-28.3c-6.9-12.6-10.8-27.1-10.8-42.5c0-49,39.7-88.7,88.7-88.7
						S1391,747.1,1391,796.1z"/>
				</g>
			</g>
			<g>
				<g>
					<g>
						<path class="st15" d="M1326.2,881.5c-7.6,2.1-15.6,3.3-23.9,3.3c-5.2,0-10.3-0.4-15.2-1.3c-2.6-0.5-5.1-1-7.6-1.7
							c-3.4-0.9-6.7-2-9.9-3.3l6.3-63.4l34.4-8.1l13.7,4.1L1326.2,881.5z"/>
					</g>
				</g>
			</g>
			<g>
				<g>
					<g>
						<path d="M1281,750.8c0,0-13-16.1-9.5-18.2c3.5-2.1,6.9,1.1,6.9,1.1s26.6-4.2,36.3-1.4s16.2,18.6,16.2,18.6s4.9-0.5,6.9,6.2
							c2.1,6.6-12.2,39.2-21.4,37.5C1307.2,792.9,1281,750.8,1281,750.8z"/>
					</g>
				</g>
			</g>
			<g>
				<g>
					<g>
						<g>
							<g>
								<g>
									<path class="st16" d="M1316.2,789.3l0.4,22.2c0,0-3.9,6.5-16.8,7.8c-9.7,1-13.1-1.1-13.1-1.1l1.1-11.3l1.1-11l23.3-5.6
										L1316.2,789.3z"/>
								</g>
							</g>
						</g>
					</g>
				</g>
			</g>
			<g>
				<g>
					<g>
						<g>
							<g>
								<g>
									<path d="M1312.3,790.3c0,0.6-0.3,1.3-0.6,2.2c-4.7,11.2-18.3,13.8-23.8,14.5l1.1-11L1312.3,790.3z"/>
								</g>
							</g>
						</g>
					</g>
				</g>
			</g>
			<g>
				<g>
					<g>
						<g>
							<g>
								<g>
									<path class="st16" d="M1283,745.4c0,0-11.1,28-6.2,43.4c4.9,15.4,18.9,12.4,27.3,9.1c8.4-3.3,12.1-8.6,12.1-8.6
										s8,2.4,13-5.1c5-7.5,1.5-15.9-3.1-17.6c-4.6-1.8-9.8,1.7-9.8,1.7l3.9-8.2C1320.2,760.1,1301.1,719.9,1283,745.4z"/>
								</g>
							</g>
						</g>
					</g>
				</g>
			</g>
			<g>
				<g>
					<g>
						<path d="M1283,745.4c0,0,8.6-3.5,12.3-0.4c3.7,3,8,28.8,21,23.2c12.9-5.5,6.2-22,6.2-22S1290,718.4,1283,745.4z"/>
					</g>
				</g>
			</g>
			<g>
				<g>
					<g>
						<path class="st18" d="M1287.9,806.9c0,0-4.1,37.4-8.4,74.9c-23.7-6.3-43.5-22.2-55.1-43.3c7-7.4,18.3-19.7,28-23.7
							C1269.4,808,1287.9,806.9,1287.9,806.9z"/>
					</g>
				</g>
			</g>
			<g>
				<g>
					<path class="st2" d="M1297,820.4c-5.7,0-10.2-1.3-10.6-1.4c-0.5-0.1-0.8-0.7-0.6-1.2c0.1-0.5,0.7-0.8,1.2-0.7
						c0.2,0.1,19,5.3,28.9-6.3c0.3-0.4,0.9-0.4,1.3-0.1c0.4,0.3,0.4,0.9,0.1,1.3C1311.7,818.8,1303.5,820.4,1297,820.4z"/>
				</g>
			</g>
			<g>
				<g>
					<g>
						<path class="st18" d="M1384.4,829.7c-10.3,25.1-31.8,44.5-58.3,51.8c-1.8,0.5-3.7,1-5.5,1.4c-2.7-29.3-4.1-80.6-4.1-80.6
							S1355,800.2,1384.4,829.7z"/>
					</g>
				</g>
			</g>
			<g>
				<g>
					<path d="M1317.3,780.6c-0.2,0-0.5-0.1-0.7-0.3c-0.4-0.4-0.4-1,0-1.3l7-7.2c0.4-0.4,1-0.4,1.3,0c0.4,0.4,0.4,1,0,1.3l-7,7.2
						C1317.8,780.5,1317.5,780.6,1317.3,780.6z"/>
				</g>
			</g>
			<g>
				<g>
					<path d="M1326.7,778.9c-0.1,0-0.2,0-0.2,0l-6-1.6c-0.5-0.1-0.8-0.7-0.7-1.2c0.1-0.5,0.6-0.8,1.2-0.7l6,1.6
						c0.5,0.1,0.8,0.7,0.7,1.2C1327.5,778.6,1327.1,778.9,1326.7,778.9z"/>
				</g>
			</g>
			<g>
				<g>
					<path d="M1281.2,758c-0.2,0-0.4-0.1-0.6-0.2c-0.4-0.3-0.5-0.9-0.2-1.3c0.1-0.1,1.9-2.5,6.5-1.8c0.5,0.1,0.9,0.6,0.8,1.1
						c-0.1,0.5-0.6,0.9-1.1,0.8c-3.4-0.5-4.6,1-4.7,1.1C1281.7,757.9,1281.4,758,1281.2,758z"/>
				</g>
			</g>
			<g>
				<g>
					<path d="M1302.1,758.3c-0.2,0-0.4-0.1-0.6-0.2c-2.4-2-5.3-1.3-5.3-1.3c-0.5,0.1-1-0.2-1.2-0.7c-0.1-0.5,0.2-1,0.7-1.2
						c0.2,0,3.8-1,7,1.7c0.4,0.3,0.5,0.9,0.1,1.3C1302.6,758.2,1302.3,758.3,1302.1,758.3z"/>
				</g>
			</g>
			<g>
				<g>
					<path d="M1282.1,769.1c-0.6,0-1-0.5-0.9-1l0.4-5.2c0-0.5,0.5-0.9,1-0.9c0.5,0,0.9,0.5,0.9,1l-0.4,5.2
						C1283,768.7,1282.6,769.1,1282.1,769.1z"/>
				</g>
			</g>
			<g>
				<g>
					<path d="M1297.4,769.7c-0.6,0-1-0.5-0.9-1l0.4-5.2c0-0.5,0.5-0.9,1-0.9c0.5,0,0.9,0.5,0.9,1l-0.4,5.2
						C1298.3,769.4,1297.8,769.7,1297.4,769.7z"/>
				</g>
			</g>
			<g>
				<g>
					<path d="M1285.8,781.4c-0.4,0-0.7-0.2-0.9-0.6c-3.2-7.2,1.6-13.1,1.8-13.3c0.3-0.4,0.9-0.5,1.3-0.1c0.4,0.3,0.5,0.9,0.1,1.3
						c-0.2,0.2-4.3,5.2-1.5,11.3c0.2,0.5,0,1-0.5,1.3C1286.1,781.4,1285.9,781.4,1285.8,781.4z"/>
				</g>
			</g>
			<g>
				<g>
					<path d="M1291.8,786.1c-0.5,0-0.9-0.4-0.9-0.9c0-0.5,0.4-1,0.9-1c0.1,0,3.4-0.1,4.5-2.8c0.2-0.5,0.8-0.7,1.2-0.5
						c0.5,0.2,0.7,0.8,0.5,1.2C1296.4,786,1292,786.1,1291.8,786.1z"/>
				</g>
			</g>
		</g>
	</g>
	<g>
		<path class="st19" d="M801,994.8l-0.4-5.3c-1.2-10.9,2.5-23.2,12.8-35.4c9.3-11.1,14.4-19.1,14.4-28.4c0-10.5-6.6-17.5-19.5-17.7
			c-7.4,0-15.6,2.5-20.8,6.4l-4.9-13c7-4.9,18.5-8.2,29.4-8.2c23.7,0,34.4,14.6,34.4,30.2c0,14-7.8,24.3-17.7,35.8
			c-9.1,10.7-12.3,20-11.7,30.4l0.2,5.1H801z M808.4,1036.5c-7,0-11.9-5.6-11.9-12.8c0-7.6,5.1-13,12.3-13s12.1,5.3,12.1,13
			c0,7.2-4.7,12.8-12.3,12.8H808.4z"/>
	</g>
	<path class="st20" d="M790,812.9l-23.6,4.5l3.1,8.9c0,0,19.4,31.9,50.1,40.6c30.7,8.6,56.1,11.6,94.1-12.1c0,0-29.3-35.7-70.8-39.8
		C801.5,811,790,812.9,790,812.9z"/>
	<g>
		<path class="st21" d="M634.4,1041.7l-8,11c0,0-30.7-17-50.7-30.2c6.5-3.9,9.7-10.1,14.2-16.2
			C604.2,1018.8,634.4,1041.7,634.4,1041.7z"/>
		<path class="st22" d="M506.2,1357.8c1-1.3,12.9,1.8,19.5-0.9c3.9-1.6,5.8-3.6,7.8-3.6c3.8,0,10.1,14,27.4,17.3
			c8.5,1.6,18.6,3.8,19,8.1c0.4,3.9-1.9,6.3-5.1,6.3c-6.1,0-32.6,0-37.1,0c-1.3,0-18.3-6.9-18.3,0c-6.2,0-9.8,0-16,0
			C502.6,1383.9,501.7,1363.5,506.2,1357.8z"/>
		<path class="st22" d="M417,1377.5c0.7-2.8,6.2-16.8,6.2-18.3c0-2.6,0-6.4,0-6.4h12.9h11.8c0,0,0,3.9,0,6.4
			c0,1.5,6.6,15.5,7.3,18.3c0.7,2.8,0.2,7.4-2.7,7.4c-4.3,0-16.4,0-16.4,0s-12,0-16.4,0C416.8,1384.9,416.2,1380.3,417,1377.5z"/>
		<path class="st23" d="M520.2,930.4l4.7,37c31.7,42.8,34.9,42.8,45.9,54c4.1,4.1,23.5,15.2,39,23.6c6.8-3.2,11.2-6,18.5-9.3
			c-16.3-12.5-40.3-34.1-41.9-35.6c-1.8-1.7-31.8-65.1-53.6-69.4C530.8,930.3,522.1,930.3,520.2,930.4z"/>
		<path class="st24" d="M419.9,1359.7h32.6c16.5-133.5,34.9-169.6,40.8-188.2c8.4,16.6,17.2,36.9,17.1,43.2
			c0,0.1-5.8,108.1-7.9,143.5c1.5,0.1,3.1,0.2,4.9,0.2c6.7,0.2,21.1-0.4,32.9-1.4c0,0,19.7-133,19.7-148.1
			c0-14-19.4-91.4-21.2-125.1c-28.8,7.6-66.4,4.4-90.9-2.3c-3,3.8-6.5,20.4-8.2,35.4C425,1243.9,424.1,1269,419.9,1359.7z"/>
		<path class="st25" d="M519.8,948.3l6.6,36.1c0,0,11.8,0.9,21.9,13.3c-4.2-36.1-12.1-33-23.5-42.8
			C522.8,954.5,521.6,948.1,519.8,948.3z"/>
		<path class="st23" d="M539.5,1086.3c-5.3,21.5-87,11.9-94.4-1c10.2-36.5,13.9-63.5,7.8-91.4c-2.3-10.5-6-36.1-6.4-45.5
			c-0.4-8.3-1.3-10.8,3.5-13c5.4-2.4,76-6.3,81.3-4.7c14.5,4.2,11.6,29.7,14,53.5C546.6,998.3,545.2,1046.1,539.5,1086.3z"/>
		<path class="st21" d="M445.1,1062.2l-12.2,10.5c0,0-19.3-28.7-32.4-51.9c6.4-3.4,13.3-8,18.9-12.4
			C427,1024.8,445.1,1062.2,445.1,1062.2z"/>
		<g>
			<path class="st26" d="M473.4,932.4c2.5,15.4,37.7,10.1,33.9-3.9c-3.3-10.8-6.1-21.7-8.5-32.7c-4.9,0.6-18.9-5.9-23.8-5.2
				C473.6,898.1,477,909.9,473.4,932.4z"/>
			<g>
				<path class="st21" d="M483.3,921c13.3,8.9,21,2.9,24.4-2.5c5-7.9,5.8-21.6,4.5-30.8c-0.1-0.5-0.2-1.1-0.2-1.7
					c-0.1-0.6-0.2-1.3-0.3-1.9c-1-6.5-2.4-14.2-6.3-18.9c-5-5.9-13.5-9.3-20.9-7.6c-8.7,2-13.5,10.7-15.4,19.5
					C464.8,897.2,471.9,913.3,483.3,921z"/>
				<path class="st27" d="M463.9,904.3c-5.5-20.2-7.4-24.9-5.8-29.9c0.9-2.8,2.9-5.2,3.3-8c0.5-3.2-1.2-6.5-0.6-9.7
					c0.8-4.6,5.6-7.3,10.2-8.1c4.6-0.7,9.3,0,13.8-0.9c10.8-2.1,14.2-6.5,26.6-0.3c6.2,3.1,11.3,9.1,10.9,16.1c-0.2,3-3,6.7-5.9,7.7
					c-5.6,2-6.9-2.2-12.7-1c-4.2,0.9-9.8,7.7-21.3,5c-2.9-0.7-8.3-3-11.5,0.1c-2.3,2.2-2.6,5.3-2.2,8.4c0.8,6.3,0.4,12.6,1.9,20.7
					c0.4,1.8-0.4,3.1-2.7,4C465.7,909,464.4,906.1,463.9,904.3z"/>
				<path class="st21" d="M469.7,892.8c-0.5-0.4-1.8-1.1-2.4-1.4s-1.3-0.2-1.8,0.2c-0.7,0.6-0.7,1.6-0.6,2.6
					c0.1,1.2,0.2,2.4,0.3,3.5c0.1,1,0.2,2.1,0.6,3.1c0.4,1,1.1,1.9,2.1,2.2c1,0.3,2.3-0.1,2.7-1L469.7,892.8z"/>
			</g>
		</g>
		<g>
			<path class="st2" d="M518.3,978c6.4,0,13.2-1,18.2-2.7c0.4-0.1,0.6-0.6,0.5-1c-0.1-0.4-0.6-0.6-1-0.5c-5.7,1.9-13.8,2.9-20.8,2.5
				c-0.4,0-0.8,0.3-0.8,0.7c0,0.4,0.3,0.8,0.7,0.8C516.1,978,517.2,978,518.3,978z"/>
		</g>
		<path class="st28" d="M510.3,1214.7c0,0.1-5.8,108.1-7.9,143.5c1.5,0.1,1.2,0.1,3.1,0.2c1.9-35.4,9.4-124.9,10-143.7
			c0.3-9.3-10.9-30.6-13.6-40.5c-1.3-4.7-5.6-35-6.5-52.6l-2.2,49.9C501.6,1188.1,510.4,1208.4,510.3,1214.7z"/>
		<polygon class="st29" points="495,941.1 509.8,951.2 500.7,963.6 485.2,954.8 		"/>
		<path class="st30" d="M506.8,926.2c11.8,0.7,11.4,15.7,4.2,29.5c0,0-5.4-10-16-14.6C504.5,936.2,506.8,926.2,506.8,926.2z"/>
		<path class="st30" d="M495,941.1c-12.3-1.9-18.1-6.8-21-12.3c0,0-10.3,2.5-9,9.1s21.9,20.6,21.9,20.6S489.3,946.4,495,941.1z"/>
		<path class="st29" d="M503.1,957.6c9.9,25.9,15.9,52.3,14.9,78.3l-9.5,17.3l-16.4-17.7c4.8-25.4,2.9-75.7,2.9-75.7L503.1,957.6z"
			/>
		<g>
			<path class="st31" d="M445.5,1102.2l228.7-101.4l10.5,23.6l-228.7,101.4C440.5,1121.4,436.8,1116.8,445.5,1102.2z"/>
			<path class="st32" d="M408.8,1129.7l2,4.4c3.2,7.1,9.9,11.6,17.1,12.3c3.5,0.3,7.1-0.2,10.5-1.7l196.4-86.6l1.2-0.5
				c3.6-1.6,5.2-5.8,3.6-9.3l-13.2-29.7c-1.6-3.6-5.8-5.2-9.3-3.6l-197.7,87.1C408.8,1106.8,404.1,1119.1,408.8,1129.7z"/>
			<path class="st33" d="M425.8,1141.9l1.6,3.5c0.1,0.3,0.3,0.7,0.5,1c3.5,0.3,7.1-0.2,10.5-1.7l196.4-86.6l-7.6-17.1
				c-1.3-2.9-5-4-8.2-2.6l-182.4,80.4C426.8,1123.1,422,1133.4,425.8,1141.9z"/>
			<g>
				<path class="st19" d="M663.3,948.8c-0.4,19,2.8,38.5,10.1,57.4c28.5,73.8,109,112.1,183.4,89.3c3.4-1,6.8-2.2,10.2-3.5
					c64.4-24.9,101.8-89.4,95.1-154.9c-1.3-13-4.4-26-9.3-38.7c-25.9-67-94.6-104.7-162.8-94c-10.4,1.6-20.7,4.4-30.9,8.3
					C700.8,835,664.6,890,663.3,948.8z M765.3,828.7c11.4-4.4,23-7.1,34.5-8.3c57.8-5.8,114.7,27.2,136.7,84.1
					c3.6,9.2,6,18.6,7.4,28c9.1,60-24.3,120.4-83.3,143.2c-5,1.9-10,3.5-15,4.8c-64.1,16.4-131.7-17.4-156.1-80.6
					c-5.5-14.3-8.4-29-8.9-43.5C678.9,901.8,711.4,849.5,765.3,828.7z"/>
				<path class="st34" d="M860.7,1075.7c68.2-26.3,102.1-103,75.8-171.2c-26.3-68.2-103-102.2-171.2-75.8
					c-68.2,26.3-102.2,103-75.8,171.2C715.8,1068.1,792.5,1102,860.7,1075.7z"/>
				<path class="st35" d="M718.7,892.7l4.6,1.7c29.5-44.3,85.1-64.3,136.3-48.5l2.8-7.8C807.7,817,745.6,840.5,718.7,892.7z"/>
				<path class="st33" d="M860.7,1075.7c-5,1.9-10,3.5-15,4.8c-6.3,2.6-1.4,17.1,11.1,14.9c3.4-1,6.8-2.2,10.2-3.5
					c64.4-24.9,101.8-89.4,95.1-154.9c-0.6,8.3-14.9,8.7-18.1-4.4C953,992.5,919.7,1052.9,860.7,1075.7z"/>
				<path class="st36" d="M663.3,948.8c2.4-8.9,16.1-4.1,17.4,7.7c-1.8-54.7,30.8-106.9,84.7-127.7c11.4-4.4,23-7.1,34.5-8.3
					c10.4-3.4-0.1-17.8-9.9-16.2c-10.4,1.6-20.7,4.4-30.9,8.3C700.8,835,664.6,890,663.3,948.8z"/>
			</g>
		</g>
		<path class="st21" d="M622.1,1062.2c1.7,1.9,17.6-4.6,19.8-7.4c3.3-4.2-6.1-12.3-10.3-14.7c-3.4-1.9-14-0.3-14.6,1.6
			C615.3,1047.5,619.1,1058.8,622.1,1062.2z"/>
		<path class="st21" d="M456.1,1077.5c0,0,5.1,11,8.4,13.3c1.3,0.8,7.8,1.1,10.4,2c4.1,1.3,13.5,4.9,13.1,7.7
			c-0.3,2.3-12.3-0.3-13.3,0.2c-1.9,0.9,8.2,17.7,11.8,21.2c0.9,0.9,0,3.1-1.2,3.8c-1.7,0.9-4.3-1.3-4.3-1.3s0.1,2.2-1.9,2.8
			c-1.3,0.4-3.5-1.9-3.5-1.9s0.6,2.4-1.6,3c-1.5,0.4-3.2-3.6-3.2-3.6s0.4,2.1-0.8,2.7c-1.6,0.9-5.4-3.4-7.3-5.2
			c-3.5-3.4-7.2-6.8-11.3-16.3c-1.9-4.4-7.8-18-7.8-18L456.1,1077.5z"/>
		<polygon class="st25" points="461.4,1083.3 451,1061.5 449.8,1067.2 		"/>
		<path class="st23" d="M450,935.5l19.1,36c0,0-40.1,50.6-40.2,56c0,2.2,31.1,53.6,32.4,55.8c-9.5,5.3-14.3,6.9-17.8,9.2
			c-6.5-9.1-43.1-56.4-43.1-66.2C400.5,1008.3,431.6,938.6,450,935.5z"/>
	</g>
	<ellipse transform="matrix(0.9835 -0.1807 0.1807 0.9835 -153.8697 102.0473)" cx="483.1" cy="895.5" rx="2" ry="2.1"/>
	<ellipse transform="matrix(0.9835 -0.1807 0.1807 0.9835 -153.3965 105.5706)" cx="502.7" cy="894.6" rx="2" ry="2.1"/>
	<path class="st37" d="M476.2,886.7c0,0,8.4,0.4,12.3-3.8"/>
	<path class="st37" d="M508.2,885.6c0,0-8.4,0.4-12.3-3.8"/>
	<path class="st37" d="M492.1,913.9c0,0,3.3-3.7,8-0.4"/>
	<polygon class="st26" points="492.5,897.4 492.1,906.8 495.4,906 	"/>
</g>
</svg>
