<?xml version="1.0" encoding="utf-8"?>
<!-- Generator: Adobe Illustrator 27.0.0, SVG Export Plug-In . SVG Version: 6.00 Build 0)  -->
<svg version="1.1" id="Слой_1" xmlns="http://www.w3.org/2000/svg" xmlns:xlink="http://www.w3.org/1999/xlink" x="0px" y="0px"
	 viewBox="0 0 1958.8 1204.6" style="enable-background:new 0 0 1958.8 1204.6;" xml:space="preserve">
<style type="text/css">
	.st0{fill:#DDE8FD;}
	.st1{fill:#BED2FA;}
	.st2{fill:#93B3F4;}
	.st3{fill:#3A49CD;}
	.st4{fill:#E75755;}
	.st5{fill:#FFFFFF;}
	.st6{fill:#3662C1;}
	.st7{fill:#6D89CF;}
	.st8{fill:#FA7269;}
	.st9{fill:#003FA4;}
	.st10{fill:#FFB47E;}
	.st11{fill:#0076FF;}
	.st12{fill:#003474;}
	.st13{fill:#FF8A3E;}
	.st14{fill:#DC1414;}
	.st15{fill:#FF4B4B;}
	.st16{fill:#FF6548;}
	.st17{fill:#DE661B;}
	.st18{fill:#002B6A;}
	.st19{fill:#0054BE;}
	.st20{fill:#9B0101;}
</style>
<g>
	<g>
		<path class="st0" d="M148.3,1175.9c0,0-234.8-261.7-39.7-545C281.7,379.5,431,247.6,619.3,221.4
			c109.9-15.3,176.2,212.2,330.9-43.6c211-348.8,1023.7-66.8,890.3,469.9c-64.6,259.7,196.5,269.2,63.5,528.8L148.3,1175.9z"/>
		<path class="st1" d="M599.2,688.5c0,0-116.2-165.3-161.6-143.9C392.3,566.1,599.2,688.5,599.2,688.5z"/>
		<path class="st1" d="M591.9,644.1c0,0-17.7-124.3-45.7-119.5C518.2,529.5,591.9,644.1,591.9,644.1z"/>
		<g>
			<path class="st2" d="M493.6,1031.6c0,0,11.2-55.3-32.2-62.3c0,0-29.4-1-46.7,10.1c0,0,49.2,28.4,43.3,37.2
				c-5.9,8.8-52.5-35.6-52.5-35.6s-52.7,23.1-64.5,39.8c0,0,62.3,11.1,54.5,18.2s-73.2-1.4-73.2-1.4s-42.1,33.9-23.8,60.9
				c18.4,27,39.3,26.8,45.9,22.1c6.6-4.7,39.1-43.5,43.2-38.2s-10.1,38-27,48.6c0,0,53,17.9,69-4.8c16-22.6,8.6-40.2,18.7-54
				s21.7-20.3,19.7-10.8s-23.2,29.4-23.3,47.5s-1.9,31.3,18.8,15.3s48.1-53,39.2-72.8C493.6,1031.6,493.6,1031.6,493.6,1031.6z"/>
			<g>
				<path class="st3" d="M321.8,1086.6c0,0,123.7-75.5,171.8-54.9c0,0,16.5,15,44.9,21.3l7.5,6.4c0,0-34.8-10.9-43.4-7.9
					C502.6,1051.4,489.8,999.8,321.8,1086.6z"/>
				<path class="st3" d="M538.6,1052.9c0,0,38.3,4.9,60.3,39.7l-4.7,3.2c0,0-29.4-32.2-53.2-38
					C517.2,1052.1,538.6,1052.9,538.6,1052.9z"/>
			</g>
		</g>
		<g>
			<path class="st1" d="M531.5,870.2c0,0,89.8-50.3,47.9-118.6c0,0-33.5-41.9-69.5-52.7c0,0,19.2,101.8,0,104.2
				c-19.2,2.4-13.2-115-13.2-115s-94.6-45.4-131.7-41.9c0,0,58.7,99.4,39.5,97s-85-103-85-103s-97-18-112.6,39.5s9.6,86.2,23.9,89.8
				s106.6,2.4,104.2,14.4c-2.4,12-64.7,31.1-99.4,20.4c0,0,38.3,94.6,88.6,89.8s65.9-35.9,97-38.3s53.9,6,38.3,14.4
				s-68.3,2.8-93.4,24.1s-45.5,34.6,1.2,44.1s130.5,3.6,147.3-32.3C531.5,870.2,531.5,870.2,531.5,870.2z"/>
			<g>
				<path class="st3" d="M251.2,697.7c0,0,251.5,81.4,280.3,172.5c0,0-1.2,40.7,24,87.4v18c0,0-26.3-61.1-40.7-69.5
					C514.7,906.1,571,827.1,251.2,697.7z"/>
				<path class="st3" d="M555.5,957.6c0,0,38.8,58.9,16.7,130.6l-10-2.7c0,0,9.7-79-10.6-118.7C531.3,927.1,555.5,957.6,555.5,957.6
					z"/>
			</g>
		</g>
		<path class="st4" d="M622.8,449.3l-134.4,694.8c-2.7,14.1,8.1,27.2,22.5,27.2h70.9L622.8,449.3z"/>
		<g>
			<path class="st2" d="M1516.2,648.2c0,0-60.4-38.6-28.6-84.4c0,0,25-27.8,50.4-33.9c0,0-17.4,70-4.2,72.5
				c13.2,2.4,13.8-79.4,13.8-79.4s67.6-27.9,93.3-23.9c0,0-44.8,66.8-31.4,65.9s63.2-68.2,63.2-68.2s68.2-8.6,76.7,32
				s-10.1,59.6-20.2,61.5s-74.2-2.6-73,5.8c1.2,8.4,43.7,24.2,68.3,18.1c0,0-30.4,64.3-65.2,58.9c-34.8-5.3-44.4-27.6-65.9-30.5
				c-21.6-2.9-37.7,2-27.2,8.5s47.4,4.6,64,20.5s30.3,25.8-2.6,30.6s-90.9-2.7-101.2-28.4C1516.2,648.2,1516.2,648.2,1516.2,648.2z"
				/>
			<g>
				<path class="st2" d="M1718,539.5c0,0-178.2,46.6-201.8,108.7c0,0-0.8,28.4-20.2,59.8l-0.7,12.5c0,0,20.8-41.4,31.1-46.7
					C1526.4,673.9,1490.4,616.7,1718,539.5z"/>
				<path class="st2" d="M1496,708.1c0,0-29.3,39.4-16.8,90.2l7.1-1.5c0,0-3.6-55.3,12.1-82.1C1514.1,687.8,1496,708.1,1496,708.1z"
					/>
			</g>
		</g>
		<g>
			<path class="st5" d="M1353.4,480.8c0,0-92.9-20.4-74.1-92c0,0,18.4-46,47.3-65.2c0,0,10.3,95.1,27.9,92.1s-19.2-105.2-19.2-105.2
				s71.4-65.6,105.2-72.4c0,0-25.2,103.6-8.9,96.3s47.6-113.8,47.6-113.8s80.9-41.9,110.1,4.8c29.2,46.6,14.6,78.8,2.9,85.8
				s-93.6,30.7-88.3,40.6s65.5,10.2,93.3-8.6c0,0-8.5,93.9-54.3,103.2c-45.8,9.2-67.9-14.1-96-7.9s-46,19.7-30,23
				s61.1-15.9,89.1-3.7s49.5,18.3,10.8,39.3s-114.4,38.2-138.9,10.9C1353.4,480.8,1353.4,480.8,1353.4,480.8z"/>
			<g>
				<path class="st5" d="M1555,253.3c0,0-200.5,139.4-201.5,227.6c0,0,12,35.7,2.2,83.7l4.8,15.9c0,0,6.9-61.1,17.4-72.3
					C1377.9,508.1,1306.9,453.3,1555,253.3z"/>
				<path class="st5" d="M1355.7,564.5c0,0-18.5,62.5,20.3,119.9l8.1-5c0,0-29.7-67.2-22.4-107.8
					C1368.9,531.1,1355.7,564.5,1355.7,564.5z"/>
			</g>
		</g>
		<path class="st6" d="M624.4,446.5l-89.1,682.2c-3,22.6,14.7,42.7,37.5,42.7h130.7L629.8,444L624.4,446.5z"/>
		<path class="st7" d="M624.4,446.5l-39.9,677.9c-1.5,25.5,18.8,47,44.3,47h194.9L624.4,446.5z"/>
		<path class="st3" d="M622.9,452.1l19.4,672.3c-1.5,25.5,18.8,47,44.3,47h194.9L622.9,452.1z"/>
		<path class="st5" d="M1556.1,1171.4H787.6c-19.2,0-35.6-13.7-39.1-32.6L631.6,499.3c-5.3-29,17-55.8,46.5-55.8h759.5
			c19.2,0,35.6,13.7,39.1,32.6l118.6,648.4C1599.6,1148.9,1580.9,1171.4,1556.1,1171.4z"/>
		<path class="st8" d="M646.8,582.4h849.8l-21.8-120.7c-1.9-10.5-11-18.1-21.7-18.1H630c-4.5,0-7.9,4.1-7.1,8.5L646.8,582.4z"/>
		<g>
			<g>
				<g>
					<path class="st6" d="M666.6,407.2c-20.3,0-36.8,16.5-36.8,36.8h7.1c0-16.4,13.3-29.8,29.8-29.8c16.4,0,29.8,13.3,29.8,29.8
						c0,3.3-0.5,6.5-1.5,9.4c-2.9,8.8-9.8,15.7-18.5,18.7c-2.5,0.9-5.2,1.4-8,1.6v7.1c3.3-0.2,6.4-0.7,9.4-1.7
						c12-3.8,21.3-13.5,24.5-25.7c0.8-3,1.2-6.2,1.2-9.4C703.5,423.7,687,407.2,666.6,407.2z"/>
				</g>
				<path class="st6" d="M678,477.1c0,0.7-0.1,1.5-0.3,2.1c-0.9,3.4-4,5.8-7.7,5.8c-4.4,0-8-3.6-8-8s3.6-8,8-8
					c2.6,0,4.8,1.2,6.3,3.1C677.4,473.5,678,475.2,678,477.1z"/>
			</g>
			<g>
				<g>
					<path class="st6" d="M798.7,407.2c-20.3,0-36.8,16.5-36.8,36.8h7.1c0-16.4,13.4-29.8,29.8-29.8c16.4,0,29.8,13.3,29.8,29.8
						c0,3.3-0.5,6.5-1.5,9.4c-2.9,8.8-9.8,15.7-18.5,18.7c-2.5,0.9-5.2,1.4-8,1.6v7.1c3.3-0.2,6.4-0.7,9.4-1.7
						c12-3.8,21.3-13.5,24.5-25.7c0.8-3,1.2-6.2,1.2-9.4C835.6,423.7,819.1,407.2,798.7,407.2z"/>
				</g>
				<path class="st6" d="M810.1,477.1c0,0.7-0.1,1.5-0.3,2.1c-0.9,3.4-4,5.8-7.7,5.8c-4.4,0-8-3.6-8-8s3.6-8,8-8
					c2.6,0,4.9,1.2,6.3,3.1C809.5,473.5,810.1,475.2,810.1,477.1z"/>
			</g>
			<g>
				<g>
					<path class="st6" d="M930.8,407.2c-20.3,0-36.8,16.5-36.8,36.8h7.1c0-16.4,13.3-29.8,29.8-29.8c16.4,0,29.8,13.3,29.8,29.8
						c0,3.3-0.5,6.5-1.5,9.4c-2.9,8.8-9.8,15.7-18.5,18.7c-2.5,0.9-5.2,1.4-8,1.6v7.1c3.3-0.2,6.4-0.7,9.4-1.7
						c12-3.8,21.3-13.5,24.5-25.7c0.8-3,1.2-6.2,1.2-9.4C967.7,423.7,951.1,407.2,930.8,407.2z"/>
				</g>
				<path class="st6" d="M942.2,477.1c0,0.7-0.1,1.5-0.3,2.1c-0.9,3.4-4,5.8-7.7,5.8c-4.4,0-8-3.6-8-8s3.6-8,8-8
					c2.6,0,4.8,1.2,6.3,3.1C941.6,473.5,942.2,475.2,942.2,477.1z"/>
			</g>
			<g>
				<g>
					<path class="st6" d="M1062.9,407.2c-20.3,0-36.8,16.5-36.8,36.8h7.1c0-16.4,13.3-29.8,29.8-29.8c16.4,0,29.8,13.3,29.8,29.8
						c0,3.3-0.5,6.5-1.5,9.4c-2.9,8.8-9.8,15.7-18.5,18.7c-2.5,0.9-5.2,1.4-8,1.6v7.1c3.3-0.2,6.4-0.7,9.4-1.7
						c12-3.8,21.3-13.5,24.5-25.7c0.8-3,1.2-6.2,1.2-9.4C1099.8,423.7,1083.2,407.2,1062.9,407.2z"/>
				</g>
				<path class="st6" d="M1074.3,477.1c0,0.7-0.1,1.5-0.3,2.1c-0.9,3.4-4,5.8-7.7,5.8c-4.4,0-8-3.6-8-8s3.6-8,8-8
					c2.6,0,4.8,1.2,6.3,3.1C1073.7,473.5,1074.3,475.2,1074.3,477.1z"/>
			</g>
			<g>
				<g>
					<path class="st6" d="M1195,407.2c-20.3,0-36.8,16.5-36.8,36.8h7.1c0-16.4,13.4-29.8,29.8-29.8s29.8,13.3,29.8,29.8
						c0,3.3-0.5,6.5-1.5,9.4c-2.9,8.8-9.8,15.7-18.5,18.7c-2.5,0.9-5.2,1.4-8,1.6v7.1c3.3-0.2,6.4-0.7,9.4-1.7
						c12-3.8,21.3-13.5,24.5-25.7c0.8-3,1.2-6.2,1.2-9.4C1231.9,423.7,1215.3,407.2,1195,407.2z"/>
				</g>
				<path class="st6" d="M1206.4,477.1c0,0.7-0.1,1.5-0.3,2.1c-0.9,3.4-4,5.8-7.7,5.8c-4.4,0-8-3.6-8-8s3.6-8,8-8
					c2.6,0,4.9,1.2,6.3,3.1C1205.8,473.5,1206.4,475.2,1206.4,477.1z"/>
			</g>
			<g>
				<g>
					<path class="st6" d="M1327.1,407.2c-20.3,0-36.8,16.5-36.8,36.8h7.1c0-16.4,13.3-29.8,29.8-29.8s29.8,13.3,29.8,29.8
						c0,3.3-0.5,6.5-1.5,9.4c-2.9,8.8-9.8,15.7-18.5,18.7c-2.5,0.9-5.2,1.4-8,1.6v7.1c3.3-0.2,6.4-0.7,9.4-1.7
						c11.9-3.8,21.3-13.5,24.5-25.7c0.8-3,1.2-6.2,1.2-9.4C1363.9,423.7,1347.4,407.2,1327.1,407.2z"/>
				</g>
				<path class="st6" d="M1338.5,477.1c0,0.7-0.1,1.5-0.3,2.1c-0.9,3.4-4,5.8-7.7,5.8c-4.4,0-8-3.6-8-8s3.6-8,8-8
					c2.6,0,4.8,1.2,6.3,3.1C1337.9,473.5,1338.5,475.2,1338.5,477.1z"/>
			</g>
			<g>
				<g>
					<path class="st6" d="M1459.2,407.2c-20.3,0-36.8,16.5-36.8,36.8h7.1c0-16.4,13.3-29.8,29.8-29.8s29.8,13.3,29.8,29.8
						c0,3.3-0.5,6.5-1.5,9.4c-2.9,8.8-9.8,15.7-18.5,18.7c-2.5,0.9-5.2,1.4-8,1.6v7.1c3.3-0.2,6.4-0.7,9.4-1.7
						c11.9-3.8,21.3-13.5,24.5-25.7c0.8-3,1.2-6.2,1.2-9.4C1496,423.7,1479.5,407.2,1459.2,407.2z"/>
				</g>
				<path class="st6" d="M1470.6,477.1c0,0.7-0.1,1.5-0.3,2.1c-0.9,3.4-4,5.8-7.7,5.8c-4.4,0-8-3.6-8-8s3.6-8,8-8
					c2.6,0,4.8,1.2,6.3,3.1C1470,473.5,1470.6,475.2,1470.6,477.1z"/>
			</g>
		</g>
		<g>
			<path class="st7" d="M1138.2,809.2h-43c-5,0-9.8-4.1-10.8-9l-8.3-43c-1-5,2.3-9,7.3-9h43c5,0,9.8,4.1,10.8,9l8.3,43
				C1146.4,805.2,1143.2,809.2,1138.2,809.2z"/>
			<path class="st7" d="M1246.6,809.2h-43c-5,0-9.8-4.1-10.8-9l-8.3-43c-1-5,2.3-9,7.3-9h43c5,0,9.8,4.1,10.8,9l8.3,43
				C1254.9,805.2,1251.6,809.2,1246.6,809.2z"/>
			<path class="st6" d="M1355,809.2h-43c-5,0-9.8-4.1-10.8-9l-8.3-43c-1-5,2.3-9,7.3-9h43c5,0,9.8,4.1,10.8,9l8.3,43
				C1363.3,805.2,1360,809.2,1355,809.2z"/>
			<path class="st7" d="M813,809.2h-43c-5,0-9.8-4.1-10.8-9l-8.3-43c-1-5,2.3-9,7.3-9h43c5,0,9.8,4.1,10.8,9l8.3,43
				C821.3,805.2,818,809.2,813,809.2z"/>
			<path class="st8" d="M765.9,680.2h-18.5c-2.1,0-4.2-1.8-4.6-3.9l-3.6-18.5c-0.4-2.1,1-3.9,3.1-3.9h18.5c2.1,0,4.2,1.8,4.6,3.9
				l3.6,18.5C769.5,678.5,768.1,680.2,765.9,680.2z"/>
			<path class="st7" d="M921.4,809.2h-43c-5,0-9.8-4.1-10.8-9l-8.3-43c-1-5,2.3-9,7.3-9h43c5,0,9.8,4.1,10.8,9l8.3,43
				C929.6,805.2,926.4,809.2,921.4,809.2z"/>
			<path class="st7" d="M1029.8,809.2h-43c-5,0-9.8-4.1-10.8-9l-8.3-43c-1-5,2.3-9,7.3-9h43c5,0,9.8,4.1,10.8,9l8.3,43
				C1038,805.2,1034.8,809.2,1029.8,809.2z"/>
			<path class="st6" d="M1463.4,809.2h-43c-5,0-9.8-4.1-10.8-9l-8.3-43c-1-5,2.3-9,7.3-9h43c5,0,9.8,4.1,10.8,9l8.3,43
				C1471.7,805.2,1468.4,809.2,1463.4,809.2z"/>
			<path class="st7" d="M1120.2,715.9h-43c-5,0-9.8-4.1-10.8-9l-8.3-43c-1-5,2.3-9,7.3-9h43c5,0,9.8,4.1,10.8,9l8.3,43
				C1128.5,711.9,1125.2,715.9,1120.2,715.9z"/>
			<path class="st7" d="M1228.6,715.9h-43c-5,0-9.8-4.1-10.8-9l-8.3-43c-1-5,2.3-9,7.3-9h43c5,0,9.8,4.1,10.8,9l8.3,43
				C1236.9,711.9,1233.6,715.9,1228.6,715.9z"/>
			<path class="st6" d="M1337,715.9h-43c-5,0-9.8-4.1-10.8-9l-8.3-43c-1-5,2.3-9,7.3-9h43c5,0,9.8,4.1,10.8,9l8.3,43
				C1345.3,711.9,1342,715.9,1337,715.9z"/>
			<path class="st6" d="M1445.4,715.9h-43c-5,0-9.8-4.1-10.8-9l-8.3-43c-1-5,2.3-9,7.3-9h43c5,0,9.8,4.1,10.8,9l8.3,43
				C1453.7,711.9,1450.4,715.9,1445.4,715.9z"/>
			<path class="st7" d="M1157.3,908.1h-43c-5,0-9.8-4.1-10.8-9l-8.3-43c-1-5,2.3-9,7.3-9h43c5,0,9.8,4.1,10.8,9l8.3,43
				C1165.5,904,1162.3,908.1,1157.3,908.1z"/>
			<path class="st7" d="M1265.7,908.1h-43c-5,0-9.8-4.1-10.8-9l-8.3-43c-1-5,2.3-9,7.3-9h43c5,0,9.8,4.1,10.8,9l8.3,43
				C1273.9,904,1270.7,908.1,1265.7,908.1z"/>
			<path class="st6" d="M1374.1,908.1h-43c-5,0-9.8-4.1-10.8-9l-8.3-43c-1-5,2.3-9,7.3-9h43c5,0,9.8,4.1,10.8,9l8.3,43
				C1382.3,904,1379,908.1,1374.1,908.1z"/>
			<path class="st7" d="M832.1,908.1h-43c-5,0-9.8-4.1-10.8-9l-8.3-43c-1-5,2.3-9,7.3-9h43c5,0,9.8,4.1,10.8,9l8.3,43
				C840.3,904,837.1,908.1,832.1,908.1z"/>
			<path class="st7" d="M940.5,908.1h-43c-5,0-9.8-4.1-10.8-9l-8.3-43c-1-5,2.3-9,7.3-9h43c5,0,9.8,4.1,10.8,9l8.3,43
				C948.7,904,945.4,908.1,940.5,908.1z"/>
			<path class="st7" d="M1048.9,908.1h-43c-5,0-9.8-4.1-10.8-9l-8.3-43c-1-5,2.3-9,7.3-9h43c5,0,9.8,4.1,10.8,9l8.3,43
				C1057.1,904,1053.9,908.1,1048.9,908.1z"/>
			<path class="st6" d="M1482.5,908.1h-43c-5,0-9.8-4.1-10.8-9l-8.3-43c-1-5,2.3-9,7.3-9h43c5,0,9.8,4.1,10.8,9l8.3,43
				C1490.7,904,1487.4,908.1,1482.5,908.1z"/>
			<path class="st7" d="M1176.4,1007h-43c-5,0-9.8-4.1-10.8-9l-8.3-43c-1-5,2.3-9,7.3-9h43c5,0,9.8,4.1,10.8,9l8.3,43
				C1184.6,1002.9,1181.3,1007,1176.4,1007z"/>
			<path class="st7" d="M1284.8,1007h-43c-5,0-9.8-4.1-10.8-9l-8.3-43c-1-5,2.3-9,7.3-9h43c5,0,9.8,4.1,10.8,9l8.3,43
				C1293,1002.9,1289.7,1007,1284.8,1007z"/>
			<path class="st6" d="M1393.2,1007h-43c-5,0-9.8-4.1-10.8-9l-8.3-43c-1-5,2.3-9,7.3-9h43c5,0,9.8,4.1,10.8,9l8.3,43
				C1401.4,1002.9,1398.1,1007,1393.2,1007z"/>
			<path class="st7" d="M851.1,1007h-43c-5,0-9.8-4.1-10.8-9l-8.3-43c-1-5,2.3-9,7.3-9h43c5,0,9.8,4.1,10.8,9l8.3,43
				C859.4,1002.9,856.1,1007,851.1,1007z"/>
			<path class="st7" d="M959.6,1007h-43c-5,0-9.8-4.1-10.8-9l-8.3-43c-1-5,2.3-9,7.3-9h43c5,0,9.8,4.1,10.8,9l8.3,43
				C967.8,1002.9,964.5,1007,959.6,1007z"/>
			<path class="st7" d="M1068,1007h-43c-5,0-9.8-4.1-10.8-9l-8.3-43c-1-5,2.3-9,7.3-9h43c5,0,9.8,4.1,10.8,9l8.3,43
				C1076.2,1002.9,1072.9,1007,1068,1007z"/>
			<path class="st6" d="M1501.6,1007h-43c-5,0-9.8-4.1-10.8-9l-8.3-43c-1-5,2.3-9,7.3-9h43c5,0,9.8,4.1,10.8,9l8.3,43
				C1509.8,1002.9,1506.5,1007,1501.6,1007z"/>
			<path class="st7" d="M1194.4,1100.3h-43c-5,0-9.8-4.1-10.8-9l-8.3-43c-1-5,2.3-9,7.3-9h43c5,0,9.8,4.1,10.8,9l8.3,43
				C1202.6,1096.2,1199.3,1100.3,1194.4,1100.3z"/>
			<path class="st7" d="M1302.8,1100.3h-43c-5,0-9.8-4.1-10.8-9l-8.3-43c-1-5,2.3-9,7.3-9h43c5,0,9.8,4.1,10.8,9l8.3,43
				C1311,1096.2,1307.7,1100.3,1302.8,1100.3z"/>
			<path class="st6" d="M1411.2,1100.3h-43c-5,0-9.8-4.1-10.8-9l-8.3-43c-1-5,2.3-9,7.3-9h43c5,0,9.8,4.1,10.8,9l8.3,43
				C1419.4,1096.2,1416.1,1100.3,1411.2,1100.3z"/>
			<path class="st7" d="M869.1,1100.3h-43c-5,0-9.8-4.1-10.8-9l-8.3-43c-1-5,2.3-9,7.3-9h43c5,0,9.8,4.1,10.8,9l8.3,43
				C877.4,1096.2,874.1,1100.3,869.1,1100.3z"/>
			<path class="st7" d="M977.6,1100.3h-43c-5,0-9.8-4.1-10.8-9l-8.3-43c-1-5,2.3-9,7.3-9h43c5,0,9.8,4.1,10.8,9l8.3,43
				C985.8,1096.2,982.5,1100.3,977.6,1100.3z"/>
			<path class="st7" d="M1086,1100.3h-43c-5,0-9.8-4.1-10.8-9l-8.3-43c-1-5,2.3-9,7.3-9h43c5,0,9.8,4.1,10.8,9l8.3,43
				C1094.2,1096.2,1090.9,1100.3,1086,1100.3z"/>
			<path class="st7" d="M896.1,663.3H782.3c-1.7,0-3-1.4-3-3l0,0c0-1.7,1.4-3,3-3h113.8c1.7,0,3,1.4,3,3l0,0
				C899.2,661.9,897.8,663.3,896.1,663.3z"/>
			<path class="st7" d="M899.6,677.1H785.8c-1.7,0-3-1.4-3-3l0,0c0-1.7,1.4-3,3-3h113.8c1.7,0,3,1.4,3,3l0,0
				C902.6,675.7,901.3,677.1,899.6,677.1z"/>
		</g>
		<g>
			<path class="st5" d="M774.1,560.7h-39c-3.2,0-5.8-2.6-5.8-5.8l0,0c0-3.2,2.6-5.8,5.8-5.8h39c3.2,0,5.8,2.6,5.8,5.8l0,0
				C779.9,558,777.3,560.7,774.1,560.7z"/>
			<path class="st5" d="M881.2,560.7h-39c-3.2,0-5.8-2.6-5.8-5.8l0,0c0-3.2,2.6-5.8,5.8-5.8h39c3.2,0,5.8,2.6,5.8,5.8l0,0
				C887,558,884.4,560.7,881.2,560.7z"/>
			<path class="st5" d="M988.4,560.7h-39c-3.2,0-5.8-2.6-5.8-5.8l0,0c0-3.2,2.6-5.8,5.8-5.8h39c3.2,0,5.8,2.6,5.8,5.8l0,0
				C994.2,558,991.6,560.7,988.4,560.7z"/>
			<path class="st5" d="M1095.5,560.7h-39.1c-3.2,0-5.8-2.6-5.8-5.8l0,0c0-3.2,2.6-5.8,5.8-5.8h39.1c3.2,0,5.8,2.6,5.8,5.8l0,0
				C1101.4,558,1098.8,560.7,1095.5,560.7z"/>
			<path class="st5" d="M1202.7,560.7h-39.1c-3.2,0-5.8-2.6-5.8-5.8l0,0c0-3.2,2.6-5.8,5.8-5.8h39.1c3.2,0,5.8,2.6,5.8,5.8l0,0
				C1208.5,558,1205.9,560.7,1202.7,560.7z"/>
			<path class="st5" d="M1309.9,560.7h-39.1c-3.2,0-5.8-2.6-5.8-5.8l0,0c0-3.2,2.6-5.8,5.8-5.8h39.1c3.2,0,5.8,2.6,5.8,5.8l0,0
				C1315.7,558,1313.1,560.7,1309.9,560.7z"/>
			<path class="st5" d="M1417,560.7h-39.1c-3.2,0-5.8-2.6-5.8-5.8l0,0c0-3.2,2.6-5.8,5.8-5.8h39.1c3.2,0,5.8,2.6,5.8,5.8l0,0
				C1422.9,558,1420.2,560.7,1417,560.7z"/>
		</g>
		<path class="st3" d="M1822.6,1171.4h-68.8c-3.7-3.1,2.6-10.2,9.1-10.7c2.8-0.2,6.4,0.4,10.5,1.2c0.9-12.6,6.4-69.1,26.7-66.9
			c22.9,2.5,0,24.9-6.5,38.1c-4.8,9.8-9.9,23.9-12.2,30.5c1.9,0.4,3.8,0.8,5.8,1.2c3-9.3,14.3-40.7,28.7-38.9
			c16.9,2.1,10.1,14.7-1.9,22.2c-8.8,5.5-19.6,13.3-24.7,17.1c4.3,0.7,8.9,1.2,13.5,1.1C1814.6,1166.1,1820.3,1169.6,1822.6,1171.4z
			"/>
		<path class="st3" d="M251.4,1168.1c-3.6-5.7-14.6-20.6-29.2-18.6c-15.9,2.1,17.6,12.7,27.9,18.7c-2.3,0-4.2-0.2-5.7-0.7
			c-6.9-2.4-18.6,2.2-22.4,3.9h65.3c-0.5-1.6-1.6-4.1-4.7-6c-1.1-0.7-3.2-0.8-6-0.5c3.9-4.6,6.6-19.2-4.2-15.4
			c-7.9,2.8-7.9,11.7-7.1,17c-1.7,0.3-3.4,0.5-5.1,0.8c-3.2-16.6-14.8-65.2-38.1-66.4c-23.6-1.3,20,50.4,34.6,66.9
			C254.8,1167.9,253,1168.1,251.4,1168.1z"/>
	</g>
</g>
<g>
	<g>
		<path class="st9" d="M1517.8,865c2,8.3,3,17.5,1.5,25.9c-19.1,8.9-18.2-25.9-18.2-25.9C1508.2,867.7,1517.8,865,1517.8,865z"/>
		<path class="st9" d="M1465.8,868.9c0,0,5.4,34-19.8,35.5c0,0-24.5,1.5-19.8-34.2C1426.2,870.2,1444.4,875.4,1465.8,868.9z"/>
		<path class="st9" d="M1480.6,898.2l-4.2,63.8l-9-29.8l0,0c0.4-4.6,0.9-8.3,1.2-10.6c0.2-1.7,0.9-3.3,2-4.8
			C1475,910.9,1478.2,904.5,1480.6,898.2z"/>
		<path class="st10" d="M1516.2,825.2c8-10.8,10.9-32.8,10.9-32.8c0.9-7.5,4.6-14.9,8.2-20.7c1.2-1.9,2.4-3.7,3.5-5.2l-9.6-30.9
			l4.2-5.2l7.7-9.5l23.5,34.7c4,5.9,4.7,13.5,1.8,20.1c-5.2,11.9-14,31.1-21.4,44c-3,5.2-6.8,9.9-11.3,13.8c-1,0.9-1.8,2-2.4,3.2
			c-1.1,2.2-3.2,6.1-6.5,9.5l-16.3-7l0,0l-8.6,0.9c-0.3,0-0.7,0-1-0.1c-1.3-0.2-2.4-1.2-2.7-2.5c-0.5-1.8,0.6-3.7,2.4-4.2l6-1.6
			l3-0.8c2.1-0.2,4-1.1,5.7-2.6l0,0C1514.3,827.5,1515.3,826.4,1516.2,825.2z"/>
		<path class="st11" d="M1478.1,840.4c7.6-0.4,14.7-0.5,20.9-0.3c0.2,0.1,0.4,0.1,0.6,0.1c0.1,0,0.2,0,0.4,0l8.6-0.9l0,0
			c0.2,0.3,2.8,5.5,5.5,13c1.3,3.7,2.7,8.1,3.8,12.7c0,0-9.7,2.7-16.7,0c0,0-0.9,34.8,18.2,25.9c-0.3,1.5-0.6,3-1.1,4.5
			c-0.4,1.3-0.4,2.7-0.2,4.1c2.2,13.5,13.3,82,20.5,114.6c0.6,2.9,1.1,5.8,1.3,8.7l9.4,124.3c0,0-0.8,0.2-2.1,0.6
			c-5.7,1.4-21.6,4.6-30.6-0.6l-32-157c-0.5-2.3-1.1-4.6-1.7-6.8l-6.4-21.3l4.2-63.8c-2.4,6.3-5.6,12.7-10,18.6
			c-1.1,1.4-1.8,3-2,4.8c-0.3,2.3-0.7,6-1.2,10.6l0,0c-0.9,8.9-1.8,21-1.8,32.2l-6.1,123.2l1.7,64.4c0,0-0.6,0.2-1.8,0.5
			c-5.8,1.5-24.7,6-33.8,1.4c-1-0.5-1.9-1.1-2.6-1.9l-5.9-149.8c-0.2-3.7-0.6-7.4-1.3-11c-3.5-17.1-14-72.6-14.6-118.9
			c-0.1-7.9,0.1-15.6,0.6-22.8l0.1-0.5l1.4,0.2c2.1,0.2,4.2-0.2,6.1-1.2l0,0c0.5-0.1,6.8-1,16.1-2.3
			C1439.3,843.8,1459.8,841.4,1478.1,840.4z M1446,904.4c25.1-1.5,19.8-35.5,19.8-35.5c-21.4,6.5-39.6,1.3-39.6,1.3
			C1421.4,905.9,1446,904.4,1446,904.4z"/>
		<path class="st12" d="M1547.1,1147.6c0,0,1.3,10.2,1.1,20.5c-0.1,3.6-2.5,6.8-6,7.8c-3,0.9-6.9,1.5-11.1,1
			c-1.7-0.2-3.2-0.8-4.6-1.9c-2.7-2.1-8.6-6-13.2-6c0,0-13.9,0.5-19.9-10.1c-0.6-1-1-2.1-1.2-3.3c-0.2-0.8-0.3-1.8-0.3-2.8
			c0-1.7,0.9-3.2,2.5-3.8c3.6-1.4,12.2-4.2,22.2-2.1C1525.5,1152.2,1541.4,1149,1547.1,1147.6L1547.1,1147.6L1547.1,1147.6z"/>
		<path class="st13" d="M1529.2,735.6l9.6,30.9c-1.1,1.5-2.3,3.2-3.5,5.2l-0.3-0.2l-15.7-23.7L1529.2,735.6z"/>
		<path class="st13" d="M1508.5,839.3l16.3,7c-2.8,2.8-6.4,5.3-10.8,6.1C1511.3,844.8,1508.7,839.6,1508.5,839.3z"/>
		<path class="st10" d="M1462,640.9c2.4-0.2,4.6-1,6.2-1.9c0.4-0.2,0.8-0.4,1.1-0.7c0,0,3.3,9.3,4.6,12.7v0.2
			c-0.8,0-1.7,0.2-2.5,0.3l-23.3,5l-13.4,2.9l-0.2-0.7c-0.1-0.8-0.2-1.7-0.4-2.4l0,0l3.7-22.5l-0.3,0.9c-1.1,2.9-3.5,5.2-6.4,6.2
			l-7.3,2.3l-3.3,1c-11,2.2-11.1-6.4-11.1-6.4l1.4-17.7l1.4-17.1l0.2-2.2c0.4-4.9,1.3-9.8,2.8-14.6l1.8-6v-0.1
			c0.7,0.2,1.6,0.2,2.7,0.1c0,0,7.3-3,7.3,0.9l-4.3,11.2c-0.5,1.4-0.4,2.9,0.4,4.2l1.8,2.9c0.6,1,1,2.2,1,3.4l0.2,4.5
			c0,1,0.4,2,1.1,2.7s1.6,1.2,2.6,1.3c2,0.2,3.9-1.1,4.4-3.1l0.2-0.7c0.3-1.3,1.6-2.2,3-2c2.5,0.4,6.2,1.9,6.3,7l0,0
			c0.6,0.9,2,4.7,2.7,6.6c0.3,0.7,0.4,1.5,0.4,2.3c0.2,4.8,1.2,8.8,2.3,11.7c0.6,1.5,1.4,2.9,2.6,4.1c1.9,2.1,4.6,3.5,7.5,3.8
			C1460,641,1461,641,1462,640.9z"/>
		<path class="st12" d="M1459.4,1152.5c7.3,12.6,4.1,31.2,2.9,36.5c-0.2,1-0.8,2-1.7,2.6c-5.2,3.8-13.8,3.7-18.9,3.3
			c-2.3-0.2-4.4-0.8-6.5-1.7c-9.1-3.8-21.8-2.2-21.8-2.2c-24.2,3.3-36.8-3.9-40.9-6.9c-1.1-0.8-1.7-2.2-1.5-3.6
			c1.1-5.7,8.7-6.9,8.7-6.9c24.7-3.2,45.8-19.8,45.8-19.8C1434.7,1158.4,1453.6,1154,1459.4,1152.5z"/>
		<path class="st13" d="M1437.9,633.8l-3.7,22.5l0,0c-2.5-11.9-10.4-13.2-10.4-13.2l7.3-2.3c3-0.9,5.4-3.2,6.4-6.2L1437.9,633.8z"/>
		<path class="st10" d="M1429.2,835.3c0.9,0.7,1.5,1.7,1.6,2.9c0,0.1,0,0.2,0,0.4c0,2.1-1.6,3.8-3.7,4.1l-3.3,0.3
			c-1.4-2.6-2.5-5.2-3.1-8l5.7-0.4C1427.5,834.4,1428.4,834.8,1429.2,835.3z"/>
		<path class="st10" d="M1401.8,848.9l-0.1,0.5l-9.4,18.2c-3.1-3.2-5.7-7.4-7.3-10.7c-1.4-2.8-2.2-5.9-2.2-9.1v-6.5
			c0-1.2-0.1-2.4-0.3-3.6l-11-47.6c-3-13.1-1.5-26.8,4.3-38.9l4.7-9.7c3.4,1,8.1,2.2,14.2,3c1.4,0.2,2.8,0.4,4.4,0.5l5.5,31.3
			l-2.5,9.2c-0.7,2.7-1.1,5.4-1.2,8.1c-0.1,3.8-0.1,9.6,0.2,15.6c0.5,9.7,1.8,20.1,5.2,23.5c0,0,1.5,2.6,7.6,2.6l6.7-0.5
			c0.6,2.8,1.7,5.5,3.1,8l-4.6,0.4c-1.3,0.1-2.6,0.5-3.7,1.1l-6.2,3.3l0,0c-1.9,1-4,1.4-6.1,1.2L1401.8,848.9z"/>
		<path class="st13" d="M1412.8,746.1L1412.8,746.1l-8.2,30.4l-5.5-31.3C1403.1,745.6,1407.7,745.9,1412.8,746.1z"/>
		<polygon class="st13" points="1412.2,603 1410.8,620.1 1404.3,618.5 		"/>
		<path class="st13" d="M1392.4,867.7l9.4-18.2c-0.6,7.2-0.8,14.8-0.6,22.8l0,0C1397.9,872.2,1395,870.3,1392.4,867.7z"/>
		<g>
			<path class="st14" d="M1496.2,837.7c-0.5-1.8,0.6-3.7,2.4-4.2l6-1.6c-13.2-0.9-24.6-1.1-34.4-0.8c-26.6,0.6-40.4,4.2-41,4.4
				c0.9,0.7,1.5,1.7,1.6,2.9c0,0.1,0,0.2,0,0.4c0,2.1-1.6,3.8-3.7,4.1l-3.3,0.3l-4.6,0.4c-1.3,0.1-2.6,0.5-3.7,1.1l-6.2,3.3
				c0.5-0.1,6.8-1,16.1-2.3c13.8-1.8,34.3-4.2,52.6-5.2c7.6-0.4,14.7-0.5,20.9-0.3C1497.6,839.9,1496.5,839,1496.2,837.7z"/>
			<path class="st14" d="M1541.6,716.2l-1.9-3.6c-0.3,0.3-4.4,5.7-9.3,11.8c-5.4,6.8-11.7,14.5-14.4,17.2l0,0
				c-0.2,2.1-0.5,4.2-0.9,6.4l-1.2,6.5l5.4-6.7l10-12.2l4.2-5.2l7.7-9.5C1542.2,719.6,1542.4,717.7,1541.6,716.2z"/>
			<path class="st15" d="M1434.4,726.8c-2.8-1.2-5.8-2-8.8-2.5c-6.1-1.2-12.4-1.6-18.3-3.5c-7.3-2.3-15.8-7.5-20.7-14.4l-10.6,25.2
				c0,0,12.5,4.8,28.2,7.8c4.2-1.8,8.8-3.3,12.7-4c1.8-0.3,3.5-0.4,5.2-0.2c9.5,0.8,17,8.5,16.7,18.4c-0.4,12.1-6.6,18.1-15.7,24.9
				c-4.7,3.5-9,7.2-12.3,11.5c-0.3,1.8-0.5,3.7-0.7,5.5c-1.1,10.1-1.3,39.5-3.6,37.3c0,0,1.5,2.6,7.6,2.6l6.7-0.5
				c-1-4.5-1.1-9.3,0.1-14.8c2-9.5,7.1-16.3,13.4-23.5c6-6.9,13.9-11.7,18.2-20c4.5-8.7,4.5-21.4,0.5-30.3
				C1449.4,738.4,1442.5,730.2,1434.4,726.8z M1536,705.7c-1.8-0.9-3.7-1.7-5.7-2.2c-3.9-1-8-0.8-12-1.2c-0.6-0.1-1.3-0.1-1.9-0.2
				c-10.4-1.6-17.8-4.8-24.5-13c-7.9-9.6-8.8-22.6-3.1-32.4l-4.5-2.8c-2.6-1.7-5.5-2.5-8.5-2.7c-3.1,4.2-5.1,9.6-5.7,14.7
				c-1.8,12.8,3.2,25.7,12.5,34.4c9.5,8.9,20.3,9.2,31.8,13.5c1.1,0.4,2.2,0.8,3.2,1.3c3,1.3,6.1,2.8,8.6,4.8c1.7,1.3,3,2.9,4.2,4.6
				c4.9-6.1,9.1-11.5,9.3-11.8L1536,705.7z M1492.1,805.5c-3.6-10,1.7-23,4.1-32.8c3.8-15.5,7.1-33.2-4.6-46.1
				c-9.8-10.8-22.6-18-34.1-26.9c-9.1-7-14.1-21.1-12.7-32.5c0.5-3.8,1.8-7.2,3.3-10.6l-13.4,2.9l-13.4,2.9
				c-5.2,1.1-9.8,3.8-13.4,7.7l-5.5,6c-1,1.1-1.9,2.2-2.8,3.3c4.4,4.8,11,8.7,14.5,10.9c16.2,10,36.1,14.5,49.6,28.8
				c14.3,15.2,16.5,36.7,9.8,55.7c-5.6,15.8-11.8,39.8-3.3,56.2c9.8-0.2,21.2-0.1,34.4,0.8l3-0.8v-8.2
				C1500.5,819.7,1495.2,814,1492.1,805.5z"/>
			<path class="st16" d="M1438.7,753.6c0.3-9.9-7.2-17.6-16.7-18.4c-1.7-0.2-3.4-0.1-5.2,0.2c-3.9,0.7-8.4,2.1-12.7,4
				c4.9,1,10.2,1.8,15.5,2.2c-1.1,2.8-1.9,4.5-1.9,4.5c-0.8,0-1.6,0-2.3,0c0,0,0.3,15.4-4.3,41.4c-0.2,0.8-0.3,1.7-0.4,2.6
				c3.3-4.3,7.6-8,12.3-11.5C1432.1,771.7,1438.3,765.7,1438.7,753.6z M1526.2,719.7c-2.5-2-5.5-3.5-8.6-4.8
				c-1.1-0.5-2.2-0.9-3.2-1.3c-11.5-4.2-22.3-4.6-31.8-13.5c-9.2-8.6-14.2-21.5-12.5-34.4c0.7-5,2.7-10.5,5.7-14.7
				c-0.6,0-1.3,0-1.9,0c-0.8,0-1.7,0.2-2.5,0.3l-23.3,5c-1.5,3.4-2.9,6.8-3.3,10.6c-1.4,11.3,3.6,25.4,12.7,32.5
				c11.5,8.8,24.3,16.1,34.1,26.9c11.7,12.9,8.4,30.6,4.6,46.1c-2.4,9.8-7.7,22.8-4.1,32.8c3.1,8.6,8.5,14.2,15.5,17.3v-27.3
				c0-4.1,0.4-8.2,1.1-12.2l5.2-28.8l1.2-6.5c0.4-2.1,0.7-4.2,0.9-6.4l0,0c2.7-2.7,9-10.4,14.4-17.2
				C1529.2,722.7,1527.8,721.1,1526.2,719.7z M1516.4,702c0.6,0.1,1.3,0.2,1.9,0.2c4,0.4,8.1,0.2,12,1.2c2,0.5,3.9,1.3,5.7,2.2
				l-11.4-21.4c-2.8-5.2-6.9-9.5-12.1-12.5l-23.7-15c-5.8,9.8-4.8,22.7,3.1,32.4C1498.6,697.2,1506.1,700.4,1516.4,702z
				 M1414.2,690.3c-3.6-2.2-10.1-6.1-14.5-10.9c-2.5,3.3-4.6,6.9-6.2,10.7l-6.8,16.2c4.9,6.9,13.4,12.1,20.7,14.4
				c5.9,1.9,12.2,2.3,18.3,3.5c3,0.6,6,1.3,8.8,2.5c8.1,3.4,14.9,11.6,18.4,19.5c4,9,4,21.6-0.5,30.3c-4.3,8.4-12.2,13.2-18.2,20
				c-6.2,7.2-11.4,14-13.4,23.5c-1.1,5.5-1.1,10.3-0.1,14.8l5.7-0.4c1-0.1,2,0.2,2.8,0.8c0.6-0.2,14.4-3.7,41-4.4
				c-8.5-16.4-2.3-40.5,3.3-56.2c6.8-19,4.5-40.5-9.8-55.7C1450.3,704.8,1430.3,700.3,1414.2,690.3z"/>
			<path class="st14" d="M1404.2,739.4c-15.7-3.1-28.2-7.8-28.2-7.8l-1.7,4.1c-0.7,1.7,0.1,3.7,1.8,4.4c1.2,0.5,2.7,1,4.5,1.6l0,0
				c3.4,1,8.1,2.2,14.2,3c1.4,0.2,2.8,0.4,4.4,0.5c4,0.4,8.6,0.8,13.7,0.9c0.8,0,1.7,0,2.6,0c0.8,0,1.6,0,2.3,0c0,0,0.8-1.7,1.9-4.5
				C1414.4,741.2,1409.1,740.4,1404.2,739.4z"/>
		</g>
		<path class="st17" d="M1433,622.1c2.3,0.1,4.5-0.4,6.2-1.6c1.6-1.3,2.7-3.1,3.2-5.2c0.4-2,0.6-4.3-0.2-6.1
			c-0.8-1.9-2.8-3.1-4.9-3.8c1.1,0,2.3,0.3,3.3,0.8c1.1,0.5,2,1.4,2.6,2.4c0.6,1.1,0.9,2.3,1,3.5c0,0.6,0,1.2-0.1,1.8
			c0,0.6-0.1,1.2-0.3,1.8c-0.6,2.3-1.9,4.5-4,5.8C1437.7,622.7,1435.2,622.7,1433,622.1z"/>
		<path class="st17" d="M1543.4,760.7c-1.4,2-2.7,4-4.1,6c-1.2,2.1-2.6,4-3.9,6.1c-2.5,4.1-4.8,8.3-6.8,12.7c0.9-4.8,3-9.3,5.5-13.5
			c1.3-2.1,2.8-4,4.2-6C1539.9,764.2,1541.6,762.4,1543.4,760.7z"/>
		<path class="st18" d="M1487.1,859.2c0.5,6.4,0.1,12.8-0.8,19.2c-0.9,6.4-2.4,12.7-4.6,18.8c-2.2,6.1-5.1,11.9-8.8,17.2
			c-0.9,1.3-2,2.6-2.8,3.9s-1.2,2.8-1.3,4.4c-0.5,3.2-0.9,6.3-1.4,9.5c0.2-3.2,0.5-6.4,0.7-9.6c0.1-1.6,0.4-3.3,1.2-4.8
			c0.4-0.8,0.9-1.4,1.3-2.1s0.9-1.3,1.3-2c3.4-5.3,6.2-11.1,8.3-17.1c2.2-5.9,3.8-12.2,4.8-18.4c0.6-3.1,1-6.3,1.3-9.5
			C1486.9,865.6,1487,862.4,1487.1,859.2z"/>
		<path class="st17" d="M1524.9,831.8c-2.1-0.4-3.9-1.1-5.8-1.7s-3.7-1.3-5.8-1.7l0,0l0,0l0,0l0,0c1-0.4,2.1-0.5,3.2-0.4
			s2.1,0.3,3.1,0.7c1,0.3,1.9,0.8,2.8,1.3S1524.1,831,1524.9,831.8z"/>
		<g>
			<path class="st17" d="M1423.8,843c-1.1,0.3-2.2,0.5-3.3,0.7c-1.1,0.2-2.2,0.4-3.2,0.8c-0.5,0.2-1,0.4-1.4,0.7l-1.5,0.8l-3,1.6
				c-1,0.5-2,1.1-3.1,1.5c-1.2,0.4-2.3,0.6-3.6,0.6c-1.2,0-2.3-0.3-3.4-0.5s-2.2-0.4-3.3-0.7c1.1,0,2.3,0,3.4,0s2.3,0.1,3.3,0
				c1.1-0.1,2.1-0.3,3.1-0.7c1-0.4,1.9-1,2.9-1.5l3-1.6l1.5-0.8c0.5-0.3,1.1-0.5,1.7-0.7c1.2-0.3,2.4-0.4,3.5-0.4
				C1421.5,843,1422.7,842.9,1423.8,843z"/>
		</g>
		<g>
			<path class="st12" d="M1477.6,575.3c-1.9-0.6-3.4-2.2-3.8-4.2c-2.5-13.6-14.5-17.1-19.5-17.9c-1.4-0.2-2.2-0.3-2.2-0.3
				c-9.4-1.3-16.6-0.8-21.9,0.6c-8.7,2.3-12.8,7.1-14.6,10.3c-1,1.9-1.3,3.2-1.3,3.2s-3.2,11.6,2.7,13.2c0.7,0.2,1.6,0.2,2.7,0.1
				c0,0,7.3-3,7.3,0.9l-4.3,11.2c-0.5,1.4-0.4,2.9,0.4,4.2l1.8,2.9c0.6,1,1,2.2,1,3.4l0.2,4.5c0,1,0.4,2,1.1,2.7s1.6,1.2,2.6,1.3
				c2,0.2,3.9-1.1,4.4-3.1l0.2-0.7c0.3-1.3,1.6-2.2,3-2c2.5,0.4,6.2,1.9,6.3,7l0,0c0.6,0.9,2,4.7,2.7,6.6c0.3,0.7,0.4,1.5,0.4,2.3
				c0.2,4.8,1.2,8.8,2.3,11.7c0.6,1.5,1.4,2.9,2.6,4.1c1.9,2.1,4.6,3.5,7.5,3.8c1.1,0.1,2.1,0.1,3,0c2.4-0.2,4.6-1,6.2-1.9
				c0.4-0.2,0.8-0.4,1.1-0.7c1.9-1.4,3.4-3.4,4-5.8c0.8-3.3,2.6-7.8,3.9-11c0.8-2,1.8-3.8,3.1-5.5c0.8-1.1,1.7-2.4,2.4-3.8
				c1.8-3.2,3.1-6.8,3.9-9c0.5-1.4,0.8-2.8,1-4.3C1489.8,581.9,1482.2,576.8,1477.6,575.3z"/>
			<path class="st19" d="M1482.8,611.9L1482.8,611.9c0.2-6.6-0.6-12.9-2.6-18.5c-1.1-3.2-3.3-6.4-6.6-9.4c-0.6-0.5-1.2-1-1.8-1.4
				c-1.2-0.9-2.4-1.8-3.1-3.2c-1.2-2.5-1.7-5.1-2.2-7.7c-0.7-3.6-1.3-7.3-3.9-10.6c-2.2-2.8-5.2-5.7-8-7.7l-0.9-0.1
				c0.1,0.1,0.2,0.1,0.3,0.2c3.4,2.4,6.5,5.7,8.3,7.9c2.6,3.2,3.2,6.9,3.9,10.4c0.5,2.6,1,5.3,2.2,7.8c0.7,1.5,1.9,2.4,3.2,3.3
				c0.6,0.5,1.2,0.9,1.7,1.4c3.2,3,5.4,6.2,6.5,9.3c1.9,5.6,2.8,12.1,2.5,18.7c0,0.1,0,0.2,0,0.4l0,0L1482.8,611.9z M1462.2,640.9
				c5.4-8.6,8.3-21.1,7.1-31.2c-0.9-7.7-2.6-16.4-9.1-22.9c-0.5-0.5-1-1-1.5-1.4c-2.1-2-3.4-3.2-3.9-6.4c-0.1-0.6-0.2-1.2-0.3-1.7
				c-0.9-5.3-1.8-10.7-6.1-14.4c-4.6-4-9.9-7-16.4-9.1c-0.5-0.2-1-0.3-1.5-0.5l-0.7,0.2c0.1,0,0.2,0,0.3,0.1
				c0.6,0.1,1.2,0.3,1.8,0.5c6.4,2.1,11.7,5,16.2,9c4.1,3.6,5,9,5.9,14.2c0.1,0.6,0.2,1.1,0.3,1.7c0.6,3.3,1.9,4.6,4.1,6.6
				c0.4,0.4,0.9,0.9,1.5,1.4c3.6,3.6,7.5,9.1,9,22.6c1.1,10-1.8,22.5-7.2,31.1l-0.1,0.1L1462.2,640.9z M1451.6,637.2
				C1451.6,637.1,1451.6,637.1,1451.6,637.2c5.8-11.5,6.1-25,0.9-38.1c-1.3-3.2-2.7-5.7-5.3-7.7c-0.5-0.3-1-0.6-1.5-0.9
				c-1-0.5-2-1-2.5-2c-0.9-1.6-0.7-4-0.6-6.2c0.1-1.6,0.2-3.1-0.1-4.3c-1-4.8-4.3-10.8-9.5-13.5c-4.7-2.3-10.4-2.8-16.1-1.4
				c-0.3,0.1-0.6,0.2-1.1,0.4v0.1l-0.2,0.5c0.1,0,0.1-0.1,0.2-0.1c0.6-0.2,1-0.3,1.3-0.4c5.7-1.4,11.3-1,15.8,1.4
				c5.1,2.6,8.4,8.5,9.3,13.2c0.2,1.2,0.1,2.7,0.1,4.2c-0.1,2.3-0.3,4.8,0.7,6.4c0.6,1.1,1.7,1.6,2.7,2.1c0.5,0.3,1.1,0.5,1.5,0.8
				c2.6,1.9,3.9,4.3,5.2,7.5c5.1,12.9,4.8,26.3-0.9,37.6L1451.6,637.2z"/>
		</g>
		<path class="st20" d="M1517.6,715c0.1,5-0.2,10-0.5,14.9c-0.3,5-0.8,9.9-1.4,14.8c-0.6,4.9-1.3,9.9-2.2,14.8
			c-0.9,4.9-1.9,9.8-3.2,14.6c0.2-2.5,0.5-5,0.7-7.4l0.8-7.4c0.5-4.9,1.1-9.8,1.7-14.8c0.6-4.9,1.2-9.8,1.9-14.8l1-7.4
			C1516.8,719.9,1517.1,717.4,1517.6,715z"/>
		<path class="st20" d="M1417.8,746.1c1-5.4,2.6-10.5,4.4-15.6s3.9-10.1,6.5-14.9c-1,5.4-2.6,10.5-4.4,15.6
			C1422.4,736.3,1420.4,741.3,1417.8,746.1z"/>
	</g>
</g>
</svg>
