<?xml version="1.0" encoding="utf-8"?>
<!-- Generator: Adobe Illustrator 27.0.0, SVG Export Plug-In . SVG Version: 6.00 Build 0)  -->
<svg version="1.1" id="Слой_1" xmlns="http://www.w3.org/2000/svg" xmlns:xlink="http://www.w3.org/1999/xlink" x="0px" y="0px"
	 viewBox="0 0 2049.4 1422.9" style="enable-background:new 0 0 2049.4 1422.9;" xml:space="preserve">
<style type="text/css">
	.st0{fill:#DDE8FD;}
	.st1{fill:#BED2FA;}
	.st2{fill:#93B3F4;}
	.st3{fill:#3A49CD;}
	.st4{fill:#E75755;}
	.st5{fill:#FFFFFF;}
	.st6{fill:#3662C1;}
	.st7{fill:#6D89CF;}
	.st8{fill:#FA7269;}
	.st9{fill:#D0D0EA;}
	.st10{fill:#003FA4;}
	.st11{fill:#FFB47E;}
	.st12{fill:#0076FF;}
	.st13{fill:#003474;}
	.st14{fill:#FF8A3E;}
	.st15{fill:#DC1414;}
	.st16{fill:#FF4B4B;}
	.st17{fill:#FF6548;}
	.st18{fill:#DE661B;}
	.st19{fill:#002B6A;}
	.st20{fill:#0054BE;}
	.st21{fill:#9B0101;}
	.st22{fill:#2E3192;}
	.st23{font-family:'MyriadPro-Semibold';}
	.st24{font-size:98px;}
	.st25{letter-spacing:-2;}
</style>
<g>
	<g>
		<path class="st0" d="M156.2,1385.1c0,0-234.8-308.6-39.7-642.6c173.1-296.4,322.4-451.9,510.7-482.8
			c109.9-18,176.2,250.2,330.9-51.4c211-411.3,1023.7-78.8,890.3,554c-64.6,306.2,196.5,317.4,63.5,623.5L156.2,1385.1z"/>
		<path class="st1" d="M607.1,897.8c0,0-116.2-165.3-161.6-143.9C400.2,775.4,607.1,897.8,607.1,897.8z"/>
		<path class="st1" d="M599.8,853.4c0,0-17.7-124.3-45.7-119.5C526.1,738.8,599.8,853.4,599.8,853.4z"/>
		<g>
			<path class="st2" d="M501.5,1240.9c0,0,11.2-55.3-32.2-62.3c0,0-29.4-1-46.7,10.1c0,0,49.2,28.4,43.3,37.2
				c-5.9,8.8-52.5-35.6-52.5-35.6s-52.7,23.1-64.5,39.8c0,0,62.3,11.1,54.5,18.2s-73.2-1.4-73.2-1.4s-42.1,33.9-23.8,60.9
				c18.4,27,39.3,26.8,45.9,22.1c6.6-4.7,39.1-43.5,43.2-38.2c4.1,5.3-10.1,38-27,48.6c0,0,53,17.9,69-4.8c16-22.6,8.6-40.2,18.7-54
				c10.1-13.8,21.7-20.3,19.7-10.8s-23.2,29.4-23.3,47.5s-1.9,31.3,18.8,15.3s48.1-53,39.2-72.8
				C501.5,1240.9,501.5,1240.9,501.5,1240.9z"/>
			<g>
				<path class="st3" d="M329.7,1295.9c0,0,123.7-75.5,171.8-54.9c0,0,16.5,15,44.9,21.3l7.5,6.4c0,0-34.8-10.9-43.4-7.9
					C510.5,1260.7,497.7,1209.1,329.7,1295.9z"/>
				<path class="st3" d="M546.5,1262.2c0,0,38.3,4.9,60.3,39.7l-4.7,3.2c0,0-29.4-32.2-53.2-38
					C525.1,1261.4,546.5,1262.2,546.5,1262.2z"/>
			</g>
		</g>
		<g>
			<path class="st1" d="M539.4,1079.5c0,0,89.8-50.3,47.9-118.6c0,0-33.5-41.9-69.5-52.7c0,0,19.2,101.8,0,104.2
				c-19.2,2.4-13.2-115-13.2-115S410,852,372.9,855.5c0,0,58.7,99.4,39.5,97s-85-103-85-103s-97-18-112.6,39.5
				c-15.6,57.5,9.6,86.2,23.9,89.8s106.6,2.4,104.2,14.4c-2.4,12-64.7,31.1-99.4,20.4c0,0,38.3,94.6,88.6,89.8s65.9-35.9,97-38.3
				c31.1-2.4,53.9,6,38.3,14.4s-68.3,2.8-93.4,24.1s-45.5,34.6,1.2,44.1s130.5,3.6,147.3-32.3
				C539.4,1079.5,539.4,1079.5,539.4,1079.5z"/>
			<g>
				<path class="st3" d="M259.1,907c0,0,251.5,81.4,280.3,172.5c0,0-1.2,40.7,24,87.4v18c0,0-26.3-61.1-40.7-69.5
					C522.6,1115.4,578.9,1036.4,259.1,907z"/>
				<path class="st3" d="M563.4,1166.9c0,0,38.8,58.9,16.7,130.6l-10-2.7c0,0,9.7-79-10.6-118.7
					C539.2,1136.4,563.4,1166.9,563.4,1166.9z"/>
			</g>
		</g>
		<path class="st4" d="M630.7,658.6l-134.4,694.8c-2.7,14.1,8.1,27.2,22.5,27.2h70.9L630.7,658.6z"/>
		<g>
			<path class="st2" d="M1524.1,857.5c0,0-60.4-38.6-28.6-84.4c0,0,25-27.8,50.4-33.9c0,0-17.4,70-4.2,72.5
				c13.2,2.4,13.8-79.4,13.8-79.4s67.6-27.9,93.3-23.9c0,0-44.8,66.8-31.4,65.9s63.2-68.2,63.2-68.2s68.2-8.6,76.7,32
				c8.5,40.6-10.1,59.6-20.2,61.5c-10.1,1.9-74.2-2.6-73,5.8c1.2,8.4,43.7,24.2,68.3,18.1c0,0-30.4,64.3-65.2,58.9
				c-34.8-5.3-44.4-27.6-65.9-30.5c-21.6-2.9-37.7,2-27.2,8.5c10.5,6.5,47.4,4.6,64,20.5s30.3,25.8-2.6,30.6
				c-32.9,4.8-90.9-2.7-101.2-28.4C1524.1,857.5,1524.1,857.5,1524.1,857.5z"/>
			<g>
				<path class="st2" d="M1725.9,748.8c0,0-178.2,46.6-201.8,108.7c0,0-0.8,28.4-20.2,59.8l-0.7,12.5c0,0,20.8-41.4,31.1-46.7
					C1534.3,883.2,1498.3,826,1725.9,748.8z"/>
				<path class="st2" d="M1503.9,917.4c0,0-29.3,39.4-16.8,90.2l7.1-1.5c0,0-3.6-55.3,12.1-82.1
					C1522,897.1,1503.9,917.4,1503.9,917.4z"/>
			</g>
		</g>
		<g>
			<path class="st5" d="M1361.3,690.1c0,0-92.9-20.4-74.1-92c0,0,18.4-46,47.3-65.2c0,0,10.3,95.1,27.9,92.1
				c17.6-3-19.2-105.2-19.2-105.2s71.4-65.6,105.2-72.4c0,0-25.2,103.6-8.9,96.3s47.6-113.8,47.6-113.8s80.9-41.9,110.1,4.8
				c29.2,46.6,14.6,78.8,2.9,85.8s-93.6,30.7-88.3,40.6s65.5,10.2,93.3-8.6c0,0-8.5,93.9-54.3,103.2c-45.8,9.2-67.9-14.1-96-7.9
				s-46,19.7-30,23s61.1-15.9,89.1-3.7c28,12.2,49.5,18.3,10.8,39.3c-38.7,21-114.4,38.2-138.9,10.9
				C1361.3,690.1,1361.3,690.1,1361.3,690.1z"/>
			<g>
				<path class="st5" d="M1562.9,462.6c0,0-200.5,139.4-201.5,227.6c0,0,12,35.7,2.2,83.7l4.8,15.9c0,0,6.9-61.1,17.4-72.3
					C1385.8,717.4,1314.8,662.6,1562.9,462.6z"/>
				<path class="st5" d="M1363.6,773.8c0,0-18.5,62.5,20.3,119.9l8.1-5c0,0-29.7-67.2-22.4-107.8
					C1376.8,740.4,1363.6,773.8,1363.6,773.8z"/>
			</g>
		</g>
		<path class="st6" d="M632.3,655.8L543.2,1338c-3,22.6,14.7,42.7,37.5,42.7h130.7l-73.7-727.4L632.3,655.8z"/>
		<path class="st7" d="M632.3,655.8l-39.9,677.9c-1.5,25.5,18.8,47,44.3,47h194.9L632.3,655.8z"/>
		<path class="st3" d="M630.8,661.4l19.4,672.3c-1.5,25.5,18.8,47,44.3,47h194.9L630.8,661.4z"/>
		<path class="st5" d="M1564,1380.7H795.5c-19.2,0-35.6-13.7-39.1-32.6L639.5,708.6c-5.3-29,17-55.8,46.5-55.8h759.5
			c19.2,0,35.6,13.7,39.1,32.6l118.6,648.4C1607.5,1358.2,1588.8,1380.7,1564,1380.7z"/>
		<path class="st8" d="M654.7,791.7h849.8L1482.7,671c-1.9-10.5-11-18.1-21.7-18.1H637.9c-4.5,0-7.9,4.1-7.1,8.5L654.7,791.7z"/>
		<g>
			<g>
				<g>
					<path class="st6" d="M674.5,616.5c-20.3,0-36.8,16.5-36.8,36.8h7.1c0-16.4,13.3-29.8,29.8-29.8c16.4,0,29.8,13.3,29.8,29.8
						c0,3.3-0.5,6.5-1.5,9.4c-2.9,8.8-9.8,15.7-18.5,18.7c-2.5,0.9-5.2,1.4-8,1.6v7.1c3.3-0.2,6.4-0.7,9.4-1.7
						c12-3.8,21.3-13.5,24.5-25.7c0.8-3,1.2-6.2,1.2-9.4C711.4,633,694.9,616.5,674.5,616.5z"/>
				</g>
				<path class="st6" d="M685.9,686.4c0,0.7-0.1,1.5-0.3,2.1c-0.9,3.4-4,5.8-7.7,5.8c-4.4,0-8-3.6-8-8s3.6-8,8-8
					c2.6,0,4.8,1.2,6.3,3.1C685.3,682.8,685.9,684.5,685.9,686.4z"/>
			</g>
			<g>
				<g>
					<path class="st6" d="M806.6,616.5c-20.3,0-36.8,16.5-36.8,36.8h7.1c0-16.4,13.4-29.8,29.8-29.8c16.4,0,29.8,13.3,29.8,29.8
						c0,3.3-0.5,6.5-1.5,9.4c-2.9,8.8-9.8,15.7-18.5,18.7c-2.5,0.9-5.2,1.4-8,1.6v7.1c3.3-0.2,6.4-0.7,9.4-1.7
						c12-3.8,21.3-13.5,24.5-25.7c0.8-3,1.2-6.2,1.2-9.4C843.5,633,827,616.5,806.6,616.5z"/>
				</g>
				<path class="st6" d="M818,686.4c0,0.7-0.1,1.5-0.3,2.1c-0.9,3.4-4,5.8-7.7,5.8c-4.4,0-8-3.6-8-8s3.6-8,8-8
					c2.6,0,4.9,1.2,6.3,3.1C817.4,682.8,818,684.5,818,686.4z"/>
			</g>
			<g>
				<g>
					<path class="st6" d="M938.7,616.5c-20.3,0-36.8,16.5-36.8,36.8h7.1c0-16.4,13.3-29.8,29.8-29.8c16.4,0,29.8,13.3,29.8,29.8
						c0,3.3-0.5,6.5-1.5,9.4c-2.9,8.8-9.8,15.7-18.5,18.7c-2.5,0.9-5.2,1.4-8,1.6v7.1c3.3-0.2,6.4-0.7,9.4-1.7
						c12-3.8,21.3-13.5,24.5-25.7c0.8-3,1.2-6.2,1.2-9.4C975.6,633,959,616.5,938.7,616.5z"/>
				</g>
				<path class="st6" d="M950.1,686.4c0,0.7-0.1,1.5-0.3,2.1c-0.9,3.4-4,5.8-7.7,5.8c-4.4,0-8-3.6-8-8s3.6-8,8-8
					c2.6,0,4.8,1.2,6.3,3.1C949.5,682.8,950.1,684.5,950.1,686.4z"/>
			</g>
			<g>
				<g>
					<path class="st6" d="M1070.8,616.5c-20.3,0-36.8,16.5-36.8,36.8h7.1c0-16.4,13.3-29.8,29.8-29.8c16.4,0,29.8,13.3,29.8,29.8
						c0,3.3-0.5,6.5-1.5,9.4c-2.9,8.8-9.8,15.7-18.5,18.7c-2.5,0.9-5.2,1.4-8,1.6v7.1c3.3-0.2,6.4-0.7,9.4-1.7
						c12-3.8,21.3-13.5,24.5-25.7c0.8-3,1.2-6.2,1.2-9.4C1107.7,633,1091.1,616.5,1070.8,616.5z"/>
				</g>
				<path class="st6" d="M1082.2,686.4c0,0.7-0.1,1.5-0.3,2.1c-0.9,3.4-4,5.8-7.7,5.8c-4.4,0-8-3.6-8-8s3.6-8,8-8
					c2.6,0,4.8,1.2,6.3,3.1C1081.6,682.8,1082.2,684.5,1082.2,686.4z"/>
			</g>
			<g>
				<g>
					<path class="st6" d="M1202.9,616.5c-20.3,0-36.8,16.5-36.8,36.8h7.1c0-16.4,13.4-29.8,29.8-29.8s29.8,13.3,29.8,29.8
						c0,3.3-0.5,6.5-1.5,9.4c-2.9,8.8-9.8,15.7-18.5,18.7c-2.5,0.9-5.2,1.4-8,1.6v7.1c3.3-0.2,6.4-0.7,9.4-1.7
						c12-3.8,21.3-13.5,24.5-25.7c0.8-3,1.2-6.2,1.2-9.4C1239.8,633,1223.2,616.5,1202.9,616.5z"/>
				</g>
				<path class="st6" d="M1214.3,686.4c0,0.7-0.1,1.5-0.3,2.1c-0.9,3.4-4,5.8-7.7,5.8c-4.4,0-8-3.6-8-8s3.6-8,8-8
					c2.6,0,4.9,1.2,6.3,3.1C1213.7,682.8,1214.3,684.5,1214.3,686.4z"/>
			</g>
			<g>
				<g>
					<path class="st6" d="M1335,616.5c-20.3,0-36.8,16.5-36.8,36.8h7.1c0-16.4,13.3-29.8,29.8-29.8s29.8,13.3,29.8,29.8
						c0,3.3-0.5,6.5-1.5,9.4c-2.9,8.8-9.8,15.7-18.5,18.7c-2.5,0.9-5.2,1.4-8,1.6v7.1c3.3-0.2,6.4-0.7,9.4-1.7
						c11.9-3.8,21.3-13.5,24.5-25.7c0.8-3,1.2-6.2,1.2-9.4C1371.8,633,1355.3,616.5,1335,616.5z"/>
				</g>
				<path class="st6" d="M1346.4,686.4c0,0.7-0.1,1.5-0.3,2.1c-0.9,3.4-4,5.8-7.7,5.8c-4.4,0-8-3.6-8-8s3.6-8,8-8
					c2.6,0,4.8,1.2,6.3,3.1C1345.8,682.8,1346.4,684.5,1346.4,686.4z"/>
			</g>
			<g>
				<g>
					<path class="st6" d="M1467.1,616.5c-20.3,0-36.8,16.5-36.8,36.8h7.1c0-16.4,13.3-29.8,29.8-29.8s29.8,13.3,29.8,29.8
						c0,3.3-0.5,6.5-1.5,9.4c-2.9,8.8-9.8,15.7-18.5,18.7c-2.5,0.9-5.2,1.4-8,1.6v7.1c3.3-0.2,6.4-0.7,9.4-1.7
						c11.9-3.8,21.3-13.5,24.5-25.7c0.8-3,1.2-6.2,1.2-9.4C1503.9,633,1487.4,616.5,1467.1,616.5z"/>
				</g>
				<path class="st6" d="M1478.5,686.4c0,0.7-0.1,1.5-0.3,2.1c-0.9,3.4-4,5.8-7.7,5.8c-4.4,0-8-3.6-8-8s3.6-8,8-8
					c2.6,0,4.8,1.2,6.3,3.1C1477.9,682.8,1478.5,684.5,1478.5,686.4z"/>
			</g>
		</g>
		<g>
			<path class="st7" d="M1146.1,1018.5h-43c-5,0-9.8-4.1-10.8-9l-8.3-43c-1-5,2.3-9,7.3-9h43c5,0,9.8,4.1,10.8,9l8.3,43
				C1154.3,1014.5,1151.1,1018.5,1146.1,1018.5z"/>
			<path class="st7" d="M1254.5,1018.5h-43c-5,0-9.8-4.1-10.8-9l-8.3-43c-1-5,2.3-9,7.3-9h43c5,0,9.8,4.1,10.8,9l8.3,43
				C1262.8,1014.5,1259.5,1018.5,1254.5,1018.5z"/>
			<path class="st6" d="M1362.9,1018.5h-43c-5,0-9.8-4.1-10.8-9l-8.3-43c-1-5,2.3-9,7.3-9h43c5,0,9.8,4.1,10.8,9l8.3,43
				C1371.2,1014.5,1367.9,1018.5,1362.9,1018.5z"/>
			<path class="st7" d="M820.9,1018.5h-43c-5,0-9.8-4.1-10.8-9l-8.3-43c-1-5,2.3-9,7.3-9h43c5,0,9.8,4.1,10.8,9l8.3,43
				C829.2,1014.5,825.9,1018.5,820.9,1018.5z"/>
			<path class="st8" d="M773.8,889.5h-18.5c-2.1,0-4.2-1.8-4.6-3.9l-3.6-18.5c-0.4-2.1,1-3.9,3.1-3.9h18.5c2.1,0,4.2,1.8,4.6,3.9
				l3.6,18.5C777.4,887.8,776,889.5,773.8,889.5z"/>
			<path class="st7" d="M929.3,1018.5h-43c-5,0-9.8-4.1-10.8-9l-8.3-43c-1-5,2.3-9,7.3-9h43c5,0,9.8,4.1,10.8,9l8.3,43
				C937.5,1014.5,934.3,1018.5,929.3,1018.5z"/>
			<path class="st7" d="M1037.7,1018.5h-43c-5,0-9.8-4.1-10.8-9l-8.3-43c-1-5,2.3-9,7.3-9h43c5,0,9.8,4.1,10.8,9l8.3,43
				C1045.9,1014.5,1042.7,1018.5,1037.7,1018.5z"/>
			<path class="st6" d="M1471.3,1018.5h-43c-5,0-9.8-4.1-10.8-9l-8.3-43c-1-5,2.3-9,7.3-9h43c5,0,9.8,4.1,10.8,9l8.3,43
				C1479.6,1014.5,1476.3,1018.5,1471.3,1018.5z"/>
			<path class="st7" d="M1128.1,925.2h-43c-5,0-9.8-4.1-10.8-9l-8.3-43c-1-5,2.3-9,7.3-9h43c5,0,9.8,4.1,10.8,9l8.3,43
				C1136.4,921.2,1133.1,925.2,1128.1,925.2z"/>
			<path class="st7" d="M1236.5,925.2h-43c-5,0-9.8-4.1-10.8-9l-8.3-43c-1-5,2.3-9,7.3-9h43c5,0,9.8,4.1,10.8,9l8.3,43
				C1244.8,921.2,1241.5,925.2,1236.5,925.2z"/>
			<path class="st6" d="M1344.9,925.2h-43c-5,0-9.8-4.1-10.8-9l-8.3-43c-1-5,2.3-9,7.3-9h43c5,0,9.8,4.1,10.8,9l8.3,43
				C1353.2,921.2,1349.9,925.2,1344.9,925.2z"/>
			<path class="st6" d="M1453.3,925.2h-43c-5,0-9.8-4.1-10.8-9l-8.3-43c-1-5,2.3-9,7.3-9h43c5,0,9.8,4.1,10.8,9l8.3,43
				C1461.6,921.2,1458.3,925.2,1453.3,925.2z"/>
			<path class="st7" d="M1165.2,1117.4h-43c-5,0-9.8-4.1-10.8-9l-8.3-43c-1-5,2.3-9,7.3-9h43c5,0,9.8,4.1,10.8,9l8.3,43
				C1173.4,1113.3,1170.2,1117.4,1165.2,1117.4z"/>
			<path class="st7" d="M1273.6,1117.4h-43c-5,0-9.8-4.1-10.8-9l-8.3-43c-1-5,2.3-9,7.3-9h43c5,0,9.8,4.1,10.8,9l8.3,43
				C1281.8,1113.3,1278.6,1117.4,1273.6,1117.4z"/>
			<path class="st6" d="M1382,1117.4h-43c-5,0-9.8-4.1-10.8-9l-8.3-43c-1-5,2.3-9,7.3-9h43c5,0,9.8,4.1,10.8,9l8.3,43
				C1390.2,1113.3,1386.9,1117.4,1382,1117.4z"/>
			<path class="st7" d="M840,1117.4h-43c-5,0-9.8-4.1-10.8-9l-8.3-43c-1-5,2.3-9,7.3-9h43c5,0,9.8,4.1,10.8,9l8.3,43
				C848.2,1113.3,845,1117.4,840,1117.4z"/>
			<path class="st7" d="M948.4,1117.4h-43c-5,0-9.8-4.1-10.8-9l-8.3-43c-1-5,2.3-9,7.3-9h43c5,0,9.8,4.1,10.8,9l8.3,43
				C956.6,1113.3,953.3,1117.4,948.4,1117.4z"/>
			<path class="st7" d="M1056.8,1117.4h-43c-5,0-9.8-4.1-10.8-9l-8.3-43c-1-5,2.3-9,7.3-9h43c5,0,9.8,4.1,10.8,9l8.3,43
				C1065,1113.3,1061.8,1117.4,1056.8,1117.4z"/>
			<path class="st6" d="M1490.4,1117.4h-43c-5,0-9.8-4.1-10.8-9l-8.3-43c-1-5,2.3-9,7.3-9h43c5,0,9.8,4.1,10.8,9l8.3,43
				C1498.6,1113.3,1495.3,1117.4,1490.4,1117.4z"/>
			<path class="st7" d="M1184.3,1216.3h-43c-5,0-9.8-4.1-10.8-9l-8.3-43c-1-5,2.3-9,7.3-9h43c5,0,9.8,4.1,10.8,9l8.3,43
				C1192.5,1212.2,1189.2,1216.3,1184.3,1216.3z"/>
			<path class="st7" d="M1292.7,1216.3h-43c-5,0-9.8-4.1-10.8-9l-8.3-43c-1-5,2.3-9,7.3-9h43c5,0,9.8,4.1,10.8,9l8.3,43
				C1300.9,1212.2,1297.6,1216.3,1292.7,1216.3z"/>
			<path class="st6" d="M1401.1,1216.3h-43c-5,0-9.8-4.1-10.8-9l-8.3-43c-1-5,2.3-9,7.3-9h43c5,0,9.8,4.1,10.8,9l8.3,43
				C1409.3,1212.2,1406,1216.3,1401.1,1216.3z"/>
			<path class="st7" d="M859,1216.3h-43c-5,0-9.8-4.1-10.8-9l-8.3-43c-1-5,2.3-9,7.3-9h43c5,0,9.8,4.1,10.8,9l8.3,43
				C867.3,1212.2,864,1216.3,859,1216.3z"/>
			<path class="st7" d="M967.5,1216.3h-43c-5,0-9.8-4.1-10.8-9l-8.3-43c-1-5,2.3-9,7.3-9h43c5,0,9.8,4.1,10.8,9l8.3,43
				C975.7,1212.2,972.4,1216.3,967.5,1216.3z"/>
			<path class="st7" d="M1075.9,1216.3h-43c-5,0-9.8-4.1-10.8-9l-8.3-43c-1-5,2.3-9,7.3-9h43c5,0,9.8,4.1,10.8,9l8.3,43
				C1084.1,1212.2,1080.8,1216.3,1075.9,1216.3z"/>
			<path class="st6" d="M1509.5,1216.3h-43c-5,0-9.8-4.1-10.8-9l-8.3-43c-1-5,2.3-9,7.3-9h43c5,0,9.8,4.1,10.8,9l8.3,43
				C1517.7,1212.2,1514.4,1216.3,1509.5,1216.3z"/>
			<path class="st7" d="M1202.3,1309.6h-43c-5,0-9.8-4.1-10.8-9l-8.3-43c-1-5,2.3-9,7.3-9h43c5,0,9.8,4.1,10.8,9l8.3,43
				C1210.5,1305.5,1207.2,1309.6,1202.3,1309.6z"/>
			<path class="st7" d="M1310.7,1309.6h-43c-5,0-9.8-4.1-10.8-9l-8.3-43c-1-5,2.3-9,7.3-9h43c5,0,9.8,4.1,10.8,9l8.3,43
				C1318.9,1305.5,1315.6,1309.6,1310.7,1309.6z"/>
			<path class="st6" d="M1419.1,1309.6h-43c-5,0-9.8-4.1-10.8-9l-8.3-43c-1-5,2.3-9,7.3-9h43c5,0,9.8,4.1,10.8,9l8.3,43
				C1427.3,1305.5,1424,1309.6,1419.1,1309.6z"/>
			<path class="st7" d="M877,1309.6h-43c-5,0-9.8-4.1-10.8-9l-8.3-43c-1-5,2.3-9,7.3-9h43c5,0,9.8,4.1,10.8,9l8.3,43
				C885.3,1305.5,882,1309.6,877,1309.6z"/>
			<path class="st7" d="M985.5,1309.6h-43c-5,0-9.8-4.1-10.8-9l-8.3-43c-1-5,2.3-9,7.3-9h43c5,0,9.8,4.1,10.8,9l8.3,43
				C993.7,1305.5,990.4,1309.6,985.5,1309.6z"/>
			<path class="st7" d="M1093.9,1309.6h-43c-5,0-9.8-4.1-10.8-9l-8.3-43c-1-5,2.3-9,7.3-9h43c5,0,9.8,4.1,10.8,9l8.3,43
				C1102.1,1305.5,1098.8,1309.6,1093.9,1309.6z"/>
			<path class="st7" d="M904,872.6H790.2c-1.7,0-3-1.4-3-3l0,0c0-1.7,1.4-3,3-3H904c1.7,0,3,1.4,3,3l0,0
				C907.1,871.2,905.7,872.6,904,872.6z"/>
			<path class="st7" d="M907.5,886.4H793.7c-1.7,0-3-1.4-3-3l0,0c0-1.7,1.4-3,3-3h113.8c1.7,0,3,1.4,3,3l0,0
				C910.5,885,909.2,886.4,907.5,886.4z"/>
		</g>
		<g>
			<path class="st5" d="M782,770h-39c-3.2,0-5.8-2.6-5.8-5.8l0,0c0-3.2,2.6-5.8,5.8-5.8h39c3.2,0,5.8,2.6,5.8,5.8l0,0
				C787.8,767.3,785.2,770,782,770z"/>
			<path class="st5" d="M889.1,770h-39c-3.2,0-5.8-2.6-5.8-5.8l0,0c0-3.2,2.6-5.8,5.8-5.8h39c3.2,0,5.8,2.6,5.8,5.8l0,0
				C894.9,767.3,892.3,770,889.1,770z"/>
			<path class="st5" d="M996.3,770h-39c-3.2,0-5.8-2.6-5.8-5.8l0,0c0-3.2,2.6-5.8,5.8-5.8h39c3.2,0,5.8,2.6,5.8,5.8l0,0
				C1002.1,767.3,999.5,770,996.3,770z"/>
			<path class="st5" d="M1103.4,770h-39.1c-3.2,0-5.8-2.6-5.8-5.8l0,0c0-3.2,2.6-5.8,5.8-5.8h39.1c3.2,0,5.8,2.6,5.8,5.8l0,0
				C1109.3,767.3,1106.7,770,1103.4,770z"/>
			<path class="st5" d="M1210.6,770h-39.1c-3.2,0-5.8-2.6-5.8-5.8l0,0c0-3.2,2.6-5.8,5.8-5.8h39.1c3.2,0,5.8,2.6,5.8,5.8l0,0
				C1216.4,767.3,1213.8,770,1210.6,770z"/>
			<path class="st5" d="M1317.8,770h-39.1c-3.2,0-5.8-2.6-5.8-5.8l0,0c0-3.2,2.6-5.8,5.8-5.8h39.1c3.2,0,5.8,2.6,5.8,5.8l0,0
				C1323.6,767.3,1321,770,1317.8,770z"/>
			<path class="st5" d="M1424.9,770h-39.1c-3.2,0-5.8-2.6-5.8-5.8l0,0c0-3.2,2.6-5.8,5.8-5.8h39.1c3.2,0,5.8,2.6,5.8,5.8l0,0
				C1430.8,767.3,1428.1,770,1424.9,770z"/>
		</g>
		<path class="st3" d="M1830.5,1380.7h-68.8c-3.7-3.1,2.6-10.2,9.1-10.7c2.8-0.2,6.4,0.4,10.5,1.2c0.9-12.6,6.4-69.1,26.7-66.9
			c22.9,2.5,0,24.9-6.5,38.1c-4.8,9.8-9.9,23.9-12.2,30.5c1.9,0.4,3.8,0.8,5.8,1.2c3-9.3,14.3-40.7,28.7-38.9
			c16.9,2.1,10.1,14.7-1.9,22.2c-8.8,5.5-19.6,13.3-24.7,17.1c4.3,0.7,8.9,1.2,13.5,1.1C1822.5,1375.4,1828.2,1378.9,1830.5,1380.7z
			"/>
		<path class="st3" d="M259.3,1377.4c-3.6-5.7-14.6-20.6-29.2-18.6c-15.9,2.1,17.6,12.7,27.9,18.7c-2.3,0-4.2-0.2-5.7-0.7
			c-6.9-2.4-18.6,2.2-22.4,3.9h65.3c-0.5-1.6-1.6-4.1-4.7-6c-1.1-0.7-3.2-0.8-6-0.5c3.9-4.6,6.6-19.2-4.2-15.4
			c-7.9,2.8-7.9,11.7-7.1,17c-1.7,0.3-3.4,0.5-5.1,0.8c-3.2-16.6-14.8-65.2-38.1-66.4c-23.6-1.3,20,50.4,34.6,66.9
			C262.7,1377.2,260.9,1377.4,259.3,1377.4z"/>
		<path class="st9" d="M2046.7,1385.5H2.7c-1.5,0-2.7-1.2-2.7-2.7l0,0c0-1.5,1.2-2.7,2.7-2.7h2044c1.5,0,2.7,1.2,2.7,2.7l0,0
			C2049.4,1384.2,2048.2,1385.5,2046.7,1385.5z"/>
	</g>
</g>
<g>
	<g>
		<path class="st10" d="M1525.7,1074.3c2,8.3,3,17.5,1.5,25.9c-19.1,8.9-18.2-25.9-18.2-25.9
			C1516.1,1077,1525.7,1074.3,1525.7,1074.3z"/>
		<path class="st10" d="M1473.7,1078.2c0,0,5.4,34-19.8,35.5c0,0-24.5,1.5-19.8-34.2C1434.1,1079.5,1452.3,1084.7,1473.7,1078.2z"/>
		<path class="st10" d="M1488.5,1107.5l-4.2,63.8l-9-29.8v0c0.4-4.6,0.9-8.3,1.2-10.6c0.2-1.7,0.9-3.3,2-4.8
			C1482.9,1120.2,1486.1,1113.8,1488.5,1107.5z"/>
		<path class="st11" d="M1524.1,1034.5c8-10.8,10.9-32.8,10.9-32.8c0.9-7.5,4.6-14.9,8.2-20.7c1.2-1.9,2.4-3.7,3.5-5.2l-9.6-30.9
			l4.2-5.2l7.7-9.5l23.5,34.7c4,5.9,4.7,13.5,1.8,20.1c-5.2,11.9-14,31.1-21.4,44c-3,5.2-6.8,9.9-11.3,13.8c-1,0.9-1.8,2-2.4,3.2
			c-1.1,2.2-3.2,6.1-6.5,9.5l-16.3-7l0,0l-8.6,0.9c-0.3,0-0.7,0-1-0.1c-1.3-0.2-2.4-1.2-2.7-2.5c-0.5-1.8,0.6-3.7,2.4-4.2l6-1.6
			l3-0.8c2.1-0.2,4-1.1,5.7-2.6h0C1522.2,1036.8,1523.2,1035.7,1524.1,1034.5z"/>
		<path class="st12" d="M1486,1049.7c7.6-0.4,14.7-0.5,20.9-0.3c0.2,0.1,0.4,0.1,0.6,0.1c0.1,0,0.2,0,0.4,0l8.6-0.9l0,0
			c0.2,0.3,2.8,5.5,5.5,13c1.3,3.7,2.7,8.1,3.8,12.7c0,0-9.7,2.7-16.7,0c0,0-0.9,34.8,18.2,25.9c-0.3,1.5-0.6,3-1.1,4.5
			c-0.4,1.3-0.4,2.7-0.2,4.1c2.2,13.5,13.3,82,20.5,114.6c0.6,2.9,1.1,5.8,1.3,8.7l9.4,124.3c0,0-0.8,0.2-2.1,0.6
			c-5.7,1.4-21.6,4.6-30.6-0.6l-32-157c-0.5-2.3-1.1-4.6-1.7-6.8l-6.4-21.3l4.2-63.8c-2.4,6.3-5.6,12.7-10,18.6
			c-1.1,1.4-1.8,3-2,4.8c-0.3,2.3-0.7,6-1.2,10.6v0c-0.9,8.9-1.8,21-1.8,32.2l-6.1,123.2l1.7,64.4c0,0-0.6,0.2-1.8,0.5
			c-5.8,1.5-24.7,6-33.8,1.4c-1-0.5-1.9-1.1-2.6-1.9l-5.9-149.8c-0.2-3.7-0.6-7.4-1.3-11c-3.5-17.1-14-72.6-14.6-118.9
			c-0.1-7.9,0.1-15.6,0.6-22.8l0.1-0.5l1.4,0.2c2.1,0.2,4.2-0.2,6.1-1.2c0,0,0,0,0,0c0.5-0.1,6.8-1,16.1-2.3
			C1447.2,1053.1,1467.7,1050.7,1486,1049.7z M1453.9,1113.7c25.1-1.5,19.8-35.5,19.8-35.5c-21.4,6.5-39.6,1.3-39.6,1.3
			C1429.3,1115.2,1453.9,1113.7,1453.9,1113.7z"/>
		<path class="st13" d="M1555,1356.9c0,0,1.3,10.2,1.1,20.5c-0.1,3.6-2.5,6.8-6,7.8c-3,0.9-6.9,1.5-11.1,1c-1.7-0.2-3.2-0.8-4.6-1.9
			c-2.7-2.1-8.6-6-13.2-6c0,0-13.9,0.5-19.9-10.1c-0.6-1-1-2.1-1.2-3.3c-0.2-0.8-0.3-1.8-0.3-2.8c0-1.7,0.9-3.2,2.5-3.8
			c3.6-1.4,12.2-4.2,22.2-2.1C1533.4,1361.5,1549.3,1358.3,1555,1356.9L1555,1356.9L1555,1356.9z"/>
		<path class="st14" d="M1537.1,944.9l9.6,30.9c-1.1,1.5-2.3,3.2-3.5,5.2l-0.3-0.2l-15.7-23.7L1537.1,944.9z"/>
		<path class="st14" d="M1516.4,1048.6l16.3,7c-2.8,2.8-6.4,5.3-10.8,6.1C1519.2,1054.1,1516.6,1048.9,1516.4,1048.6z"/>
		<path class="st11" d="M1469.9,850.2c2.4-0.2,4.6-1,6.2-1.9c0.4-0.2,0.8-0.4,1.1-0.7c0,0,3.3,9.3,4.6,12.7l0,0.2
			c-0.8,0-1.7,0.2-2.5,0.3l-23.3,5l-13.4,2.9l-0.2-0.7c-0.1-0.8-0.2-1.7-0.4-2.4h0l3.7-22.5l-0.3,0.9c-1.1,2.9-3.5,5.2-6.4,6.2
			l-7.3,2.3l-3.3,1c-11,2.2-11.1-6.4-11.1-6.4l1.4-17.7l1.4-17.1l0.2-2.2c0.4-4.9,1.3-9.8,2.8-14.6l1.8-6l0-0.1
			c0.7,0.2,1.6,0.2,2.7,0.1c0,0,7.3-3,7.3,0.9l-4.3,11.2c-0.5,1.4-0.4,2.9,0.4,4.2l1.8,2.9c0.6,1,1,2.2,1,3.4l0.2,4.5
			c0,1,0.4,2,1.1,2.7c0.7,0.7,1.6,1.2,2.6,1.3c2,0.2,3.9-1.1,4.4-3.1l0.2-0.7c0.3-1.3,1.6-2.2,3-2c2.5,0.4,6.2,1.9,6.3,7h0
			c0.6,0.9,2,4.7,2.7,6.6c0.3,0.7,0.4,1.5,0.4,2.3c0.2,4.8,1.2,8.8,2.3,11.7c0.6,1.5,1.4,2.9,2.6,4.1c1.9,2.1,4.6,3.5,7.5,3.8
			C1467.9,850.3,1468.9,850.3,1469.9,850.2z"/>
		<path class="st13" d="M1467.3,1361.8c7.3,12.6,4.1,31.2,2.9,36.5c-0.2,1-0.8,2-1.7,2.6c-5.2,3.8-13.8,3.7-18.9,3.3
			c-2.3-0.2-4.4-0.8-6.5-1.7c-9.1-3.8-21.8-2.2-21.8-2.2c-24.2,3.3-36.8-3.9-40.9-6.9c-1.1-0.8-1.7-2.2-1.5-3.6
			c1.1-5.7,8.7-6.9,8.7-6.9c24.7-3.2,45.8-19.8,45.8-19.8C1442.6,1367.7,1461.5,1363.3,1467.3,1361.8z"/>
		<path class="st14" d="M1445.8,843.1l-3.7,22.5h0c-2.5-11.9-10.4-13.2-10.4-13.2l7.3-2.3c3-0.9,5.4-3.2,6.4-6.2L1445.8,843.1z"/>
		<path class="st11" d="M1437.1,1044.6c0.9,0.7,1.5,1.7,1.6,2.9c0,0.1,0,0.2,0,0.4c0,2.1-1.6,3.8-3.7,4.1l-3.3,0.3
			c-1.4-2.6-2.5-5.2-3.1-8l5.7-0.4C1435.4,1043.7,1436.3,1044.1,1437.1,1044.6z"/>
		<path class="st11" d="M1409.7,1058.2l-0.1,0.5l-9.4,18.2c-3.1-3.2-5.7-7.4-7.3-10.7c-1.4-2.8-2.2-5.9-2.2-9.1v-6.5
			c0-1.2-0.1-2.4-0.3-3.6l-11-47.6c-3-13.1-1.5-26.8,4.3-38.9l4.7-9.7c3.4,1,8.1,2.2,14.2,3c1.4,0.2,2.8,0.4,4.4,0.5l5.5,31.3
			l-2.5,9.2c-0.7,2.7-1.1,5.4-1.2,8.1c-0.1,3.8-0.1,9.6,0.2,15.6c0.5,9.7,1.8,20.1,5.2,23.5c0,0,1.5,2.6,7.6,2.6l6.7-0.5
			c0.6,2.8,1.7,5.5,3.1,8l-4.6,0.4c-1.3,0.1-2.6,0.5-3.7,1.1l-6.2,3.3c0,0,0,0,0,0c-1.9,1-4,1.4-6.1,1.2L1409.7,1058.2z"/>
		<path class="st14" d="M1420.7,955.4L1420.7,955.4l-8.2,30.4l-5.5-31.3C1411,954.9,1415.6,955.2,1420.7,955.4z"/>
		<polygon class="st14" points="1420.1,812.3 1418.7,829.4 1412.2,827.8 		"/>
		<path class="st14" d="M1400.3,1077l9.4-18.2c-0.6,7.2-0.8,14.8-0.6,22.8h0C1405.8,1081.5,1402.9,1079.6,1400.3,1077z"/>
		<g>
			<path class="st15" d="M1504.1,1047c-0.5-1.8,0.6-3.7,2.4-4.2l6-1.6c-13.2-0.9-24.6-1.1-34.4-0.8c-26.6,0.6-40.4,4.2-41,4.4
				c0.9,0.7,1.5,1.7,1.6,2.9c0,0.1,0,0.2,0,0.4c0,2.1-1.6,3.8-3.7,4.1l-3.3,0.3l-4.6,0.4c-1.3,0.1-2.6,0.5-3.7,1.1l-6.2,3.3
				c0.5-0.1,6.8-1,16.1-2.3c13.8-1.8,34.3-4.2,52.6-5.2c7.6-0.4,14.7-0.5,20.9-0.3C1505.5,1049.2,1504.4,1048.3,1504.1,1047z"/>
			<path class="st15" d="M1549.5,925.5l-1.9-3.6c-0.3,0.3-4.4,5.7-9.3,11.8c-5.4,6.8-11.7,14.5-14.4,17.2h0
				c-0.2,2.1-0.5,4.2-0.9,6.4l-1.2,6.5l5.4-6.7l10-12.2l4.2-5.2l7.7-9.5C1550.1,928.9,1550.3,927,1549.5,925.5z"/>
			<path class="st16" d="M1442.3,936.1c-2.8-1.2-5.8-2-8.8-2.5c-6.1-1.2-12.4-1.6-18.3-3.5c-7.3-2.3-15.8-7.5-20.7-14.4l-10.6,25.2
				c0,0,12.5,4.8,28.2,7.8c4.2-1.8,8.8-3.3,12.7-4c1.8-0.3,3.5-0.4,5.2-0.2c9.5,0.8,17,8.5,16.7,18.4c-0.4,12.1-6.6,18.1-15.7,24.9
				c-4.7,3.5-9,7.2-12.3,11.5c-0.3,1.8-0.5,3.7-0.7,5.5c-1.1,10.1-1.3,39.5-3.6,37.3c0,0,1.5,2.6,7.6,2.6l6.7-0.5
				c-1-4.5-1.1-9.3,0.1-14.8c2-9.5,7.1-16.3,13.4-23.5c6-6.9,13.9-11.7,18.2-20c4.5-8.7,4.5-21.4,0.5-30.3
				C1457.3,947.7,1450.4,939.5,1442.3,936.1z M1543.9,915c-1.8-0.9-3.7-1.7-5.7-2.2c-3.9-1-8-0.8-12-1.2c-0.6-0.1-1.3-0.1-1.9-0.2
				c-10.4-1.6-17.8-4.8-24.5-13c-7.9-9.6-8.8-22.6-3.1-32.4l-4.5-2.8c-2.6-1.7-5.5-2.5-8.5-2.7c-3.1,4.2-5.1,9.6-5.7,14.7
				c-1.8,12.8,3.2,25.7,12.5,34.4c9.5,8.9,20.3,9.2,31.8,13.5c1.1,0.4,2.2,0.8,3.2,1.3c3,1.3,6.1,2.8,8.6,4.8c1.7,1.3,3,2.9,4.2,4.6
				c4.9-6.1,9.1-11.5,9.3-11.8L1543.9,915z M1500,1014.8c-3.6-10,1.7-23,4.1-32.8c3.8-15.5,7.1-33.2-4.6-46.1
				c-9.8-10.8-22.6-18-34.1-26.9c-9.1-7-14.1-21.1-12.7-32.5c0.5-3.8,1.8-7.2,3.3-10.6l-13.4,2.9l-13.4,2.9
				c-5.2,1.1-9.8,3.8-13.4,7.7l-5.5,6c-1,1.1-1.9,2.2-2.8,3.3c4.4,4.8,11,8.7,14.5,10.9c16.2,10,36.1,14.5,49.6,28.8
				c14.3,15.2,16.5,36.7,9.8,55.7c-5.6,15.8-11.8,39.8-3.3,56.2c9.8-0.2,21.2-0.1,34.4,0.8l3-0.8v-8.2
				C1508.4,1029,1503.1,1023.3,1500,1014.8z"/>
			<path class="st17" d="M1446.6,962.9c0.3-9.9-7.2-17.6-16.7-18.4c-1.7-0.2-3.4-0.1-5.2,0.2c-3.9,0.7-8.4,2.1-12.7,4
				c4.9,1,10.2,1.8,15.5,2.2c-1.1,2.8-1.9,4.5-1.9,4.5c-0.8,0-1.6,0-2.3,0c0,0,0.3,15.4-4.3,41.4c-0.2,0.8-0.3,1.7-0.4,2.6
				c3.3-4.3,7.6-8,12.3-11.5C1440,981,1446.2,975,1446.6,962.9z M1534.1,929c-2.5-2-5.5-3.5-8.6-4.8c-1.1-0.5-2.2-0.9-3.2-1.3
				c-11.5-4.2-22.3-4.6-31.8-13.5c-9.2-8.6-14.2-21.5-12.5-34.4c0.7-5,2.7-10.5,5.7-14.7c-0.6,0-1.3,0-1.9,0c-0.8,0-1.7,0.2-2.5,0.3
				l-23.3,5c-1.5,3.4-2.9,6.8-3.3,10.6c-1.4,11.3,3.6,25.4,12.7,32.5c11.5,8.8,24.3,16.1,34.1,26.9c11.7,12.9,8.4,30.6,4.6,46.1
				c-2.4,9.8-7.7,22.8-4.1,32.8c3.1,8.6,8.5,14.2,15.5,17.3v-27.3c0-4.1,0.4-8.2,1.1-12.2l5.2-28.8l1.2-6.5c0.4-2.1,0.7-4.2,0.9-6.4
				h0c2.7-2.7,9-10.4,14.4-17.2C1537.1,932,1535.7,930.4,1534.1,929z M1524.3,911.3c0.6,0.1,1.3,0.2,1.9,0.2c4,0.4,8.1,0.2,12,1.2
				c2,0.5,3.9,1.3,5.7,2.2l-11.4-21.4c-2.8-5.2-6.9-9.5-12.1-12.5l-23.7-15c-5.8,9.8-4.8,22.7,3.1,32.4
				C1506.5,906.5,1514,909.7,1524.3,911.3z M1422.1,899.6c-3.6-2.2-10.1-6.1-14.5-10.9c-2.5,3.3-4.6,6.9-6.2,10.7l-6.8,16.2
				c4.9,6.9,13.4,12.1,20.7,14.4c5.9,1.9,12.2,2.3,18.3,3.5c3,0.6,6,1.3,8.8,2.5c8.1,3.4,14.9,11.6,18.4,19.5c4,9,4,21.6-0.5,30.3
				c-4.3,8.4-12.2,13.2-18.2,20c-6.2,7.2-11.4,14-13.4,23.5c-1.1,5.5-1.1,10.3-0.1,14.8l5.7-0.4c1-0.1,2,0.2,2.8,0.8
				c0.6-0.2,14.4-3.7,41-4.4c-8.5-16.4-2.3-40.5,3.3-56.2c6.8-19,4.5-40.5-9.8-55.7C1458.2,914.1,1438.2,909.6,1422.1,899.6z"/>
			<path class="st15" d="M1412.1,948.7c-15.7-3.1-28.2-7.8-28.2-7.8l-1.7,4.1c-0.7,1.7,0.1,3.7,1.8,4.4c1.2,0.5,2.7,1,4.5,1.6v0
				c3.4,1,8.1,2.2,14.2,3c1.4,0.2,2.8,0.4,4.4,0.5c4,0.4,8.6,0.8,13.7,0.9c0.8,0,1.7,0,2.6,0c0.8,0,1.6,0,2.3,0c0,0,0.8-1.7,1.9-4.5
				C1422.3,950.5,1417,949.7,1412.1,948.7z"/>
		</g>
		<path class="st18" d="M1440.9,831.4c2.3,0.1,4.5-0.4,6.2-1.6c1.6-1.3,2.7-3.1,3.2-5.2c0.4-2,0.6-4.3-0.2-6.1
			c-0.8-1.9-2.8-3.1-4.9-3.8c1.1,0,2.3,0.3,3.3,0.8c1.1,0.5,2,1.4,2.6,2.4c0.6,1.1,0.9,2.3,1,3.5c0,0.6,0,1.2-0.1,1.8
			c0,0.6-0.1,1.2-0.3,1.8c-0.6,2.3-1.9,4.5-4,5.8C1445.6,832,1443.1,832,1440.9,831.4z"/>
		<path class="st18" d="M1551.3,970c-1.4,2-2.7,4-4.1,6c-1.2,2.1-2.6,4-3.9,6.1c-2.5,4.1-4.8,8.3-6.8,12.7c0.9-4.8,3-9.3,5.5-13.5
			c1.3-2.1,2.8-4,4.2-6C1547.8,973.5,1549.5,971.7,1551.3,970z"/>
		<path class="st19" d="M1495,1068.5c0.5,6.4,0.1,12.8-0.8,19.2c-0.9,6.4-2.4,12.7-4.6,18.8c-2.2,6.1-5.1,11.9-8.8,17.2
			c-0.9,1.3-2,2.6-2.8,3.9c-0.8,1.3-1.2,2.8-1.3,4.4c-0.5,3.2-0.9,6.3-1.4,9.5c0.2-3.2,0.5-6.4,0.7-9.6c0.1-1.6,0.4-3.3,1.2-4.8
			c0.4-0.8,0.9-1.4,1.3-2.1c0.4-0.7,0.9-1.3,1.3-2c3.4-5.3,6.2-11.1,8.3-17.1c2.2-5.9,3.8-12.2,4.8-18.4c0.6-3.1,1-6.3,1.3-9.5
			C1494.8,1074.9,1494.9,1071.7,1495,1068.5z"/>
		<path class="st18" d="M1532.8,1041.1c-2.1-0.4-3.9-1.1-5.8-1.7c-1.9-0.6-3.7-1.3-5.8-1.7l0,0l0,0l0,0l0,0c1-0.4,2.1-0.5,3.2-0.4
			c1.1,0.1,2.1,0.3,3.1,0.7c1,0.3,1.9,0.8,2.8,1.3S1532,1040.3,1532.8,1041.1z"/>
		<g>
			<path class="st18" d="M1431.7,1052.3c-1.1,0.3-2.2,0.5-3.3,0.7c-1.1,0.2-2.2,0.4-3.2,0.8c-0.5,0.2-1,0.4-1.4,0.7l-1.5,0.8l-3,1.6
				c-1,0.5-2,1.1-3.1,1.5c-1.2,0.4-2.3,0.6-3.6,0.6c-1.2,0-2.3-0.3-3.4-0.5c-1.1-0.2-2.2-0.4-3.3-0.7c1.1,0,2.3,0,3.4,0
				c1.1,0,2.3,0.1,3.3,0c1.1-0.1,2.1-0.3,3.1-0.7c1-0.4,1.9-1,2.9-1.5l3-1.6l1.5-0.8c0.5-0.3,1.1-0.5,1.7-0.7
				c1.2-0.3,2.4-0.4,3.5-0.4C1429.4,1052.3,1430.6,1052.2,1431.7,1052.3z"/>
		</g>
		<g>
			<path class="st13" d="M1485.5,784.6c-1.9-0.6-3.4-2.2-3.8-4.2c-2.5-13.6-14.5-17.1-19.5-17.9c-1.4-0.2-2.2-0.3-2.2-0.3
				c-9.4-1.3-16.6-0.8-21.9,0.6c-8.7,2.3-12.8,7.1-14.6,10.3c-1,1.9-1.3,3.2-1.3,3.2s-3.2,11.6,2.7,13.2c0.7,0.2,1.6,0.2,2.7,0.1
				c0,0,7.3-3,7.3,0.9l-4.3,11.2c-0.5,1.4-0.4,2.9,0.4,4.2l1.8,2.9c0.6,1,1,2.2,1,3.4l0.2,4.5c0,1,0.4,2,1.1,2.7
				c0.7,0.7,1.6,1.2,2.6,1.3c2,0.2,3.9-1.1,4.4-3.1l0.2-0.7c0.3-1.3,1.6-2.2,3-2c2.5,0.4,6.2,1.9,6.3,7h0c0.6,0.9,2,4.7,2.7,6.6
				c0.3,0.7,0.4,1.5,0.4,2.3c0.2,4.8,1.2,8.8,2.3,11.7c0.6,1.5,1.4,2.9,2.6,4.1c1.9,2.1,4.6,3.5,7.5,3.8c1.1,0.1,2.1,0.1,3,0
				c2.4-0.2,4.6-1,6.2-1.9c0.4-0.2,0.8-0.4,1.1-0.7c1.9-1.4,3.4-3.4,4-5.8c0.8-3.3,2.6-7.8,3.9-11c0.8-2,1.8-3.8,3.1-5.5
				c0.8-1.1,1.7-2.4,2.4-3.8c1.8-3.2,3.1-6.8,3.9-9c0.5-1.4,0.8-2.8,1-4.3C1497.7,791.2,1490.1,786.1,1485.5,784.6z"/>
			<path class="st20" d="M1490.7,821.2L1490.7,821.2c0.2-6.6-0.6-12.9-2.6-18.5c-1.1-3.2-3.3-6.4-6.6-9.4c-0.6-0.5-1.2-1-1.8-1.4
				c-1.2-0.9-2.4-1.8-3.1-3.2c-1.2-2.5-1.7-5.1-2.2-7.7c-0.7-3.6-1.3-7.3-3.9-10.6c-2.2-2.8-5.2-5.7-8-7.7l-0.9-0.1
				c0.1,0.1,0.2,0.1,0.3,0.2c3.4,2.4,6.5,5.7,8.3,7.9c2.6,3.2,3.2,6.9,3.9,10.4c0.5,2.6,1,5.3,2.2,7.8c0.7,1.5,1.9,2.4,3.2,3.3
				c0.6,0.5,1.2,0.9,1.7,1.4c3.2,3,5.4,6.2,6.5,9.3c1.9,5.6,2.8,12.1,2.5,18.7c0,0.1,0,0.2,0,0.4v0L1490.7,821.2z M1470.1,850.2
				c5.4-8.6,8.3-21.1,7.1-31.2c-0.9-7.7-2.6-16.4-9.1-22.9c-0.5-0.5-1-1-1.5-1.4c-2.1-2-3.4-3.2-3.9-6.4c-0.1-0.6-0.2-1.2-0.3-1.7
				c-0.9-5.3-1.8-10.7-6.1-14.4c-4.6-4-9.9-7-16.4-9.1c-0.5-0.2-1-0.3-1.5-0.5l-0.7,0.2c0.1,0,0.2,0,0.3,0.1
				c0.6,0.1,1.2,0.3,1.8,0.5c6.4,2.1,11.7,5,16.2,9c4.1,3.6,5,9,5.9,14.2c0.1,0.6,0.2,1.1,0.3,1.7c0.6,3.3,1.9,4.6,4.1,6.6
				c0.4,0.4,0.9,0.9,1.5,1.4c3.6,3.6,7.5,9.1,9,22.6c1.1,10-1.8,22.5-7.2,31.1c0,0-0.1,0.1-0.1,0.1L1470.1,850.2z M1459.5,846.5
				C1459.5,846.4,1459.5,846.4,1459.5,846.5c5.8-11.5,6.1-25,0.9-38.1c-1.3-3.2-2.7-5.7-5.3-7.7c-0.5-0.3-1-0.6-1.5-0.9
				c-1-0.5-2-1-2.5-2c-0.9-1.6-0.7-4-0.6-6.2c0.1-1.6,0.2-3.1-0.1-4.3c-1-4.8-4.3-10.8-9.5-13.5c-4.7-2.3-10.4-2.8-16.1-1.4
				c-0.3,0.1-0.6,0.2-1.1,0.4l0,0.1l-0.2,0.5c0.1,0,0.1-0.1,0.2-0.1c0.6-0.2,1-0.3,1.3-0.4c5.7-1.4,11.3-1,15.8,1.4
				c5.1,2.6,8.4,8.5,9.3,13.2c0.2,1.2,0.1,2.7,0.1,4.2c-0.1,2.3-0.3,4.8,0.7,6.4c0.6,1.1,1.7,1.6,2.7,2.1c0.5,0.3,1.1,0.5,1.5,0.8
				c2.6,1.9,3.9,4.3,5.2,7.5c5.1,12.9,4.8,26.3-0.9,37.6L1459.5,846.5z"/>
		</g>
		<path class="st21" d="M1525.5,924.3c0.1,5-0.2,10-0.5,14.9c-0.3,5-0.8,9.9-1.4,14.8c-0.6,4.9-1.3,9.9-2.2,14.8
			c-0.9,4.9-1.9,9.8-3.2,14.6c0.2-2.5,0.5-5,0.7-7.4l0.8-7.4c0.5-4.9,1.1-9.8,1.7-14.8c0.6-4.9,1.2-9.8,1.9-14.8l1-7.4
			C1524.7,929.2,1525,926.7,1525.5,924.3z"/>
		<path class="st21" d="M1425.7,955.4c1-5.4,2.6-10.5,4.4-15.6c1.8-5.1,3.9-10.1,6.5-14.9c-1,5.4-2.6,10.5-4.4,15.6
			C1430.3,945.6,1428.3,950.6,1425.7,955.4z"/>
	</g>
</g>
<g>
	<text transform="matrix(1 0 0 1 710.9722 207.1383)"><tspan x="0" y="0" class="st22 st23 st24">No D</tspan><tspan x="208.7" y="0" class="st22 st23 st24">a</tspan><tspan x="258" y="0" class="st22 st23 st24">ta </tspan><tspan x="362.5" y="0" class="st22 st23 st24 st25">F</tspan><tspan x="409.6" y="0" class="st22 st23 st24">ound</tspan></text>
</g>
</svg>
